<svg xmlns="http://www.w3.org/2000/svg" viewBox="0 0 64 64"><defs><style>.a{fill:#f2f6fc}.b{fill:#80dbff}.c{fill:#cdd2e1}.d{fill:#19cffc}.e{fill:#ffe77d}.f{fill:#d6475c}.g{fill:#ff808c}.h{fill:#707789}.i{fill:#636978}.j{fill:none;stroke:#000;stroke-linejoin:round;stroke-width:2px}</style></defs><path class="a" d="M51 5v1h-9a2.94 2.94 0 0 1-3 3H25a2.94 2.94 0 0 1-3-3h-9V5a4 4 0 0 1 4-4h30a4 4 0 0 1 4 4z"/><path class="b" d="M51 6v53a4 4 0 0 1-4 4H17a4 4 0 0 1-4-4V6h9a2.94 2.94 0 0 0 3 3h14a2.94 2.94 0 0 0 3-3z"/><path class="c" d="M20 1h-3a4 4 0 0 0-4 4v1h3V5a4 4 0 0 1 4-4z"/><path class="d" d="M16 59V6h-3v53a4 4 0 0 0 4 4h3a4 4 0 0 1-4-4z"/><path class="e" d="M27.5 4H36.5V6H27.5z"/><path class="a" d="M42 20L44 25 40 25 36 25 32 25 28 25 24 25 20 25 22 20 42 20z"/><path class="f" d="M44 25v4a2 2 0 0 1-4 0v-4zm-8 0v4a2 2 0 0 1-4 0v-4zm-8 0v4a2 2 0 0 1-4 0v-4z"/><path class="g" d="M40 25v4a2 2 0 0 1-4 0v-4zm-8 0v4a2 2 0 0 1-4 0v-4zm-8 0v4a2 2 0 0 1-4 0v-4z"/><path class="a" d="M28 35H36V44H28z"/><path class="c" d="M28 35H31V44H28z"/><path class="h" d="M42 31v13h-6v-9h-8v9h-6V31a2 2 0 0 0 2-2 2 2 0 0 0 4 0 2 2 0 0 0 4 0 2 2 0 0 0 4 0 2 2 0 0 0 4 0 2 2 0 0 0 2 2z"/><path class="i" d="M25.5 30.93A2 2 0 0 1 24 29a2 2 0 0 1-2 2v13h3V31a2.08 2.08 0 0 0 .5-.07z"/><path class="a" d="M42 31a2 2 0 0 0 2-2v-4l-2-5h-3v-5a2 2 0 0 1 2-2h20a2 2 0 0 1 2 2v14a2 2 0 0 1-2 2h-5l-5 5v-5z"/><path class="g" d="M25 44v13a2 2 0 0 1-2 2H3a2 2 0 0 1-2-2V43a2 2 0 0 1 2-2h5l5-5v5h10a2 2 0 0 1 2 2z"/><path class="c" d="M44 13h-3a2 2 0 0 0-2 2v5h3v-5a2 2 0 0 1 2-2zm3 16v-4l-2-5h-3l2 5v4a2 2 0 0 1-2 2h3a2 2 0 0 0 2-2z"/><path class="c" d="M54 31L51 31 51 36 54 33 54 31z"/><path class="f" d="M13 39L13 36 8 41 11 41 13 39z"/><path class="f" d="M4 57V43a2 2 0 0 1 2-2H3a2 2 0 0 0-2 2v14a2 2 0 0 0 2 2h3a2 2 0 0 1-2-2z"/><path class="a" d="M27 47H29V49H27z"/><path class="a" d="M31 47H43V49H31z"/><path class="a" d="M27 51H43V53H27z"/><path class="j" d="M13 30V5a4 4 0 0 1 4-4h30a4 4 0 0 1 4 4v8"/><path class="j" d="M13 34L13 32"/><path class="j" d="M13 59a4 4 0 0 0 4 4h30a4 4 0 0 0 4-4V39M13 6h9a2.94 2.94 0 0 0 3 3h14a2.94 2.94 0 0 0 3-3h9"/><path class="j" d="M27.5 5L36.5 5"/><path class="j" d="M20 25h4v4a2 2 0 0 1-2 2 2 2 0 0 1-2-2v-4zm4 0h4v4a2 2 0 0 1-2 2 2 2 0 0 1-2-2v-4zm4 0h4v4a2 2 0 0 1-2 2 2 2 0 0 1-2-2v-4zm4 0h4v4a2 2 0 0 1-2 2 2 2 0 0 1-2-2v-4zm4 0h4v4a2 2 0 0 1-2 2 2 2 0 0 1-2-2v-4zm4 0h4v4a2 2 0 0 1-2 2 2 2 0 0 1-2-2v-4z"/><path class="j" d="M20 25L22 20 42 20 44 25"/><path class="j" d="M25 44L42 44 42 31"/><path class="j" d="M22 31L22 39"/><path class="j" d="M28 44L28 35 36 35 36 44"/><path class="j" d="M27 48L29 48"/><path class="j" d="M31 48L43 48"/><path class="j" d="M27 52L43 52"/><path class="j" d="M25 57V43a2 2 0 0 0-2-2H13v-5l-5 5H3a2 2 0 0 0-2 2v14a2 2 0 0 0 2 2h20a2 2 0 0 0 2-2zm21-26h5v5l5-5h5a2 2 0 0 0 2-2V15a2 2 0 0 0-2-2H41a2 2 0 0 0-2 2v3"/><path class="j" d="M9 54L17 46"/><path class="j" d="M9 47L11 47"/><path class="j" d="M15 53L17 53"/><path class="j" d="M56 22L58 22"/><path class="j" d="M52 22L54 22"/><path class="j" d="M48 22L50 22"/></svg>