<svg viewBox="0 0 64 64" xmlns="http://www.w3.org/2000/svg"><path d="m44.41 35.57a2 2 0 0 1 -2.86 2.86l-20-20a2 2 0 0 1 2.86-2.86z" fill="#cdd2e1"/><path d="m22.29 47.7-2.29 2.3-10-10 2.3-2.29z" fill="#cdd2e1"/><path d="m13 40 .8-.79-1.5-1.5-2.3 2.29 10 10 1.5-1.5z" fill="#bec3d2"/><path d="m63 3v14a2 2 0 0 1 -2 2h-14l-5 5v-5h-7a2 2 0 0 1 -2-2v-14a2 2 0 0 1 2-2h26a2 2 0 0 1 2 2z" fill="#80dbff"/><path d="m36 17v-14a2 2 0 0 1 2-2h-3a2 2 0 0 0 -2 2v14a2 2 0 0 0 2 2h3a2 2 0 0 1 -2-2z" fill="#19cffc"/><path d="m45 19h-3v5l3-3z" fill="#19cffc"/><path d="m41.55 38.43-19.26 9.27-9.99-9.99 9.27-19.26z" fill="#f2f6fc"/><path d="m16.88 53.05h4.24v9.9h-4.24z" fill="#9196aa" transform="matrix(.70710678 -.70710678 .70710678 .70710678 -35.45 30.42)"/><path d="m20 50-3 3-3 3-1.7 1.7-.72-.72-8.56-8.56-.72-.72 7.7-7.7z" fill="#ff808c"/><path d="m16.22 35.79 7.38-15.31-2-2-9.3 19.23 10 10 2-1-7.5-7.5a3 3 0 0 1 -.58-3.42z" fill="#e9edf5"/><path d="m8.8 51.2-1.38-1.38a3 3 0 0 1 0-4.24l4.08-4.08-1.5-1.5-7.7 7.7.72.72 8.56 8.58.72.72 1.5-1.5z" fill="#f25a6b"/><path d="m11.58 57-1.43 1.43a2 2 0 0 1 -2.85 0l-5.71-5.73a2 2 0 0 1 0-2.85l1.41-1.43z" fill="#afb4c8"/><path d="m4.59 52.7a2 2 0 0 1 -.06-2.77l-1.53-1.51-1.41 1.43a2 2 0 0 0 0 2.85l5.71 5.71a2 2 0 0 0 2.85 0l.08-.08z" fill="#9196aa"/><path d="m44.64 28.77-1.28-1.54a26.05 26.05 0 0 1 15.64-5.23v2a24.3 24.3 0 0 0 -14.36 4.77z" fill="#80dbff"/><path d="m61 22h2v2h-2z" fill="#80dbff"/><path d="m63 39h-2c0-5.9-.91-8-6-8-5.32 0-7.09 3.41-7.11 3.45l-1.78-.9c.09-.18 2.35-4.55 8.89-4.55 7.39 0 8 4.73 8 10z" fill="#80dbff"/><path d="m61 41h2v2h-2z" fill="#80dbff"/><path d="m25 12c0-.25-.21-6-10-6v-2c11.86 0 12 7.92 12 8z" fill="#80dbff"/><path d="m11 4h2v2h-2z" fill="#80dbff"/><path d="m28 9s0-4.49-2.55-6.17l1.1-1.66c3.45 2.27 3.45 7.6 3.45 7.83z" fill="#80dbff"/><g fill="none" stroke="#000" stroke-linejoin="round" stroke-width="2"><rect height="32.3" rx="2.02" transform="matrix(.70710678 -.70710678 .70710678 .70710678 -9.44 31.24)" width="4.04" x="30.97" y="10.86"/><path d="m21.57 18.45-9.27 19.26 9.99 9.99 19.26-9.27"/><path d="m12.3 37.71-9.99 9.99 9.99 10 9.99-10"/><path d="m3 48.42-1.41 1.43a2 2 0 0 0 0 2.85l5.71 5.71a2 2 0 0 0 2.85 0l1.43-1.41"/><path d="m14 56 7 7 3-3-7-7"/><path d="m44 28a25.22 25.22 0 0 1 15-5"/><path d="m61 23h2"/><path d="m47 34s2-4 8-4 7 3 7 9"/><path d="m62 41v2"/><path d="m61 1h-26a2 2 0 0 0 -2 2v14a2 2 0 0 0 2 2h7v5l5-5h14a2 2 0 0 0 2-2v-14a2 2 0 0 0 -2-2z"/><path d="m26 12s0-7-11-7"/><path d="m13 5h-2"/><path d="m29 9s0-5-3-7"/><path d="m10 40 10 10"/><path d="m44 14 8-8"/><path d="m44 7h2"/><path d="m50 13h2"/></g></svg>