<svg viewBox="0 0 64 64" xmlns="http://www.w3.org/2000/svg"><path d="m46.32 42 .68 2-35.61 12-4.9-14h30.51a2 2 0 0 0 2-2v-1h3a2.94 2.94 0 0 0 3 3z" fill="#e9edf5"/><path d="m18 45h19a2 2 0 0 0 2-2v-1h3a3 3 0 0 0 2.18 2.91l2.82-.91-.68-2h-1.32a2.94 2.94 0 0 1 -3-3h-3v1a2 2 0 0 1 -2 2h-30.51l1 3z" fill="#cdd2e1"/><path d="m63 24v18h-6v-3-13-2z" fill="#80dbff"/><path d="m60 24v18h-3v-3-13-2z" fill="#19cffc"/><path d="m39 33v-14h4l10 7h4v13h-4a2.94 2.94 0 0 1 -3 3h-5a2.94 2.94 0 0 1 -3-3h-6a3 3 0 0 1 -3-3 3 3 0 0 1 .77-2l.11-.12a3 3 0 0 1 2.12-.88z" fill="#ffcdbe"/><path d="m42 30v-8-3h-3v3 8 3h3z" fill="#ffbeaa"/><path d="m36 36a3 3 0 0 1 .77-2l.11-.12a3 3 0 0 1 2.12-.88h-3a3 3 0 0 0 -2.12.88l-.11.12a3 3 0 0 0 -.77 2 3 3 0 0 0 3 3h3a3 3 0 0 1 -3-3z" fill="#ffbeaa"/><path d="m45 39h-3a2.94 2.94 0 0 0 3 3h3a2.94 2.94 0 0 1 -3-3z" fill="#ffbeaa"/><path d="m39 39v1a2 2 0 0 1 -2 2h-15v-8h11.77a3 3 0 0 0 -.77 2 3 3 0 0 0 3 3z" fill="#e9edf5"/><path d="m39 30v3h-3a3 3 0 0 0 -2.12.88l-.11.12h-11.77v-4z" fill="#d6475c"/><path d="m39 22v8h-17v-8h2z" fill="#e9edf5"/><path d="m39 19v3h-15v-6h13a2 2 0 0 1 2 2z" fill="#9196aa"/><path d="m23 13a2 2 0 0 0 -.79-1.59 5.1 5.1 0 0 1 4.79-3.41c4 0 4 1 4 3a2 2 0 0 1 -2 2 3.7 3.7 0 0 1 2 3h-8z" fill="#d6475c"/><path d="m24.21 11.41a5.17 5.17 0 0 1 4.2-3.35c-.41-.06-.87-.06-1.41-.06a5.1 5.1 0 0 0 -4.79 3.41 2 2 0 0 1 .79 1.59v3h2v-3a2 2 0 0 0 -.79-1.59z" fill="#f25a6b"/><path d="m24 16v6h-2-4-2v-6h1 6z" fill="#d6475c"/><path d="m22.21 11.41a2 2 0 0 1 .79 1.59v3h-6v-3a2 2 0 0 1 2-2h2a2 2 0 0 1 1.21.41z" fill="#ff808c"/><path d="m19.79 11.41a2 2 0 0 1 1.21-.41h-2a2 2 0 0 0 -2 2v3h2v-3a2 2 0 0 1 .79-1.59z" fill="#f25a6b"/><path d="m22 34v8h-4v-8-4-8h4v8z" fill="#f25a6b"/><path d="m18 34v8h-15a2 2 0 0 1 -2-2v-6z" fill="#e9edf5"/><path d="m1 30h17v4h-17z" fill="#d6475c"/><path d="m1 30h3v4h-3z" fill="#ba4259"/><path d="m18 22v8h-17v-8h15z" fill="#e9edf5"/><path d="m17 13v3h-8a3.7 3.7 0 0 1 2-3 2 2 0 0 1 -2-2c0-2 0-3 4-3a5.1 5.1 0 0 1 4.79 3.41 2 2 0 0 0 -.79 1.59z" fill="#d6475c"/><path d="m13 13a2 2 0 0 1 -2-2c0-1.73 0-2.71 2.59-2.94a5.35 5.35 0 0 0 -.59-.06c-4 0-4 1-4 3a2 2 0 0 0 2 2 3.7 3.7 0 0 0 -2 3h2a3.7 3.7 0 0 1 2-3z" fill="#f25a6b"/><path d="m16 16v6h-15v-4a2 2 0 0 1 2-2z" fill="#9196aa"/><path d="m4 40v-6h-3v6a2 2 0 0 0 2 2h3a2 2 0 0 1 -2-2z" fill="#cdd2e1"/><path d="m1 22h3v8h-3z" fill="#cdd2e1"/><path d="m6 16h-3a2 2 0 0 0 -2 2v4h3v-4a2 2 0 0 1 2-2z" fill="#636978"/><path d="m43 9h2v6h-2z" fill="#19cffc"/><path d="m50 19h6v2h-6z" fill="#19cffc"/><path d="m46 14h7v2h-7z" fill="#19cffc" transform="matrix(.70710678 -.70710678 .70710678 .70710678 3.89 39.4)"/><g fill="none" stroke="#000" stroke-linejoin="round" stroke-width="2"><path d="m57 39h-4a2.94 2.94 0 0 1 -3 3h-5a2.94 2.94 0 0 1 -3-3h-6a3 3 0 0 1 -3-3 3 3 0 0 1 3-3h6l4-4"/><path d="m57 24h6v18h-6z"/><path d="m57 26h-4l-10-7h-4"/><path d="m39 33v-15a2 2 0 0 0 -2-2h-34a2 2 0 0 0 -2 2v22a2 2 0 0 0 2 2h34a2 2 0 0 0 2-2v-1"/><path d="m46.32 42 .68 1.95-35.61 12.05-4.9-14"/><path d="m1 22h38"/><path d="m16 16h8v6h-8z"/><path d="m18 22v20"/><path d="m22 22v20"/><path d="m1 30h17"/><path d="m22 30h17"/><path d="m1 34h17"/><path d="m22 34h12"/><path d="m17 16v-3a2 2 0 0 1 2-2h2a2 2 0 0 1 2 2v3"/><path d="m22 12s1-4 5-4 4 1 4 3a2 2 0 0 1 -2 2 3.7 3.7 0 0 1 2 3"/><path d="m18 12s-1-4-5-4-4 1-4 3a2 2 0 0 0 2 2 3.7 3.7 0 0 0 -2 3"/><path d="m23 13s4 0 4-2"/><path d="m17 13s-4 0-4-2"/><path d="m44 15v-6"/><path d="m56 20h-6"/><path d="m47.03 17.47 4.94-4.94"/></g></svg>