<svg viewBox="0 0 64 64" xmlns="http://www.w3.org/2000/svg"><path d="m51 5v2a2 2 0 0 1 -4 0v-4a2 2 0 0 1 2-2 2 2 0 0 1 1.41.59 2 2 0 0 1 .59 1.41z" fill="#9196aa"/><path d="m17 5v2a2 2 0 0 1 -4 0v-4a2 2 0 0 1 2-2 2 2 0 0 1 1.41.59 2 2 0 0 1 .59 1.41z" fill="#9196aa"/><path d="m63 9v4h-62v-4a4 4 0 0 1 4-4h8v2a2 2 0 0 0 4 0v-2h30v2a2 2 0 0 0 4 0v-2h8a4 4 0 0 1 4 4z" fill="#ff808c"/><path d="m63 13v46a4 4 0 0 1 -4 4h-54a4 4 0 0 1 -4-4v-46z" fill="#f2f6fc"/><path d="m52 9a2 2 0 0 0 2-2v-2h-3v2a2 2 0 0 1 -.5 1.31 2 2 0 0 0 1.5.69z" fill="#d6475c"/><path d="m8 5h-3a4 4 0 0 0 -4 4v4h3v-4a4 4 0 0 1 4-4z" fill="#d6475c"/><path d="m18 9a2 2 0 0 0 2-2v-2h-3v2a2 2 0 0 1 -.5 1.31 2 2 0 0 0 1.5.69z" fill="#d6475c"/><path d="m4 59v-46h-3v46a4 4 0 0 0 4 4h3a4 4 0 0 1 -4-4z" fill="#cdd2e1"/><path d="m48 51h-6v7l-10-10a3.82 3.82 0 0 0 3.87-3.53 4 4 0 0 0 5.27.67z" fill="#f25a6b"/><path d="m32 48-10 10v-7h-6l6.77-5.92.08.06a4 4 0 0 0 5.28-.67 3.82 3.82 0 0 0 3.87 3.53z" fill="#f25a6b"/><path d="m35.87 46.47a4 4 0 0 0 5.27.67l4.52 3.86h2.34l-6.85-5.86a4 4 0 0 1 -5.27-.67 3.82 3.82 0 0 1 -3.88 3.53l1.64 1.64a3.77 3.77 0 0 0 2.23-3.17z" fill="#d6475c"/><path d="m22.77 47.08.08.06a4 4 0 0 0 5.28-.67 3.77 3.77 0 0 0 2.23 3.17l1.64-1.64a3.82 3.82 0 0 1 -3.87-3.53 4 4 0 0 1 -5.28.67l-.08-.06-6.77 5.92h2.29z" fill="#d6475c"/><circle cx="32" cy="33" fill="#f2f6fc" r="9"/><path d="m46.81 28.36a3.7 3.7 0 0 1 -2.29 4.64 3.7 3.7 0 0 1 2.29 4.64 3.91 3.91 0 0 1 -4.68 2.45 3.66 3.66 0 0 1 -1 5 4 4 0 0 1 -5.27-.67 3.89 3.89 0 0 1 -7.74 0 4 4 0 0 1 -5.28.67l-.08-.06a3.66 3.66 0 0 1 -.9-5 3.91 3.91 0 0 1 -4.68-2.45 3.7 3.7 0 0 1 2.3-4.58 3.7 3.7 0 0 1 -2.29-4.64 3.91 3.91 0 0 1 4.68-2.45 3.66 3.66 0 0 1 1-5.05 4 4 0 0 1 5.28.67 3.89 3.89 0 0 1 7.74 0 4 4 0 0 1 5.28-.67 3.66 3.66 0 0 1 1 5.05 3.91 3.91 0 0 1 4.64 2.45zm-5.81 4.64a9 9 0 1 0 -9 9 9 9 0 0 0 9-9z" fill="#ffe77d"/><g fill="none" stroke="#000" stroke-linejoin="round" stroke-width="2"><path d="m13 5h-8a4 4 0 0 0 -4 4v50a4 4 0 0 0 4 4h54a4 4 0 0 0 4-4v-50a4 4 0 0 0 -4-4h-8"/><rect height="8" rx="2" width="4" x="13" y="1"/><rect height="8" rx="2" width="4" x="47" y="1"/><path d="m18 13h45"/><path d="m14 13h2"/><path d="m1 13h11"/><path d="m17 5h30"/><circle cx="32" cy="33" r="9"/><path d="m44.52 33a3.7 3.7 0 0 0 2.29-4.64 3.91 3.91 0 0 0 -4.68-2.45 3.66 3.66 0 0 0 -1-5.05 4 4 0 0 0 -5.28.67 3.89 3.89 0 0 0 -7.74 0 4 4 0 0 0 -5.28-.67 3.66 3.66 0 0 0 -1 5.05 3.91 3.91 0 0 0 -4.68 2.45 3.7 3.7 0 0 0 2.33 4.64 3.7 3.7 0 0 0 -2.29 4.64 3.91 3.91 0 0 0 4.68 2.45 3.66 3.66 0 0 0 1 5 4 4 0 0 0 5.28-.67 3.89 3.89 0 0 0 7.74 0 4 4 0 0 0 5.28.67 3.66 3.66 0 0 0 1-5 3.91 3.91 0 0 0 4.68-2.45 3.7 3.7 0 0 0 -2.33-4.64z"/><path d="m41.14 45.14 6.86 5.86h-6v7l-10-10"/><path d="m22.77 45.08-6.77 5.92h6v7l10-10"/><path d="m28 37 8-8"/><path d="m28 30h2"/><path d="m34 36h2"/></g></svg>