<svg viewBox="0 0 48 48" xmlns="http://www.w3.org/2000/svg"><g fill="none" stroke="#FFF" stroke-linecap="round" stroke-linejoin="round" stroke-width="2"><circle cx="17" cy="41" r="3"/><circle cx="40" cy="41" r="3"/><path d="m44 38h-28a5.41 5.41 0 0 1 0-6"/><path d="m16 32h28l3-17-8.25-.44-7.75-.41-1.89-.1-8.11-.44-7.35-.39"/><path d="m3 6h5a1 1 0 0 1 1 1v2a1 1 0 0 1 -1 1h-5a2 2 0 0 1 -2-2 2 2 0 0 1 2-2z"/><path d="m16 32-2.78-22.25a2 2 0 0 0 -2-1.75h-2.22"/><path d="m30 19v8"/><path d="m37 19-1 8"/><path d="m23 19 1 8"/><path d="m29.11 14.05-8.11-.44v-9.61h10v5 5"/><path d="m31 9a4.94 4.94 0 0 1 3-1 5 5 0 0 1 4.75 6.56"/></g></svg>
