<svg xmlns="http://www.w3.org/2000/svg" viewBox="0 0 64 64"><defs><style>.a{fill:#e9edf5}.b{fill:#cdd2e1}.c{fill:#f25a6b}.d{fill:#ff808c}.e{fill:#f2f6fc}.f{fill:#dce1eb}.g{fill:#d6475c}.h{fill:#ffe77d}.i{fill:#c9bf48}.j{fill:#f2d1a5}.k{fill:none;stroke:#000;stroke-linejoin:round;stroke-width:2px}</style></defs><path class="a" d="M9 52v-8h44a2 2 0 0 0 2-2V20h6a2 2 0 0 1 2 2v30a2 2 0 0 1-2 2H11a2 2 0 0 1-2-2z"/><path class="b" d="M12 52v-8H9v8a2 2 0 0 0 2 2h3a2 2 0 0 1-2-2zm46-10V20h-3v22a2 2 0 0 1-2 2h3a2 2 0 0 0 2-2z"/><path class="c" d="M14.49 34.51L9 40v-5H5l4-4 2.44-2.44A3 3 0 0 0 13.8 30a3 3 0 0 0 .13 4.09 2.93 2.93 0 0 0 .56.42zM37 35h-4v5l-5.49-5.49a2.93 2.93 0 0 0 .56-.44A3 3 0 0 0 28.2 30a3 3 0 0 0 2.36-1.42L33 31z"/><path class="d" d="M1 23h12.22a2.75 2.75 0 0 0 .58 1 3 3 0 0 0-2.8 3 2.93 2.93 0 0 0 .44 1.56L9 31H1zm24 11.78V44h-8v-9.22a2.75 2.75 0 0 0 1-.58 3 3 0 0 0 6 0 2.75 2.75 0 0 0 1 .58zM28.78 23H55v8H33l-2.44-2.44A2.93 2.93 0 0 0 31 27a3 3 0 0 0-2.8-3 2.75 2.75 0 0 0 .58-1zM25 10v9.22a2.75 2.75 0 0 0-1 .58 3 3 0 0 0-6 0 2.75 2.75 0 0 0-1-.58V10z"/><circle class="e" cx="21" cy="27" r="4"/><path class="f" d="M20 27a4 4 0 0 1 2.5-3.7A3.94 3.94 0 0 0 21 23a4 4 0 0 0 0 8 3.94 3.94 0 0 0 1.5-.3A4 4 0 0 1 20 27z"/><path class="g" d="M11.44 28.56A2.93 2.93 0 0 1 11 27a3 3 0 0 1 2.8-3 2.75 2.75 0 0 1-.58-1A3 3 0 0 1 17 19.22a2.75 2.75 0 0 1 1 .58 3 3 0 0 1 6 0 2.75 2.75 0 0 1 1-.58A3 3 0 0 1 28.78 23a2.75 2.75 0 0 1-.58 1 3 3 0 0 1 2.8 3 2.93 2.93 0 0 1-.44 1.56A3 3 0 0 1 28.2 30a3 3 0 0 1-.13 4.09 3 3 0 0 1-3.07.71 2.75 2.75 0 0 1-1-.58 3 3 0 0 1-6 0 2.75 2.75 0 0 1-1 .58 3 3 0 0 1-3.07-.71A3 3 0 0 1 13.8 30a3 3 0 0 1-2.36-1.44zM25 27a4 4 0 1 0-4 4 4 4 0 0 0 4-4z"/><path class="h" d="M55 31v11a2 2 0 0 1-2 2H25v-9.22a2.93 2.93 0 0 0 2.51-.27L33 40v-5h4l-4-4zm-38 3.78V44H3a2 2 0 0 1-2-2V31h8l-4 4h4v5l5.49-5.49a2.93 2.93 0 0 0 2.51.27zM17 10v9.22A3 3 0 0 0 13.22 23H1V12a2 2 0 0 1 2-2zm38 13H28.78A3 3 0 0 0 25 19.22V10h28a2 2 0 0 1 2 2v11z"/><path class="c" d="M1 23H4V31H1z"/><path class="i" d="M1 31v11a2 2 0 0 0 2 2h1V31zm3-21H3a2 2 0 0 0-2 2v11h3z"/><path class="d" d="M38 44H59V50H38z"/><path class="g" d="M38 44H42V50H38z"/><path class="j" d="M33 49H35V51H33z"/><path class="j" d="M12 49H31V51H12z"/><path class="k" d="M9 44v8a2 2 0 0 0 2 2h50a2 2 0 0 0 2-2V22a2 2 0 0 0-2-2h-6"/><path class="k" d="M55 31v11a2 2 0 0 1-2 2H3a2 2 0 0 1-2-2V12a2 2 0 0 1 2-2h50a2 2 0 0 1 2 2v19z"/><path class="k" d="M17 20L17 19.22 17 10"/><path class="k" d="M25 20L25 19.22 25 10"/><path class="k" d="M17 44L17 34.78 17 34"/><path class="k" d="M25 44L25 34.78 25 34"/><path class="k" d="M28 23L28.78 23 55 23"/><path class="k" d="M33 31L55 31"/><path class="k" d="M1 23L13.22 23 14 23"/><path class="k" d="M1 31L9 31"/><path class="k" d="M30.56 28.56A2.93 2.93 0 0 0 31 27a3 3 0 0 0-2.8-3 2.75 2.75 0 0 0 .58-1A3 3 0 0 0 25 19.22a2.75 2.75 0 0 0-1 .58 3 3 0 0 0-6 0 2.75 2.75 0 0 0-1-.58A3 3 0 0 0 13.22 23a2.75 2.75 0 0 0 .58 1 3 3 0 0 0-2.8 3 2.93 2.93 0 0 0 .44 1.56A3 3 0 0 0 13.8 30a3 3 0 0 0 .13 4.09 3 3 0 0 0 3.07.71 2.75 2.75 0 0 0 1-.58 3 3 0 0 0 6 0 2.75 2.75 0 0 0 1 .58 3 3 0 0 0 3.07-.71A3 3 0 0 0 28.2 30a3 3 0 0 0 2.36-1.44z"/><circle class="k" cx="21" cy="27" r="4"/><path class="k" d="M27 34L27.51 34.51 33 40 33 35 37 35 33 31 30.56 28.56 30 28"/><path class="k" d="M15 34L14.49 34.51 9 40 9 35 5 35 9 31 11.44 28.56 12 28"/><path class="k" d="M57 44L59 44 59 50 38 50 38 46"/><path class="k" d="M35 50L33 50"/><path class="k" d="M31 50L12 50"/></svg>