<svg viewBox="0 0 48 48" xmlns="http://www.w3.org/2000/svg"><g fill="none" stroke="#FFF" stroke-linecap="round" stroke-linejoin="round" stroke-width="2"><path d="m10 15h2a2 2 0 0 1 2 2 2 2 0 0 1 -2 2h-2a0 0 0 0 1 0 0v-4a0 0 0 0 1 0 0z"/><path d="m10 19h2a2 2 0 0 1 2 2 2 2 0 0 1 -2 2h-2a0 0 0 0 1 0 0v-4a0 0 0 0 1 0 0z"/><path d="m22 15v6a2 2 0 0 1 -2 2 2 2 0 0 1 -2-2v-6"/><path d="m30 15-2 4-2-4"/><path d="m28 19v4"/><rect height="16" rx="2" width="32" x="4" y="11"/><path d="m41.03 32.71-3.54 3.54 6.51 6.51-4.24 4.24-6.51-6.51-3.54 3.54-1.41-12.73z"/><path d="m20 1v4"/><path d="m12 3.14 2 3.47"/><path d="m28 3.14-2 3.47"/></g></svg>
