<svg viewBox="0 0 48 48" xmlns="http://www.w3.org/2000/svg"><g fill="none" stroke="#FFF" stroke-linecap="round" stroke-linejoin="round" stroke-width="2"><path d="m1 5h46v10h-46z"/><circle cx="8" cy="10" r="1"/><path d="m8 9v-8"/><circle cx="14" cy="10" r="1"/><path d="m14 9v-8"/><circle cx="40" cy="10" r="1"/><path d="m40 9v-8"/><circle cx="34" cy="10" r="1"/><path d="m34 9v-8"/><path d="m1 15h46v32h-46z"/><path d="m25.72 19.76a2.33 2.33 0 0 0 2.42.65 2.32 2.32 0 0 1 3 1.71 2.3 2.3 0 0 0 1.77 1.77 2.32 2.32 0 0 1 1.71 3 2.33 2.33 0 0 0 .65 2.42 2.33 2.33 0 0 1 0 3.44 2.33 2.33 0 0 0 -.65 2.42 2.32 2.32 0 0 1 -1.71 3 2.3 2.3 0 0 0 -1.77 1.77 2.32 2.32 0 0 1 -3 1.71 2.33 2.33 0 0 0 -2.42.65 2.33 2.33 0 0 1 -3.44 0 2.33 2.33 0 0 0 -2.42-.65 2.32 2.32 0 0 1 -3-1.71 2.3 2.3 0 0 0 -1.77-1.77 2.32 2.32 0 0 1 -1.71-3 2.33 2.33 0 0 0 -.65-2.42 2.33 2.33 0 0 1 0-3.44 2.33 2.33 0 0 0 .65-2.42 2.32 2.32 0 0 1 1.71-3 2.3 2.3 0 0 0 1.77-1.77 2.32 2.32 0 0 1 3-1.71 2.33 2.33 0 0 0 2.42-.65 2.33 2.33 0 0 1 3.44 0z"/><path d="m19 36 10-10"/><circle cx="21" cy="27" r="2"/><circle cx="27" cy="35" r="2"/></g></svg>
