<svg viewBox="0 0 48 48" xmlns="http://www.w3.org/2000/svg"><g fill="none" stroke="#FFF" stroke-linecap="round" stroke-linejoin="round" stroke-width="2"><circle cx="12" cy="35" r="4"/><circle cx="39" cy="35" r="4"/><path d="m8 35h-5a2 2 0 0 1 -2-2v-2h30"/><path d="m1 9h30v22h-30z"/><path d="m35 35h-4-15"/><path d="m43 35h2a2 2 0 0 0 2-2v-8.67a4 4 0 0 0 -.8-2.4l-4.3-5.73a3 3 0 0 0 -2.4-1.2h-8.5"/><path d="m35 15v6a2 2 0 0 0 2 2h9.77"/><path d="m36 27h1"/><path d="m47 31h-16"/><path d="m8 14h16v12h-16z"/><path d="m19 19-3-1-3 1v-5h6z"/></g></svg>
