<svg id="Shopping" xmlns="http://www.w3.org/2000/svg" viewBox="0 0 48 48"><style>.st0{fill:none;stroke:#FFF;stroke-width:2;stroke-linecap:round;stroke-linejoin:round}</style><path id="gift-alt_1_" class="st0" d="M4 21H3v6h1m0-6V4h17M4 21h6.8M4 27v17h17M4 27h6.8M21 44v1h6v-1m-6 0V27.6M27 44h17V27M27 44V27.6m17-.6h1v-6h-1m0 6h-6.8m6.8-6V4H27m17 17h-6.8M27 4V3h-6v1m6 0v16.4M21 4v16.4m.5 6.7c-2-1.3-2-4.9 0-6.2m0 6.2c1.4 1.1 3.6 1.2 5 0m-5 0l-.5.5m.5-6.7c1.4-1.1 3.6-1.2 5 0m-5 0l-.5-.5m5.5.5c2 1.4 2 4.8 0 6.2m0-6.2l.5-.5m-.5 6.7l.5.5M10.8 21c-1.1 1.8-1.1 4.2 0 6m0-6c2-3.8 7.4-3.8 10.2-.6M10.8 27c2 3.8 7.4 3.8 10.2.6m6-7.2c2.8-3.2 8.2-3.2 10.2.6m0 0c1.1 1.8 1.1 4.2 0 6m0 0c-2 3.8-7.4 3.8-10.2.6"/></svg>
