<svg enable-background="new 0 0 64 64" viewBox="0 0 64 64" xmlns="http://www.w3.org/2000/svg"><path d="m19.9 45.5c0 4.5-3.6 8.1-8.1 8.1-8.2 0-11.1-10.8-4.2-15 3.8-2.3 8.8-1.1 11.1 2.7.8 1.2 1.2 2.7 1.2 4.2z" fill="#374f68"/><path d="m18.7 49.7c-7.1 4.4-15.5-3.9-11.1-11.1 7.1-4.4 15.5 3.9 11.1 11.1z" fill="#425b72"/><path d="m14.5 45.5c0 1.5-1.2 2.7-2.7 2.7s-2.7-1.2-2.7-2.7c0-1 .6-2 1.6-2.4 1.4-.6 3 0 3.6 1.4.1.2.2.6.2 1z" fill="#dad7e5"/><path d="m14.2 46.6c-1.4.6-2.9 0-3.6-1.3-.3-.7-.3-1.5 0-2.2 1.4-.6 2.9 0 3.6 1.3.4.6.4 1.5 0 2.2z" fill="#edebf2"/><path d="m63 45.5c0 4.5-3.6 8.1-8.1 8.1-8.2 0-11.1-10.8-4.2-15 3.8-2.3 8.8-1.1 11.1 2.7.8 1.2 1.2 2.7 1.2 4.2z" fill="#374f68"/><path d="m61.8 49.7c-7.1 4.4-15.5-3.9-11.1-11.1 7.1-4.4 15.5 3.9 11.1 11.1z" fill="#425b72"/><path d="m57.6 45.5c0 1.5-1.2 2.7-2.7 2.7s-2.7-1.2-2.7-2.7c0-1 .6-2 1.6-2.4 1.4-.6 3 0 3.6 1.4.1.2.2.6.2 1z" fill="#dad7e5"/><path d="m57.3 46.6c-1.4.6-2.9 0-3.6-1.3-.3-.7-.3-1.5 0-2.2 1.4-.6 2.9 0 3.6 1.3.4.6.4 1.5 0 2.2z" fill="#edebf2"/><path d="m63 40.8c-1.6.9-.2.7-7 .7-4.1 0-3.4 4-7.5 4h-3c-.1-9.7 12.7-13.1 17.5-4.7z" fill="#ffba55"/><path d="m61.4 38.7c-2.8 0-4.8-.4-6.6 2.1-.9 1.2-2.2 1.9-3.7 1.9-1.4 0-2.6-1.1-2.6-2.5 0-.3 0-.6.1-.9.2-.6.5-1.2.9-1.8 3.8-2.3 8.7-1.9 11.9 1.2z" fill="#fc6"/><path d="m29.8 28.5c-1.1 1.1-1.5.8-10 .8v-6.1l8.2.5c1.5.1 2.7 1.4 2.6 2.9 0 .8-.3 1.4-.8 1.9z" fill="#7c7d7d"/><path d="m30.6 26.6h-4.9c-1.8 0-3.2-1.4-3.2-3.2l5.5.3c1.5.2 2.7 1.4 2.6 2.9z" fill="#919191"/><path d="m50.8 11.8v5.4c0 .7-.6 1.3-1.3 1.3h-6.7c-.7 0-1.3-.6-1.3-1.3 0-2.5 1.3-4.7 3.5-5.9 1.4-.7 3-1 4.6-.8.6 0 1.2.6 1.2 1.3z" fill="#ffba55"/><path d="m50.8 11.8v4h-5.4c-2 0-1.4-2.9-.5-4.6 1.4-.7 3-1 4.6-.8.7 0 1.3.6 1.3 1.4z" fill="#fc6"/><path d="m53.8 36.1c-4.8.5-8.4 4.5-8.4 9.4h-20.2c-.8-2.4-3.1-4-5.6-4h-17.1c-.8 0-1.4-.6-1.4-1.4v-.1l.5-4.6c.4-3.4 3.3-6 6.7-6h19.6l2.7 10.8h10.8c4.2-5.8 4.9-13.4 2-20l-.7-1.5h5.4c3 5.7 5.5 9.8 5.7 17.4z" fill="#fc6"/><path d="m53.8 36.1c-3.8.4-6.9 3-8 6.7h-17.9c-.8-2.4-3.1-4-5.6-4h-17.1c-.7 0-1.3-.6-1.3-1.4v-.1c.5-4.4.4-5.5 1.3-7.1 2-1.1 1.3-.8 22.8-.8l2.7 10.8h10.8c4.2-5.8 4.9-13.4 2-20l-.7-1.5h5.4c2.8 5.5 5.5 10.1 5.6 17.4z" fill="#ffde76"/><path d="m56.2 14.5c0 1.7-1.4 3.1-3.2 3.1-.8-.1-1.5-.2-2.2-.5v-5.4l1.3-.3c1.7-.5 3.4.5 3.9 2.2.2.3.2.6.2.9z" fill="#9fdbf3"/><path d="m55.9 15.9c-1.3.7-2.2.3-3.7-.1 0-4.9 0-4.4.1-4.4 1.7-.4 3.4.6 3.8 2.3.2.8.1 1.6-.2 2.2z" fill="#b2e5fb"/><path d="m14.5 37.4h-5.4c-.7-.1-1.3-.7-1.2-1.5.1-.7.6-1.2 1.2-1.2h5.4c.7.1 1.3.7 1.2 1.5-.1.6-.6 1.1-1.2 1.2z" fill="#ffba55"/><path d="m1 13.1h18.9v16.2h-18.9z" fill="#df8761"/><path d="m19.9 13.1v13.5h-12.2c-2.2 0-4-1.8-4-4v-9.5z" fill="#f29b75"/><path d="m13.1 13.1v6.7l-2.7-1.4-2.7 1.4v-6.7z" fill="#fc6"/><path d="m13.1 13.1v4c-2.2 0-4-1.8-4-4 0 0 0 0 0-.1h4z" fill="#ffde76"/><g fill="none" stroke="#000" stroke-linecap="round" stroke-linejoin="round" stroke-width="2"><path d="m42.8 18.5.7 1.5c2.9 6.6 2.2 14.2-2 20h-10.9l-2.6-10.7h-19.6c-3.5 0-6.4 2.6-6.7 6l-.5 4.6c-.1.7.5 1.4 1.2 1.5h17.3c2.5 0 4.8 1.6 5.6 4h20.1"/><path d="m18.8 41.4c.7 1.2 1.1 2.6 1.1 4 .2 4.5-3.3 8.2-7.8 8.4s-8.2-3.3-8.4-7.8c0-.2 0-.4 0-.6 0-1.4.4-2.8 1.1-4"/><circle cx="11.8" cy="45.5" r="2.7"/><circle cx="54.9" cy="45.5" r="2.7"/><path d="m63 40.7-1.2.7h-5.8c-1.5 0-2.9.7-3.8 2-.8 1.3-2.3 2-3.8 2h-3c.1-5.2 4.3-9.4 9.5-9.3 3.4 0 6.4 1.8 8.1 4.6z"/><path d="m19.9 29.3h8c1.5 0 2.8-1.2 2.9-2.7s-1.2-2.8-2.7-2.9l-8.2-.5"/><path d="m48.2 10.4h1.3c.7 0 1.3.6 1.3 1.3v5.4c0 .7-.6 1.3-1.3 1.4h-6.7c-.7 0-1.3-.6-1.3-1.4-.1-3.7 2.9-6.7 6.7-6.7z"/><path d="m41.4 15.8h-5.4"/><path d="m48.2 18.5 2.5 5c2 3.9 3.1 8.2 3.2 12.5"/><path d="m52.3 17.5-1.5-.4v-5.4l1.5-.4c1.7-.4 3.4.6 3.8 2.3.1.3.1.5.1.8 0 1.7-1.4 3.1-3.2 3.1-.1.1-.4.1-.7 0z"/><path d="m9.1 36h5.4"/><path d="m61.9 41.4c2.2 3.9.9 8.8-2.9 11s-8.8.9-11-2.9c-.7-1.3-1.1-2.7-1.1-4.1"/><path d="m1 13.1h18.9v16.2h-18.9z"/><path d="m13.1 19.8-2.7-1.4-2.7 1.4v-6.7h5.4z"/></g></svg>