<svg viewBox="0 0 48 48" xmlns="http://www.w3.org/2000/svg"><g fill="none" stroke="#FFF" stroke-linecap="round" stroke-linejoin="round" stroke-width="2"><path d="m47 17v26a4 4 0 0 1 -4 4h-38a4 4 0 0 1 -4-4v-26"/><path d="m2.17 45.83 17.59-17.59a6 6 0 0 1 6.74-1.24"/><path d="m45.83 45.83-9.2-9.2"/><path d="m7 11-6 6"/><path d="m47 17-6-6"/><path d="m16 32-15-15"/><path d="m47 17-7.72 7.72"/><path d="m7 23v-22h34v22"/><path d="m11 13v-8l4 8v-8"/><path d="m21 13h-3v-8h3"/><path d="m18 9h3"/><path d="m30 5-.75 8-2.25-3-2.25 3-.75-8"/><path d="m37 5h-2a2 2 0 0 0 -2 2 2 2 0 0 0 2 2 2 2 0 0 1 2 2 2 2 0 0 1 -2 2h-2"/><path d="m34.64 22a1.58 1.58 0 0 0 1.62.43 1.54 1.54 0 0 1 2 1.14 1.55 1.55 0 0 0 1.18 1.18 1.54 1.54 0 0 1 1.14 2 1.58 1.58 0 0 0 .42 1.61 1.53 1.53 0 0 1 0 2.28 1.58 1.58 0 0 0 -.43 1.62 1.54 1.54 0 0 1 -1.14 2 1.55 1.55 0 0 0 -1.18 1.18 1.54 1.54 0 0 1 -2 1.14 1.58 1.58 0 0 0 -1.62.43 1.53 1.53 0 0 1 -2.28 0 1.58 1.58 0 0 0 -1.62-.43 1.54 1.54 0 0 1 -2-1.14 1.55 1.55 0 0 0 -1.18-1.18 1.54 1.54 0 0 1 -1.14-2 1.58 1.58 0 0 0 -.41-1.62 1.53 1.53 0 0 1 0-2.28 1.58 1.58 0 0 0 .43-1.62 1.54 1.54 0 0 1 1.14-2 1.55 1.55 0 0 0 1.18-1.18 1.54 1.54 0 0 1 2-1.14 1.58 1.58 0 0 0 1.61-.42 1.53 1.53 0 0 1 2.28 0z"/><path d="m31 32 5-5"/><circle cx="31.5" cy="26.5" r=".5"/><circle cx="35.5" cy="32.5" r=".5"/><path d="m11 17h26"/><path d="m11 21h13"/></g></svg>
