<svg viewBox="0 0 64 64" xmlns="http://www.w3.org/2000/svg"><path d="m51 5v1h-9a2.94 2.94 0 0 1 -3 3h-14a2.94 2.94 0 0 1 -3-3h-9v-1a4 4 0 0 1 4-4h30a4 4 0 0 1 4 4z" fill="#f2f6fc"/><path d="m51 6v53a4 4 0 0 1 -4 4h-30a4 4 0 0 1 -4-4v-53h9a2.94 2.94 0 0 0 3 3h14a2.94 2.94 0 0 0 3-3z" fill="#80dbff"/><path d="m20 1h-3a4 4 0 0 0 -4 4v1h3v-1a4 4 0 0 1 4-4z" fill="#cdd2e1"/><path d="m16 59v-53h-3v53a4 4 0 0 0 4 4h3a4 4 0 0 1 -4-4z" fill="#19cffc"/><path d="m27.5 4h9v2h-9z" fill="#ffe77d"/><path d="m47.5 44.14h2v12.73h-2z" fill="#966857" transform="matrix(.70710678 -.70710678 .70710678 .70710678 -21.5 49.09)"/><path d="m53.17 53.76h5.66v8.49h-5.66z" fill="#9196aa" transform="matrix(.70710678 -.70710678 .70710678 .70710678 -24.61 56.59)"/><path d="m49.17 52.59h5.66v2.83h-5.66z" fill="#f2f6fc" transform="matrix(.70710678 -.70710678 .70710678 .70710678 -22.95 52.59)"/><circle cx="34" cy="36" fill="#ff808c" r="13"/><path d="m24 36a13 13 0 0 1 11.5-12.91 14.74 14.74 0 0 0 -1.5-.09 13 13 0 0 0 0 26 14.74 14.74 0 0 0 1.5-.09 13 13 0 0 1 -11.5-12.91z" fill="#d6475c"/><path d="m34 19a17 17 0 1 1 -17 17 17 17 0 0 1 17-17zm13 17a13 13 0 1 0 -13 13 13 13 0 0 0 13-13z" fill="#f2f6fc"/><path d="m16 58h2v2h-2z" fill="#1ea1e3"/><path d="m20 58h6v2h-6z" fill="#1ea1e3"/><path d="m16 54h7v2h-7z" fill="#1ea1e3"/><path d="m44 36h-2a8 8 0 0 0 -8-8v-2a10 10 0 0 1 10 10z" fill="#ffde91"/><path d="m42 38h2v2h-2z" fill="#ffde91"/><g fill="none" stroke="#000" stroke-linejoin="round" stroke-width="2"><path d="m13 36v23a4 4 0 0 0 4 4h30a4 4 0 0 0 4-4v-2"/><path d="m13 30v-25a4 4 0 0 1 4-4h30a4 4 0 0 1 4 4v21"/><path d="m13 34v-2"/><path d="m13 6h9a2.94 2.94 0 0 0 3 3h14a2.94 2.94 0 0 0 3-3h9"/><path d="m27.5 5h9"/><circle cx="34" cy="36" r="17"/><circle cx="34" cy="36" r="13"/><path d="m43 36a9 9 0 0 0 -9-9"/><path d="m52.17 51.34h5.66v11.31h-5.66z" transform="matrix(.70710678 -.70710678 .70710678 .70710678 -24.2 55.59)"/><path d="m51 53-5-5"/><path d="m55 53-4 4"/><path d="m42 39h2"/><path d="m16 59h2"/><path d="m20 59h6"/><path d="m16 55h7"/><path d="m30 40 8-8"/><path d="m30 33h2"/><path d="m36 39h2"/></g></svg>