<svg viewBox="0 0 64 64" xmlns="http://www.w3.org/2000/svg"><path d="m63 50.87-23.32-.55-7.68 8.68-8-9-17.61-.48-5.39-39.09c4.74-.43-7.63.71 59.3-5.43 2.89 49.12 2.47 41.87 2.7 45.87z" fill="#db5669"/><path d="m62.84 48.11-49.17-1.17a5.4 5.4 0 0 1 -5.21-4.66l-4.46-32.11 56.3-5.17z" fill="#f26674"/><path d="m14 18c0-.87.35-1.21 1-1.21s1 .34 1 1.21v.51h1.7v-.38c0-2-1-3.09-2.84-3.09s-2.86 1.14-2.86 3.11c0 3.5 3.76 4 3.76 6.49 0 .88-.38 1.2-1 1.2s-1-.32-1-1.2v-.87h-1.76v.75c0 2 1 3.09 2.88 3.09s2.87-1.13 2.87-3.09c-.03-3.52-3.75-3.97-3.75-6.52z"/><path d="m30.77 25.71h-3.32v-3.59h2.64v-1.75h-2.64v-3.42h3.32v-1.75h-5.25v12.26h5.25z"/><path d="m37.55 24.52v-1.63h-1.82v1.75c0 .88-.38 1.2-1 1.2s-1-.32-1-1.2v-6.64c0-.87.39-1.21 1-1.21s1 .34 1 1.21v1.32h1.82v-1.17c0-2-1-3.09-2.87-3.09s-2.87 1.12-2.87 3.09v6.37c0 2 1 3.09 2.87 3.09s2.87-1.13 2.87-3.09z"/><path d="m38.73 15.2h1.93v12.26h-1.93z"/><path d="m51.12 25.71v-10.51h-1.93v12.26h5.09v-1.75z"/><path d="m12.04 42.29h1.93v-5.06h2.49v-1.75h-2.49v-3.7h3.17v-1.75h-5.1z"/><path d="m37.63 35.62-1.48-5.59h-2.01l2.43 8.2v4.06h1.93v-4.06l2.44-8.2h-1.84z"/><path d="m21.66 15.2h-2.84v12.26h1.93v-4.6h.91c1.93 0 2.88-1.07 2.88-3v-1.6c0-1.99-.95-3.06-2.88-3.06zm.95 4.8c0 .88-.33 1.16-.95 1.16h-.91v-4.16h.91c.62 0 .95.28.95 1.15z"/><path d="m43.51 15.2-2 12.26h1.77l.33-2.22h2.39l.33 2.22h1.94l-2-12.26zm.39 8.38.93-6.2.92 6.2z"/><path d="m20.84 29.89c-1.84 0-2.93 1.11-2.93 3.11v6.38c0 2 1 3.08 2.93 3.08s2.92-1.12 2.92-3.08v-6.38c0-2-1.03-3.11-2.92-3.11zm1 9.58c0 .88-.39 1.21-1 1.21s-1-.33-1-1.21v-6.62c0-.88.39-1.21 1-1.21s1 .33 1 1.21z"/><path d="m30.79 38.91c0-1.28-.32-2.21-1.28-2.61a2.44 2.44 0 0 0 1.26-2.49v-1c0-1.89-.86-2.82-2.85-2.82h-2.92v12.3h1.93v-5h.66c.88 0 1.26.42 1.26 1.56v1.93a3.61 3.61 0 0 0 .18 1.5h2a3.64 3.64 0 0 1 -.21-1.49zm-1.94-4.66c0 1-.44 1.3-1.16 1.3h-.75v-3.77h.93c.68 0 1 .39 1 1.26z"/><path d="m44.21 29.89c-1.89 0-2.92 1.12-2.92 3.08v6.38c0 2 1 3.08 2.92 3.08s2.93-1.12 2.93-3.08v-6.35c0-2-1.03-3.11-2.93-3.11zm1 9.58c0 .88-.38 1.21-1 1.21s-1-.33-1-1.21v-6.62c0-.88.39-1.21 1-1.21s1 .33 1 1.21z"/><path d="m52.22 39.49c0 .88-.39 1.19-1 1.19s-1-.31-1-1.19v-9.49h-1.92v9.34c0 2 1 3.08 2.87 3.08s2.83-1.09 2.83-3.05v-9.37h-1.78z"/><path d="m63 50.87-23.32-.55-7.68 8.64-8.02-9.02-17.59-.42-5.39-39.08 59.3-5.4z" fill="none" stroke="#000" stroke-linecap="round" stroke-linejoin="round" stroke-width="2"/></svg>