<svg viewBox="0 0 48 48" xmlns="http://www.w3.org/2000/svg"><g fill="none" stroke="#FFF" stroke-linecap="round" stroke-linejoin="round" stroke-width="2"><circle cx="32" cy="16" r="15"/><circle cx="32" cy="16" r="11"/><path d="m22.84 27.87-4.46 4.46"/><path d="m20.02 25.02-4.48 4.48"/><path d="m1.1 34.4h15a4 4 0 0 1 4 4 4 4 0 0 1 -4 4h-15a2 2 0 0 1 -2-2v-4a2 2 0 0 1 2-2z" transform="matrix(-.70710678 .70710678 -.70710678 -.70710678 43.54 58.77)"/><path d="m15.83 37.83-5.66-5.66"/><path d="m27 21 10-10"/><circle cx="29" cy="12" r="2"/><circle cx="35" cy="20" r="2"/></g></svg>
