<svg enable-background="new 0 0 48 48" viewBox="0 0 48 48" xmlns="http://www.w3.org/2000/svg"><path d="m12 8h31c2.2 0 4 1.8 4 4v6c-3.3 0-6 2.7-6 6s2.7 6 6 6v6c0 2.2-1.8 4-4 4h-31m0-32h-7c-2.2 0-4 1.8-4 4v6c3.3 0 6 2.7 6 6s-2.7 6-6 6v6c0 2.2 1.8 4 4 4h7m0-32v2m0 1v2m0 1v2m0 1v2m0 1v2m0 1v2m0 1v2m0 1v2m0 1v2m0 1v2m0 1v2m8-9 14-14m-8.5 1.5c0 2.2-1.8 4-4 4s-4-1.8-4-4 1.8-4 4-4 4 1.8 4 4zm11 11c0 2.2-1.8 4-4 4s-4-1.8-4-4 1.8-4 4-4 4 1.8 4 4z" fill="none" stroke="#FFF" stroke-linejoin="round" stroke-width="2"/></svg>
