<svg viewBox="0 0 64 64" xmlns="http://www.w3.org/2000/svg"><path d="m33 15v6a2 2 0 0 1 -2 2 2 2 0 0 1 -2-2v-7a6 6 0 0 0 -6-6 6 6 0 0 0 -6 6v7a2 2 0 0 1 -2 2 2 2 0 0 1 -2-2v-7a10 10 0 0 1 20 0z" fill="#e9edf5"/><path d="m1 55h44v5h-44z" fill="#e9edf5"/><path d="m1 55h3v5h-3z" fill="#cdd2e1"/><path d="m42 15 3 40h-44l3-40h9v6a2 2 0 0 0 2 2 2 2 0 0 0 2-2v-6h12v6a2 2 0 0 0 2 2 2 2 0 0 0 2-2v-6z" fill="#ffe77d"/><path d="m34 23a2 2 0 0 0 2-2v-6h-3v6a2 2 0 0 1 -.5 1.3 2 2 0 0 0 1.5.7z" fill="#c9bf48"/><path d="m18 23a2 2 0 0 0 2-2v-6h-3v6a2 2 0 0 1 -.5 1.3 2 2 0 0 0 1.5.7z" fill="#c9bf48"/><path d="m4 15-3 40h3l3-40z" fill="#c9bf48"/><path d="m63 23v18a4 4 0 0 1 -4 4h-19l-6 6v-6h-5a4 4 0 0 1 -4-4v-18a4 4 0 0 1 4-4h30a4 4 0 0 1 4 4z" fill="#ff808c"/><path d="m37 45h-3v6l3-3z" fill="#f25a6b"/><path d="m28 41v-18a4 4 0 0 1 4-4h-3a4 4 0 0 0 -4 4v18a4 4 0 0 0 4 4h3a4 4 0 0 1 -4-4z" fill="#f25a6b"/><path d="m5 50h2v2h-2z" fill="#b2876d"/><path d="m9 50h8v2h-8z" fill="#b2876d"/><path d="m5 46h8v2h-8z" fill="#b2876d"/><path d="m56 23h-24a3 3 0 0 0 -3 3v14h2v-14a1 1 0 0 1 1-1h1v11h2v-11h2v13h2v-13h2v15h2v-15h2v13h2v-13h2v15h2v-15h2v11h2v-11h1a1 1 0 0 1 1 1v14h2v-14a3 3 0 0 0 -3-3z" fill="#f2f6fc"/><path d="m33 38h2v2h-2z" fill="#f2f6fc"/><path d="m53 38h2v2h-2z" fill="#f2f6fc"/><g fill="none" stroke="#000" stroke-linejoin="round" stroke-width="2"><path d="m1 55v5h44v-5"/><path d="m33 19v-5a10 10 0 0 0 -10-10 10 10 0 0 0 -10 10v7a2 2 0 0 0 2 2 2 2 0 0 0 2-2v-7a6 6 0 0 1 6-6 6 6 0 0 1 6 6v5"/><path d="m17 15h12"/><path d="m44.25 45 .75 10h-44l3-40h9"/><path d="m33 15h9l.3 4"/><path d="m59 19h-30a4 4 0 0 0 -4 4v18a4 4 0 0 0 4 4h5v6l6-6h19a4 4 0 0 0 4-4v-18a4 4 0 0 0 -4-4z"/><path d="m30 40v-14a2 2 0 0 1 2-2h24a2 2 0 0 1 2 2v14"/><path d="m34 24v12"/><path d="m38 24v14"/><path d="m42 24v16"/><path d="m46 24v14"/><path d="m50 24v16"/><path d="m54 24v12"/><path d="m33 39h2"/><path d="m53 39h2"/><path d="m5 51h2"/><path d="m9 51h8"/><path d="m5 47h8"/></g></svg>