<svg viewBox="0 0 64 64" xmlns="http://www.w3.org/2000/svg"><path d="m45 21v8h-4a2 2 0 0 0 -2 2v4h-14a2 2 0 0 0 -2-2h-4v-12a2 2 0 0 1 2-2h22a2 2 0 0 1 2 2z" fill="#cdebfc"/><path d="m24 19h-3a2 2 0 0 0 -2 2v12h3v-12a2 2 0 0 1 2-2z" fill="#80dbff"/><path d="m26 33h-3a2 2 0 0 1 2 2h3a2 2 0 0 0 -2-2z" fill="#80dbff"/><path d="m63 31v14a2 2 0 0 1 -2 2h-7l-5 5v-5h-8a2 2 0 0 1 -2-2v-14a2 2 0 0 1 2-2h20a2 2 0 0 1 2 2z" fill="#ff808c"/><path d="m51 10h-23a2.94 2.94 0 0 1 -3-3v-3a2.94 2.94 0 0 0 -3-3h24a2.94 2.94 0 0 1 3 3v3c0 1 2 3 2 3z" fill="#cdd2e1"/><path d="m28 7v-3a2.94 2.94 0 0 0 -3-3h-3a2.94 2.94 0 0 1 3 3v3a2.94 2.94 0 0 0 3 3h3a2.94 2.94 0 0 1 -3-3z" fill="#bec3d2"/><path d="m49 52v7a4 4 0 0 1 -4 4h-26a4 4 0 0 1 -4-4v-8h8a2 2 0 0 0 2-2v-14h14v10a2 2 0 0 0 2 2h-1a1 1 0 0 0 -1 1v2a1 1 0 0 0 1 1h4a1 1 0 0 0 1-1v-2a1 1 0 0 0 -1-1h5zm-4 6v-2a1 1 0 0 0 -1-1h-4a1 1 0 0 0 -1 1v2a1 1 0 0 0 1 1h4a1 1 0 0 0 1-1zm-10 0v-2a1 1 0 0 0 -1-1h-4a1 1 0 0 0 -1 1v2a1 1 0 0 0 1 1h4a1 1 0 0 0 1-1zm0-8v-2a1 1 0 0 0 -1-1h-4a1 1 0 0 0 -1 1v2a1 1 0 0 0 1 1h4a1 1 0 0 0 1-1zm0-8v-2a1 1 0 0 0 -1-1h-4a1 1 0 0 0 -1 1v2a1 1 0 0 0 1 1h4a1 1 0 0 0 1-1zm-10 16v-2a1 1 0 0 0 -1-1h-4a1 1 0 0 0 -1 1v2a1 1 0 0 0 1 1h4a1 1 0 0 0 1-1z" fill="#afb4c8"/><path d="m18 59v-8h-3v8a4 4 0 0 0 4 4h3a4 4 0 0 1 -4-4z" fill="#7e8596"/><path d="m28 49v-14h-3v14a2 2 0 0 1 -2 2h3a2 2 0 0 0 2-2z" fill="#7e8596"/><path d="m49 19v10h-4v-8a2 2 0 0 0 -2-2h-22a2 2 0 0 0 -2 2v12h-4v-14a4 4 0 0 1 4-4h26a4 4 0 0 1 4 4z" fill="#afb4c8"/><rect fill="#f2f6fc" height="4" rx="1" width="6" x="39" y="55"/><path d="m45 48v2a1 1 0 0 1 -1 1h-4a1 1 0 0 1 -1-1v-2a1 1 0 0 1 1-1h4a1 1 0 0 1 1 1z" fill="#f2f6fc"/><path d="m45 10v5h-26v-11a3 3 0 0 1 6 0v3a2.94 2.94 0 0 0 3 3z" fill="#f2f6fc"/><path d="m23.5 1.34a3.11 3.11 0 0 0 -1.5-.34 2.94 2.94 0 0 0 -3 3v11h3v-11a3.21 3.21 0 0 1 1.5-2.66z" fill="#dce1eb"/><rect fill="#f2f6fc" height="4" rx="1" width="6" x="29" y="55"/><rect fill="#f2f6fc" height="4" rx="1" width="6" x="29" y="47"/><rect fill="#f2f6fc" height="4" rx="1" width="6" x="29" y="39"/><path d="m32 42v-2a1 1 0 0 1 1-1h-3a1 1 0 0 0 -1 1v2a1 1 0 0 0 1 1h3a1 1 0 0 1 -1-1z" fill="#dce1eb"/><path d="m32 50v-2a1 1 0 0 1 1-1h-3a1 1 0 0 0 -1 1v2a1 1 0 0 0 1 1h3a1 1 0 0 1 -1-1z" fill="#dce1eb"/><path d="m42 50v-2a1 1 0 0 1 1-1h-3a1 1 0 0 0 -1 1v2a1 1 0 0 0 1 1h3a1 1 0 0 1 -1-1z" fill="#dce1eb"/><path d="m42 58v-2a1 1 0 0 1 1-1h-3a1 1 0 0 0 -1 1v2a1 1 0 0 0 1 1h3a1 1 0 0 1 -1-1z" fill="#dce1eb"/><path d="m32 58v-2a1 1 0 0 1 1-1h-3a1 1 0 0 0 -1 1v2a1 1 0 0 0 1 1h3a1 1 0 0 1 -1-1z" fill="#dce1eb"/><rect fill="#f2f6fc" height="4" rx="1" width="6" x="19" y="55"/><path d="m25 35v14a2 2 0 0 1 -2 2h-20a2 2 0 0 1 -2-2v-14a2 2 0 0 1 2-2h7l5-5v5h8a2 2 0 0 1 2 2z" fill="#f2f6fc"/><path d="m42 45v-14a2 2 0 0 1 2-2h-3a2 2 0 0 0 -2 2v14a2 2 0 0 0 2 2h3a2 2 0 0 1 -2-2z" fill="#f25a6b"/><path d="m52 47h-3v5l3-3z" fill="#f25a6b"/><path d="m15 31v-3l-5 5h3z" fill="#dce1eb"/><path d="m4 49v-14a2 2 0 0 1 2-2h-3a2 2 0 0 0 -2 2v14a2 2 0 0 0 2 2h3a2 2 0 0 1 -2-2z" fill="#dce1eb"/><path d="m22 58v-2a1 1 0 0 1 1-1h-3a1 1 0 0 0 -1 1v2a1 1 0 0 0 1 1h3a1 1 0 0 1 -1-1z" fill="#dce1eb"/><path d="m33 26h-2a1 1 0 0 1 0-2h2a1 1 0 0 1 1 1h2a3 3 0 0 0 -3-3v-1h-2v1a3 3 0 0 0 0 6h2a1 1 0 0 1 0 2h-2a1 1 0 0 1 -1-1h-2a3 3 0 0 0 3 3v1h2v-1a3 3 0 0 0 0-6z" fill="#1cadb5"/><g fill="none" stroke="#000" stroke-linejoin="round" stroke-width="2"><path d="m49 29v-10a4 4 0 0 0 -4-4h-26a4 4 0 0 0 -4 4v9"/><path d="m49 52v7a4 4 0 0 1 -4 4h-26a4 4 0 0 1 -4-4v-8"/><path d="m25 35h14"/><path d="m45 29v-8a2 2 0 0 0 -2-2h-22a2 2 0 0 0 -2 2v12"/><rect height="4" rx="1" width="6" x="29" y="39"/><rect height="4" rx="1" width="6" x="29" y="47"/><path d="m45 48v2a1 1 0 0 1 -1 1h-4a1 1 0 0 1 -1-1v-2a1 1 0 0 1 1-1h4a1 1 0 0 1 1 1z"/><rect height="4" rx="1" width="6" x="19" y="55"/><rect height="4" rx="1" width="6" x="29" y="55"/><rect height="4" rx="1" width="6" x="39" y="55"/><path d="m19 15v-11a3 3 0 0 1 6 0v3a2.94 2.94 0 0 0 3 3h23s-2-2-2-3v-3a2.94 2.94 0 0 0 -3-3h-24"/><path d="m45 15v-5"/><path d="m29 29a2 2 0 0 0 2 2h2a2 2 0 0 0 2-2 2 2 0 0 0 -2-2h-2a2 2 0 0 1 -2-2 2 2 0 0 1 2-2h2a2 2 0 0 1 2 2"/><path d="m32 23v-2"/><path d="m32 33v-2"/><path d="m39 31v14a2 2 0 0 0 2 2h8v5l5-5h7a2 2 0 0 0 2-2v-14a2 2 0 0 0 -2-2h-20a2 2 0 0 0 -2 2z"/><path d="m25 49v-14a2 2 0 0 0 -2-2h-8v-5l-5 5h-7a2 2 0 0 0 -2 2v14a2 2 0 0 0 2 2h20a2 2 0 0 0 2-2z"/><path d="m9 46 8-8"/><path d="m9 39h2"/><path d="m15 45h2"/><path d="m50 38h2"/><path d="m55 38h2"/><path d="m45 38h2"/></g></svg>