<svg viewBox="0 0 64 64" xmlns="http://www.w3.org/2000/svg"><path d="m1 29.3h8.09v22.91h-8.09z" fill="#6fabe6"/><path d="m9.09 29.3c0 21.24-.14 20.22 0 20.22a5.39 5.39 0 0 1 -5.39-5.39v-14.83z" fill="#82bcf4"/><path d="m63 40.09a4.06 4.06 0 0 1 -2.2 3.6c-23.8 12.14-23.26 12.57-28.57 12.57-3.86 0-5.37-1.11-16.16-6-2-.92-3.37-.73-7-.73v-17.53c12.84-1.6 8.74-2.25 28.68 7.12a4 4 0 0 1 .67 6.88l18.69-9.55a4 4 0 0 1 5.89 3.64z" fill="#f6ccaf"/><path d="m62.76 38.74c-.72 2.09-.44 1.47-23.66 13.34a13.74 13.74 0 0 1 -6.87 1.49c-3.86 0-5.37-1.12-16.16-6a7.6 7.6 0 0 0 -2.94-.72 1.36 1.36 0 0 1 -1.35-1.35v-13.84c9.66-1.2 6.93-1.49 26 7.46a4.05 4.05 0 0 1 1.58 6c-.62.95-1.87 1.44.27.33 18.72-9.56 17.55-9 18-9.13a4 4 0 0 1 5.13 2.42z" fill="#ffdec7"/><path d="m57.61 7.74c0 31.58.23 28.38-.5 28.75l-18.69 9.51a4 4 0 0 0 -.65-6.92c-15.47-7.27-15.51-7.47-17.9-7.87v-23.47z" fill="#df8761"/><path d="m57.61 7.74v25.76c-1.2.21-1.15.29-15.08 7.42a6.69 6.69 0 0 0 -3.62-4.24c-19.65-9.24-13.5-6.36-14.73-6.92a2.72 2.72 0 0 1 -1.61-2.46v-19.56z" fill="#f29b75"/><path d="m44.13 7.74v8.09l-5.39-2.7-5.39 2.7v-8.09z" fill="#fc6"/><path d="m44.13 7.74v5.39l-5.39-2.69-2.7 1.34v-4.04z" fill="#ffde76"/><path d="m52.22 33.35h-5.39a1.35 1.35 0 0 1 0-2.7h5.39a1.35 1.35 0 0 1 0 2.7z" fill="#cc734c"/><path d="m33.74 47.65-10.64-5a1.35 1.35 0 0 1 1.16-2.43l10.64 5c2.28 1.07 3.09-1.49 4.45-.13-.62.95-1.87 1.44.27.33 1.04 2.06-3.23 3.51-5.88 2.23z" fill="#edb996"/><g fill="none" stroke="#000" stroke-linecap="round" stroke-linejoin="round" stroke-width="2"><path d="m1 29.3h8.09v22.91h-8.09z"/><path d="m63 40.09a4.06 4.06 0 0 1 -2.2 3.6l-21.7 11.09a13.42 13.42 0 0 1 -6.1 1.48h-.74a13.5 13.5 0 0 1 -5.56-1.2l-10.6-4.81a7.85 7.85 0 0 0 -3.34-.73h-3.67v-17.52l6.82-.85a13.43 13.43 0 0 1 7.39 1.17l14.47 6.8a4.05 4.05 0 0 1 1.93 5.39 3.93 3.93 0 0 1 -1.28 1.49l18.69-9.55a4.06 4.06 0 0 1 5.45 1.75 4.22 4.22 0 0 1 .44 1.89z"/><path d="m19.87 31.25v-23.51h37.74v28.55"/><path d="m44.13 15.83-5.39-2.7-5.39 2.7v-8.09h10.78z"/><path d="m46.83 32h5.39"/><path d="m23.68 41.43 10.64 5a4.07 4.07 0 0 0 1.72.39 3.91 3.91 0 0 0 2.38-.82"/></g></svg>