<svg xmlns="http://www.w3.org/2000/svg" viewBox="0 0 48 48"><defs><style>.a{fill:none;stroke:#FFF;stroke-linecap:round;stroke-linejoin:round;stroke-width:2px}</style></defs><path class="a" d="M2.168 34.883l7.07-7.071 8.486 8.485-7.071 7.071a4 4 0 0 1-5.657 0L2.168 40.54a4 4 0 0 1 0-5.657z"/><rect class="a" x="21.09" y="9.45" width="6" height="24" rx="3" transform="rotate(-45 24.095 21.45)"/><path class="a" d="M9.24 27.82a23 23 0 0 0 6.12-10.9m13.26 13.27a23.07 23.07 0 0 0-10.89 6.11"/><path class="a" d="M5.71 37.01L8.54 34.18"/><path class="a" d="M8.54 39.84L11.36 37.01"/><path class="a" d="M15.37 38.66l5.89 3a2.84 2.84 0 1 1-2.54 5.09l-7.59-3.8m27.3-41.32a1.94 1.94 0 0 0 2 .54 1.93 1.93 0 0 1 2.49 1.43 1.93 1.93 0 0 0 1.48 1.48 1.93 1.93 0 0 1 1.43 2.47 1.94 1.94 0 0 0 .54 2 1.94 1.94 0 0 1 0 2.86 1.94 1.94 0 0 0-.54 2 1.93 1.93 0 0 1-1.43 2.47 1.93 1.93 0 0 0-1.48 1.48 1.93 1.93 0 0 1-2.47 1.43 1.94 1.94 0 0 0-2 .54 1.94 1.94 0 0 1-2.86 0 1.94 1.94 0 0 0-2-.54 1.93 1.93 0 0 1-2.47-1.43 1.93 1.93 0 0 0-1.48-1.48 1.93 1.93 0 0 1-1.43-2.47 1.94 1.94 0 0 0-.54-2 1.94 1.94 0 0 1 0-2.86 1.94 1.94 0 0 0 .54-2 1.93 1.93 0 0 1 1.39-2.47 1.93 1.93 0 0 0 1.48-1.48 1.93 1.93 0 0 1 2.47-1.43 1.94 1.94 0 0 0 2-.54 1.94 1.94 0 0 1 2.88 0z"/><path class="a" d="M33 15L41 7"/><circle class="a" cx="34" cy="8" r="1"/><circle class="a" cx="40" cy="14" r="1"/></svg>
