<svg viewBox="0 0 48 48" xmlns="http://www.w3.org/2000/svg"><g fill="none" stroke="#FFF" stroke-linecap="round" stroke-linejoin="round" stroke-width="2"><path d="m32 14 .51 1.14a15.06 15.06 0 0 1 -1.51 14.86h-8l-2-8h-14.52a5 5 0 0 0 -5 4.45l-.39 3.44a1 1 0 0 0 1 1.11h12.75a4.39 4.39 0 0 1 4.16 3h14.94"/><path d="m14.19 31a5.88 5.88 0 0 1 .81 3 6 6 0 0 1 -12 0 5.88 5.88 0 0 1 .81-3"/><circle cx="9" cy="34" r="2"/><circle cx="41" cy="34" r="2"/><path d="m47 30.5-.87.5h-4.33a3.36 3.36 0 0 0 -2.8 1.5 3.36 3.36 0 0 1 -2.8 1.5h-2.26a7 7 0 0 1 13.06-3.5z"/><path d="m15 22h5.94a2.06 2.06 0 0 0 .13-4.12l-6.07-.38"/><path d="m36 8h1a1 1 0 0 1 1 1v4a1 1 0 0 1 -1 1h-5a1 1 0 0 1 -1-1 5 5 0 0 1 5-5z"/><path d="m31 12h-4"/><path d="m36 14 1.84 3.68a22.36 22.36 0 0 1 2.37 9.32"/><path d="m39.09 13.27-1.09-.27v-4l1.09-.27a2.34 2.34 0 0 1 2.91 2.27 2.34 2.34 0 0 1 -2.91 2.27z"/><path d="m7 27h4"/><path d="m46.18 31a6 6 0 1 1 -11.18 3"/><path d="m1 10h14v12h-14z"/><path d="m10 15-2-1-2 1v-5h4z"/></g></svg>
