<svg viewBox="0 0 64 64" xmlns="http://www.w3.org/2000/svg"><path d="m36 31h-4l2-2z" fill="#fc9942"/><path d="m47 35v2.4l-8.22 6.38-6.78 5.22-6.78-5.22-8.22-6.32v-2.46a4 4 0 0 1 4-4h15l2 2 2-2h3a4 4 0 0 1 4 4z" fill="#f2f6fc"/><path d="m28.22 43.78-8.22-6.32v-2.46a4 4 0 0 1 4-4h-3a4 4 0 0 0 -4 4v2.46l8.22 6.32 6.78 5.22 1.5-1.15z" fill="#dce1eb"/><path d="m26.4 31h-5.4a4 4 0 0 0 -4 4v2.46l-11-8.46 5.55-5.55a4.88 4.88 0 0 0 2.45.55c3.79 0 4-2.69 7.4-3a12.4 12.4 0 0 0 -.4 3c0 2.84 2.89 5.35 5.4 7z" fill="#707789"/><path d="m17 24a6 6 0 0 0 4.13-1.6 13.44 13.44 0 0 1 .27-1.4c-2.89.25-3.48 2.21-5.89 2.8a5.84 5.84 0 0 0 1.49.2z" fill="#636978"/><path d="m9 29 5-5a4.88 4.88 0 0 1 -2.45-.55l-5.55 5.55 11 8.46v-2.31z" fill="#636978"/><path d="m34 17h7s0 5-1 6l-6 6-6-6s0-6 6-6z" fill="#707789"/><path d="m57.92 28.92-10.92 8.48v-2.4a4 4 0 0 0 -4-4h-3l4-4c3.69 0 5.68-3 6.65-5.35z" fill="#707789"/><path d="m47 37.4 10.92-8.48.08.08v32a2 2 0 0 1 -.59 1.41l-18.63-18.63z" fill="#afb4c8"/><path d="m17 37.46 8.22 6.32-18.63 18.63a2 2 0 0 1 -.59-1.41v-32z" fill="#afb4c8"/><path d="m38.78 43.78 18.63 18.63a2 2 0 0 1 -1.41.59h-48a2 2 0 0 1 -1.41-.59l18.63-18.63 6.78 5.22z" fill="#707789"/><path d="m58.25 11.75 1.25 1.25-4 4-1-1-9-9-2-2 4-4 1.75 1.75z" fill="#f25a6b"/><path d="m62 1v7l-3.75 3.75-9-9 1.75-1.75z" fill="#ff808c"/><path d="m11.55 23.45a3 3 0 0 1 -1.55-2.45c3.88 0 5.88-2.82 12.39-3a20.8 20.8 0 0 0 -1 3c-3.41.29-3.61 3-7.4 3a4.88 4.88 0 0 1 -2.44-.55z" fill="#faa68e"/><path d="m21.4 21a20.8 20.8 0 0 1 1-3 32 32 0 0 1 2.6-5l5.45-2.74 11 .74 4-4 9 9-3 3a14.67 14.67 0 0 1 -.85 2.65c-.92 2.35-2.91 5.35-6.6 5.35l-4 4-2 2-2-2-2-2 6-6c1-1 1-6 1-6h-7c-6 0-6 6-6 6l6 6-2 2h-5.6c-2.51-1.65-5.4-4.16-5.4-7a12.4 12.4 0 0 1 .4-3z" fill="#ffdecf"/><path d="m24 24a12.4 12.4 0 0 1 .4-3 20.8 20.8 0 0 1 1-3 32 32 0 0 1 2.6-5l5.1-2.56-2.63-.18-5.47 2.74a32 32 0 0 0 -2.61 5 20.8 20.8 0 0 0 -1 3 12.4 12.4 0 0 0 -.4 3c0 2.84 2.89 5.35 5.4 7h3c-2.5-1.65-5.39-4.16-5.39-7z" fill="#ffcdbe"/><path d="m44.5 11 2.5-2.5-1.5-1.5-3.81 3.81z" fill="#ffcdbe"/><path d="m41.92 17h-.92s0 5-1 6l-6 6 1.5 1.5 7.5-7.5c.56-.56.81-2.38.91-3.86a2 2 0 0 0 -1.99-2.14z" fill="#ffcdbe"/><path d="m30.45 10.26-5.45 2.74a32 32 0 0 0 -2.61 5c-6.51.17-8.51 3-12.39 3a3.06 3.06 0 0 1 -2.25-.75 3.06 3.06 0 0 1 -.75-2.25c0-1.29 1.38-2.22 2.63-2.53l16.87-5.47z" fill="#ffbeaa"/><path d="m9 31.31-3-2.31v32a2 2 0 0 0 .59 1.41l2.41-2.41z" fill="#7e8596"/><path d="m6.59 62.41a2 2 0 0 0 1.41.59h1v-3z" fill="#7e8596"/><g fill="none" stroke="#000" stroke-linejoin="round" stroke-width="2"><path d="m12 23-.45.45-5.55 5.55v32a2 2 0 0 0 2 2h48a2 2 0 0 0 2-2v-32l-.08-.08-7.27-7.27"/><path d="m6 29 19.22 14.78 6.78 5.22 6.78-5.22 19.14-14.85"/><path d="m25.22 43.78-18.63 18.63"/><path d="m57.41 62.41-18.63-18.63"/><path d="m54.5 16-3 3s-1.5 8-7.5 8l-6 6-2-2-2-2-6-6s0-6 6-6h7s0 5-1 6l-6 6-2 2"/><path d="m26.4 31c-2.51-1.65-5.4-4.16-5.4-7a12.4 12.4 0 0 1 .4-3 20.8 20.8 0 0 1 1-3 32 32 0 0 1 2.6-5l5.46-2.74"/><path d="m45.5 7-4 4-15-1-16.87 5.47c-1.25.31-2.63 1.24-2.63 2.53a2.65 2.65 0 0 0 3 3c4 0 6-3 13-3"/><path d="m48.67.51h5.66v16.97h-5.66z" transform="matrix(.70710678 -.70710678 .70710678 .70710678 8.72 39.05)"/><path d="m58 12 4-4v-7h-11l-2 2"/><path d="m10 21s0 3 4 3 4-3 8-3"/><path d="m36 31h-15a4 4 0 0 0 -4 4v3"/><path d="m40 31h3a4 4 0 0 1 4 4v3"/><path d="m28 43 8-8"/><path d="m28 36h2"/><path d="m34 42h2"/></g></svg>