<svg viewBox="0 0 64 64" xmlns="http://www.w3.org/2000/svg"><path d="m43 3v14a2 2 0 0 1 -2 2h-8v4l-4-4h-8a2 2 0 0 1 -2-2v-14a2 2 0 0 1 2-2h20a2 2 0 0 1 2 2z" fill="#ff808c"/><path d="m22 17v-14a2 2 0 0 1 2-2h-3a2 2 0 0 0 -2 2v14a2 2 0 0 0 2 2h3a2 2 0 0 1 -2-2z" fill="#d6475c"/><path d="m32 19h-3l4 4v-3z" fill="#d6475c"/><path d="m33.26 60a1.94 1.94 0 0 0 1.58-2.29 2 2 0 0 0 -2.34-1.55 2 2 0 0 0 -1.58 2.29 2 2 0 0 0 2.34 1.55zm-5.26-1a4.79 4.79 0 0 1 1.21-4.21 5 5 0 0 1 2.75-1.53 5.11 5.11 0 0 1 3.13.4 4.87 4.87 0 0 1 -1.22 9.22 5 5 0 0 1 -5.87-3.88z" fill="#707789"/><path d="m34.84 57.73a1.94 1.94 0 0 1 -1.58 2.27 2 2 0 0 1 -2.34-1.55 2 2 0 0 1 1.58-2.29 2 2 0 0 1 2.34 1.57z" fill="#80dbff"/><path d="m29.18 54.82a4.79 4.79 0 0 0 -1.18 4.18l-2 .38a1.72 1.72 0 0 1 -.39 0 2 2 0 0 1 -1.9-1.38.57.57 0 0 1 0-.14 2 2 0 0 1 1.58-2.3l2.71-.56h.19l1-.19z" fill="#dce1eb"/><path d="m61 51a1.94 1.94 0 0 1 -1.61 2l-21.6 4.12a4.92 4.92 0 0 0 -2.73-3.48l20.62-3.92 2.93-.56a2.12 2.12 0 0 1 2.39 1.84z" fill="#dce1eb"/><path d="m25.85 53.45a2 2 0 0 0 2.15 1.55l-2.75.53a2 2 0 0 0 -1.58 2.3.57.57 0 0 0 0 .14h-2.67l-.79-5h5.55z" fill="#9196aa"/><path d="m20.21 53 .79 5h-4l-8-53h-4a2 2 0 0 1 -1.41-.59 2 2 0 0 1 -.59-1.41 2 2 0 0 1 2-2h7z" fill="#dce1eb"/><path d="m49.68 34.94 2.29 11.54-21.6 4.11-2.29-11.54z" fill="#f2f6fc"/><path d="m43.46 24.15 1.53 7.69-13.74 2.62-1.53-7.7z" fill="#ffde91"/><path d="m30.37 50.59 21.63-4.11-2.32-11.54-21.6 4.11zm-4.61 2.41-4.49-22.63a2 2 0 0 1 1.58-2.3l6.87-1.31 1.53 7.7 13.75-2.62-1.53-7.69 6.87-1.31a2 2 0 0 1 2.35 1.55l4.58 23.08a2 2 0 0 1 -1.57 2.3l-20.64 3.92a5.11 5.11 0 0 0 -3.13-.4 5 5 0 0 0 -2.75 1.53l-1 .19-.18-.01a2 2 0 0 1 -2.15-1.58z" fill="#b2876d"/><path d="m43.46 24.15 1.53 7.69-13.74 2.62-1.53-7.7z" fill="#dce1eb"/><path d="m32.86 28.51-.45-2.26-2.69.51 1.53 7.7 13.75-2.62-.69-3.49-9.1 1.74a2 2 0 0 1 -2.35-1.58z" fill="#cdd2e1"/><path d="m37.06 51.69a5.11 5.11 0 0 0 -3.13-.4 5 5 0 0 0 -2.75 1.53l-1 .19-.18-.01a2 2 0 0 1 -2.15-1.58l-.09-.42-4.49-22.63c0-.13 0-.25 0-.37l-.38.07a2 2 0 0 0 -1.58 2.3l4.45 22.63.09.45a2 2 0 0 0 2.15 1.55h.19l1-.19a5 5 0 0 1 2.75-1.53 5.11 5.11 0 0 1 3.13.4l20.62-3.92a2 2 0 0 0 1.6-1.93z" fill="#966857"/><path d="m31.65 39.84h15.99v2h-15.99z" fill="#bec3d2" transform="matrix(.98 -.19 .19 .98 -6.95 8.16)"/><path d="m46.28 42.38h2v2h-2z" fill="#bec3d2" transform="matrix(.98 -.19 .19 .98 -7.29 9.63)"/><path d="m32.45 44.06h11.99v2h-11.99z" fill="#bec3d2" transform="matrix(.98 -.19 .19 .98 -7.77 8.01)"/><ellipse cx="32.88" cy="58.1" fill="none" rx="5" ry="4.9" stroke="#000" stroke-linejoin="round" stroke-width="2"/><ellipse cx="32.88" cy="58.1" fill="#dce1eb" rx="2" ry="1.96"/><g fill="none" stroke="#000" stroke-linejoin="round" stroke-width="2"><path d="m35.06 53.69 23.56-4.48a2.12 2.12 0 0 1 2.38 1.79 1.94 1.94 0 0 1 -1.61 2l-21.6 4.12"/><path d="m29.17 54.81-3.92.75a2 2 0 0 0 -1.58 2.3 2 2 0 0 0 2.33 1.55l2-.41"/><path d="m55.68 49.77a2 2 0 0 0 1.58-2.3l-4.58-23.08a2 2 0 0 0 -2.35-1.55l-27.48 5.23a2 2 0 0 0 -1.58 2.3l4.58 23.08a2 2 0 0 0 2.34 1.55"/><path d="m43.46 24.15 1.53 7.69-13.74 2.62-1.53-7.7"/><path d="m30.37 50.59 21.6-4.11-2.29-11.54-21.6 4.11z"/><path d="m47.5 39.35-15.71 2.99"/><path d="m48.26 43.19-1.96.38"/><path d="m44.33 43.94-11.77 2.25"/><path d="m24 58h-3l-9-57h-7a2 2 0 0 0 -2 2 2 2 0 0 0 2 2h4l8 53h4"/><path d="m20 53h6"/><path d="m43 3v14a2 2 0 0 1 -2 2h-8v4l-4-4h-8a2 2 0 0 1 -2-2v-14a2 2 0 0 1 2-2h20a2 2 0 0 1 2 2z"/><path d="m27 14 8-8"/><path d="m27 7h2"/><path d="m33 13h2"/></g></svg>