<svg viewBox="0 0 48 48" xmlns="http://www.w3.org/2000/svg"><g fill="none" stroke="#FFF" stroke-linecap="round" stroke-linejoin="round" stroke-width="2"><path d="m35.77 47h-23.54a4 4 0 0 1 -4-4.22l1.77-31.78h28l1.77 31.78a4 4 0 0 1 -4 4.22z"/><path d="m18 15v-8a6 6 0 0 1 6-6 6 6 0 0 1 6 6v8"/><circle cx="18" cy="17" r="2"/><circle cx="30" cy="17" r="2"/><path d="m25.43 23.63a1.94 1.94 0 0 0 2 .54 1.93 1.93 0 0 1 2.47 1.43 1.93 1.93 0 0 0 1.48 1.48 1.93 1.93 0 0 1 1.43 2.47 1.94 1.94 0 0 0 .54 2 1.94 1.94 0 0 1 0 2.86 1.94 1.94 0 0 0 -.54 2 1.93 1.93 0 0 1 -1.43 2.47 1.93 1.93 0 0 0 -1.48 1.48 1.93 1.93 0 0 1 -2.47 1.43 1.94 1.94 0 0 0 -2 .54 1.94 1.94 0 0 1 -2.86 0 1.94 1.94 0 0 0 -2-.54 1.93 1.93 0 0 1 -2.47-1.43 1.93 1.93 0 0 0 -1.48-1.48 1.93 1.93 0 0 1 -1.43-2.47 1.94 1.94 0 0 0 -.54-2 1.94 1.94 0 0 1 0-2.86 1.94 1.94 0 0 0 .54-2 1.93 1.93 0 0 1 1.43-2.47 1.93 1.93 0 0 0 1.48-1.48 1.93 1.93 0 0 1 2.47-1.43 1.94 1.94 0 0 0 2-.54 1.94 1.94 0 0 1 2.86 0z"/><path d="m20 37 8-8"/><circle cx="21" cy="30" r="1"/><circle cx="27" cy="36" r="1"/></g></svg>
