<svg viewBox="0 0 48 48" xmlns="http://www.w3.org/2000/svg"><g fill="none" stroke="#FFF" stroke-linecap="round" stroke-linejoin="round" stroke-width="2"><path d="m12 10h24v46h-24z" transform="matrix(0 1 -1 0 57 9)"/><path d="m5 25h38v16h-38z"/><path d="m1 21 4 4"/><path d="m47 21-4 4"/><path d="m1 45 4-4"/><path d="m47 45-4-4"/><circle cx="24" cy="6" r="3"/><path d="m21.7 7.92-15.7 13.08"/><path d="m42 21-15.7-13.08"/><rect height="8" rx="2" width="4" x="10" y="29"/><path d="m18 37v-8h2a2 2 0 0 1 2 2 2 2 0 0 1 -2 2h-2"/><path d="m34 37v-8l4 8v-8"/><path d="m30 37h-4v-8h4"/><path d="m26 33h4"/></g></svg>
