<svg xmlns="http://www.w3.org/2000/svg" viewBox="0 0 64 64"><defs><style>.a{fill:#9196aa}.b{fill:#7e8596}.c{fill:#ffc247}.d{fill:#dce1eb}.e{fill:#ff808c}.f{fill:#d6475c}.g{fill:#19cffc}.h{fill:#bec3d2}.i{fill:none;stroke:#000;stroke-linejoin:round;stroke-width:2px}</style></defs><path class="a" d="M50.3 18.1a5.8 5.8 0 0 1 0 9.8 5.8 5.8 0 0 1-4.9 8.5 6.44 6.44 0 0 1-.1.87q-3.21-.62-6.44-.93a15 15 0 1 0-13.72 0q-3.23.31-6.44.93a6.44 6.44 0 0 1-.1-.87 5.8 5.8 0 0 1-4.9-8.5 5.8 5.8 0 0 1 0-9.8 5.8 5.8 0 0 1 4.9-8.5 5.8 5.8 0 0 1 8.5-4.9 5.8 5.8 0 0 1 9.8 0 5.8 5.8 0 0 1 8.5 4.9 5.8 5.8 0 0 1 4.9 8.5z"/><path class="b" d="M32 4a3.77 3.77 0 0 1 3.21 1.77l1 1.55 1.62-.85A4 4 0 0 1 39.61 6a3.81 3.81 0 0 1 3.79 3.69l.09 1.82 1.82.09a3.81 3.81 0 0 1 3.22 5.58l-.85 1.62 1.55 1a3.8 3.8 0 0 1 0 6.42l-1.55 1 .85 1.62a3.81 3.81 0 0 1-3.22 5.58l-1.85.09-.05 1.49H20.59l-.05-1.51-1.85-.09a3.81 3.81 0 0 1-3.22-5.58l.85-1.62-1.55-1a3.8 3.8 0 0 1 0-6.42l1.55-1-.85-1.62a3.81 3.81 0 0 1 3.22-5.58l1.82-.09.09-1.82A3.81 3.81 0 0 1 24.39 6a4 4 0 0 1 1.79.44l1.62.85 1-1.55A3.77 3.77 0 0 1 32 4m0-2a5.8 5.8 0 0 0-4.9 2.7 5.84 5.84 0 0 0-2.71-.7 5.73 5.73 0 0 0-2.89.78 5.83 5.83 0 0 0-2.9 4.82 5.8 5.8 0 0 0-4.9 8.5 5.8 5.8 0 0 0 0 9.8 5.8 5.8 0 0 0 4.9 8.5c0 .29.35 1.31.4 1.6h26c0-.29.39-1.31.4-1.6a5.8 5.8 0 0 0 4.9-8.5 5.8 5.8 0 0 0 0-9.8 5.8 5.8 0 0 0-4.9-8.5 5.83 5.83 0 0 0-2.9-4.79A5.73 5.73 0 0 0 39.61 4a5.84 5.84 0 0 0-2.71.67A5.8 5.8 0 0 0 32 2z"/><path class="c" transform="rotate(-45 6 16.995)" d="M5 14.17H7V19.83H5z"/><path class="c" transform="rotate(-45 6.004 29.003)" d="M3.17 28H8.83V30H3.17z"/><path class="c" d="M1 22H8V24H1z"/><path class="c" transform="rotate(-45 58 16.996)" d="M55.17 16H60.83V18H55.17z"/><path class="c" transform="rotate(-45 58.004 29.004)" d="M57 26.17H59V31.830000000000002H57z"/><path class="c" d="M56 22H63V24H56z"/><path class="d" d="M47 23a15 15 0 0 1-8.14 13.34 68.37 68.37 0 0 0-13.72 0A15 15 0 1 1 47 23z"/><path class="e" d="M11 54l8 3c-4.09 1.07-8.63 3-14 5l2-8-6-6q3.59-1.34 6.76-2.44C8.84 48.37 9.89 51.18 11 54zm52-6l-6 6 2 8c-5.37-2-9.91-3.93-14-5l8-3c1.11-2.82 2.16-5.63 3.24-8.44Q59.42 46.67 63 48z"/><path class="f" d="M19 51.49V57l-8-3a55.33 55.33 0 0 1 8-2.51zm26 0A55.72 55.72 0 0 1 53 54l-8 3z"/><path class="e" d="M45 51.49a57.36 57.36 0 0 0-26 0A55.33 55.33 0 0 0 11 54c-1.11-2.82-2.16-5.63-3.24-8.44C7.19 44 6.6 42.51 6 41a70.09 70.09 0 0 1 12.7-3.72q3.21-.62 6.44-.93a68.37 68.37 0 0 1 13.72 0q3.22.31 6.44.93A70.09 70.09 0 0 1 58 41c-.6 1.52-1.19 3-1.76 4.57-1.08 2.8-2.13 5.61-3.24 8.43a55.72 55.72 0 0 0-8-2.51z"/><path class="f" d="M10.76 45.56C10.19 44 9.6 42.51 9 41a70.09 70.09 0 0 1 12.7-3.72q3.21-.62 6.44-.93c1.78-.18 3.57-.27 5.36-.31a68.65 68.65 0 0 0-8.36.31q-3.23.31-6.44.93A70.09 70.09 0 0 0 6 41c.6 1.52 1.19 3 1.76 4.57C8.84 48.37 9.89 51.18 11 54c.87-.35 1.75-.66 2.63-1-.97-2.46-1.91-4.95-2.87-7.44z"/><path class="g" d="M48 51.49A57.05 57.05 0 0 0 33.5 50 57.19 57.19 0 0 1 45 51.49 55.72 55.72 0 0 1 53 54c.13-.32.25-.64.37-1A53.81 53.81 0 0 0 48 51.49z"/><path class="h" d="M32 9a14 14 0 0 1 6.66 26.32C36.45 35.1 34.21 35 32 35s-4.45.1-6.66.32A14 14 0 0 1 32 9m0-1a15 15 0 0 0-6.86 28.34 69.38 69.38 0 0 1 13.72 0A15 15 0 0 0 32 8z"/><path class="i" d="M45.3 37.27a6.44 6.44 0 0 0 .1-.87 5.8 5.8 0 0 0 4.9-8.5 5.8 5.8 0 0 0 0-9.8 5.8 5.8 0 0 0-4.9-8.5 5.8 5.8 0 0 0-8.5-4.9 5.8 5.8 0 0 0-9.8 0 5.8 5.8 0 0 0-8.5 4.9 5.8 5.8 0 0 0-4.9 8.5 5.8 5.8 0 0 0 0 9.8 5.8 5.8 0 0 0 4.9 8.5 6.44 6.44 0 0 0 .1.87m20.16-.93a15 15 0 1 0-13.72 0"/><path class="i" d="M53 54a57.06 57.06 0 0 0-42 0c-1.71-4.34-3.29-8.67-5-13a70.17 70.17 0 0 1 52 0c-1.71 4.33-3.29 8.66-5 13z"/><path class="i" d="M19 51v6c-4.09 1.07-8.63 3-14 5l2-8-6-6q3.59-1.34 6.76-2.44M45 51v6c4.09 1.07 8.63 3 14 5l-2-8 6-6q-3.59-1.34-6.76-2.44"/><path class="i" d="M11 54L19 57"/><path class="i" d="M45 57L53 54"/><path class="i" d="M8 19L4 15"/><path class="i" d="M4 31L8 27"/><path class="i" d="M8 23L1 23"/><path class="i" d="M56 19L60 15"/><path class="i" d="M60 31L56 27"/><path class="i" d="M56 23L63 23"/><path d="M26.25 24.77h-1.32v-1.43h1.62l.33-1.56h-1.43v-1.42h1.73l.46-2.24h1.73l-.47 2.24h1.35l.46-2.24h1.73L32 20.36h1.5v1.42h-1.8l-.32 1.56H33v1.43h-1.95L30.58 27h-1.73l.47-2.23H28L27.51 27h-1.73zm3.37-1.43l.38-1.56h-1.39l-.33 1.56zm4.55 2.14h1.61v-5.59a3.7 3.7 0 0 1-1.58.41v-1.6a2.38 2.38 0 0 0 1.63-.58h1.83v7.36h1.41V27h-4.9z"/></svg>