<svg viewBox="0 0 48 48" xmlns="http://www.w3.org/2000/svg"><g fill="none" stroke="#FFF" stroke-linecap="round" stroke-linejoin="round" stroke-width="2"><path d="m19 33 10-10"/><circle cx="21" cy="24" r="2"/><circle cx="27" cy="32" r="2"/><circle cx="24" cy="28" r="14"/><circle cx="24" cy="28" r="19"/><path d="m24 14v2"/><path d="m14.1 18.1 1.41 1.41"/><path d="m10 28h2"/><path d="m14.1 37.9 1.41-1.41"/><path d="m24 42v-2"/><path d="m33.9 37.9-1.41-1.41"/><path d="m38 28h-2"/><path d="m33.9 18.1-1.41 1.41"/><rect height="4" rx="1" width="14" x="17" y="1"/><path d="m21 9.24v-4.24h6v4.24"/><path d="m35.14 12.61 1.59-1.61a2 2 0 0 1 2.83 0l1.44 1.44a2 2 0 0 1 0 2.83l-1.58 1.59"/></g></svg>
