<svg viewBox="0 0 48 48" xmlns="http://www.w3.org/2000/svg"  fill="none" stroke="#FFF" stroke-linecap="round" stroke-linejoin="round" stroke-width="2"><path d="m31 17h2v1a2 2 0 0 1 -2 2h-1a2 2 0 0 1 -2-2v-4a2 2 0 0 1 2-2h1a2 2 0 0 1 2 2"/><path d="m15 24h-2a2 2 0 0 0 -2 2 2 2 0 0 0 2 2 2 2 0 0 1 2 2 2 2 0 0 1 -2 2h-2"/><path d="m24 32-3-8-3 8"/><path d="m27 24v8h3"/><path d="m37 32h-4v-8h4"/><path d="m33 28h4"/><path d="m23.25 30h-4.5"/><path d="m16 12h2a2 2 0 0 1 2 2 2 2 0 0 1 -2 2h-2a0 0 0 0 1 0 0v-4a0 0 0 0 1 0 0z"/><path d="m16 16h2a2 2 0 0 1 2 2 2 2 0 0 1 -2 2h-2a0 0 0 0 1 0 0v-4a0 0 0 0 1 0 0z"/><path d="m24 12v8"/><path d="m47 38-17.3-.41-5.7 6.41-5.95-6.69-13.05-.31-4-29 44-4z"/></svg>
