<svg xmlns="http://www.w3.org/2000/svg" viewBox="0 0 64 64"><defs><style>.a{fill:#f2bb88}.b{fill:#e3a76f}.c{fill:#ff808c}.d{fill:#d6475c}.e{fill:#e9edf5}.f{fill:#afb4c8}.g{fill:#707789}.h{fill:#cdd2e1}.i{fill:#f25a6b}.j{fill:#80dbff}.k{fill:#1ea1e3}.l{fill:#cdebfc}.m{fill:#4ab8f7}.n{fill:#f2f6fc}.o{fill:none;stroke:#000;stroke-linejoin:round;stroke-width:2px}</style></defs><path class="a" d="M63 35v16a2 2 0 0 1-2 2H37a2 2 0 0 1-2-2V35a2 2 0 0 1 2-2h24a2 2 0 0 1 2 2z"/><path class="b" d="M38 51V35a2 2 0 0 1 2-2h-3a2 2 0 0 0-2 2v16a2 2 0 0 0 2 2h3a2 2 0 0 1-2-2z"/><path class="c" d="M61 3v2H3V3a2 2 0 0 1 2-2h54a2 2 0 0 1 2 2z"/><path class="d" d="M8 1H5a2 2 0 0 0-2 2v2h3V3a2 2 0 0 1 2-2z"/><path class="c" d="M59 17l1 8a4 4 0 0 1-8 0v-8z"/><path class="d" d="M55 25v-8h-3v8a4 4 0 0 0 5.48 3.7A4 4 0 0 1 55 25z"/><path class="e" d="M55 53H59V63H55z"/><path class="f" d="M59 27.64V33H37a2 2 0 0 0-2 2v16a2 2 0 0 0 2 2h2v10h-9V35a2 2 0 0 0-2-2H12a2 2 0 0 0-2 2v28H9a4 4 0 0 1-4-4V27.64A4 4 0 0 0 12 25a4 4 0 0 0 8 0 4 4 0 0 0 8 0 4 4 0 0 0 8 0 4 4 0 0 0 8 0 4 4 0 0 0 8 0 4 4 0 0 0 7 2.64z"/><path class="g" d="M8 59V29a4 4 0 0 1-3-1.36V59a4 4 0 0 0 4 4h1v-.55A4 4 0 0 1 8 59z"/><path class="f" d="M59 5v12H5V5zm-4 6a2 2 0 0 0-2-2H11a2 2 0 0 0 0 4h42a2 2 0 0 0 2-2z"/><path class="f" d="M43 53H55V63H43z"/><path class="e" d="M54.41 9.59A2 2 0 0 1 55 11a2 2 0 0 1-2 2H11a2 2 0 0 1 0-4h42a2 2 0 0 1 1.41.59z"/><path class="h" d="M53 11H11a2 2 0 0 1-1.72-1A2 2 0 0 0 11 13h42a2 2 0 0 0 2-2 1.88 1.88 0 0 0-.28-1A2 2 0 0 1 53 11z"/><path class="i" d="M52 17v8a4 4 0 0 1-8 0v-8z"/><path class="c" d="M44 17v8a4 4 0 0 1-8 0v-8z"/><path class="e" d="M39 53H43V63H39z"/><path class="h" d="M39 53H41V63H39z"/><path class="h" d="M55 53H57V63H55z"/><path class="i" d="M36 17v8a4 4 0 0 1-8 0v-8z"/><path class="c" d="M28 17v8a4 4 0 0 1-8 0v-8z"/><path class="d" d="M23 25v-8h-3v8a4 4 0 0 0 4 4 3.94 3.94 0 0 0 1.5-.3A4 4 0 0 1 23 25z"/><path class="i" d="M20 17v8a4 4 0 0 1-8 0v-8z"/><path class="c" d="M12 17v8a4 4 0 0 1-8 0l1-8z"/><path class="d" d="M8 27.64A4 4 0 0 1 7 25l1-8H5l-1 8a4 4 0 0 0 5.52 3.7A4 4 0 0 1 8 27.64zM15 25v-8h-3v8a4 4 0 0 0 4 4 3.94 3.94 0 0 0 1.5-.3A4 4 0 0 1 15 25zm24 0v-8h-3v8a4 4 0 0 0 4 4 3.94 3.94 0 0 0 1.5-.3A4 4 0 0 1 39 25zm-8 0v-8h-3v8a4 4 0 0 0 4 4 3.94 3.94 0 0 0 1.5-.3A4 4 0 0 1 31 25zm16 0v-8h-3v8a4 4 0 0 0 4 4 3.94 3.94 0 0 0 1.5-.3A4 4 0 0 1 47 25z"/><path class="j" d="M30 35v28H10V35a2 2 0 0 1 2-2h16a1.7 1.7 0 0 1 .51.07 2 2 0 0 1 1.42 1.42A1.7 1.7 0 0 1 30 35z"/><path class="k" d="M15 33h-3a2 2 0 0 0-2 2v28h3V35a2 2 0 0 1 2-2z"/><path class="l" d="M16.71 36.71L10 43.42 10 40.58 15.29 35.29 16.71 36.71z"/><path class="m" d="M10 40.58L10 43.42 13 40.42 13 37.58 10 40.58z"/><path class="l" d="M29.93 34.49l-6.22 6.22-1.42-1.42 6.22-6.22a2 2 0 0 1 1.42 1.42z"/><path class="l" transform="rotate(-45 20.998 42.002)" d="M19.59 41H22.42V43H19.59z"/><path class="l" d="M30 40.58L30 43.42 17.71 55.71 16.29 54.29 30 40.58z"/><path class="l" d="M26.71 55.71L19.42 63 16.58 63 25.29 54.29 26.71 55.71z"/><path class="g" d="M5 5H8V17H5z"/><path class="n" d="M13 45H15V51H13z"/><path class="o" d="M5 5H59V17H5z"/><path class="o" d="M5 1h54a2 2 0 0 1 2 2v2H3V3a2 2 0 0 1 2-2zm3 28a4 4 0 0 1-4-4l1-8h7v8a4 4 0 0 1-4 4zm4-12h8v8a4 4 0 0 1-4 4 4 4 0 0 1-4-4v-8zm8 0h8v8a4 4 0 0 1-4 4 4 4 0 0 1-4-4v-8zm8 0h8v8a4 4 0 0 1-4 4 4 4 0 0 1-4-4v-8zm8 0h8v8a4 4 0 0 1-4 4 4 4 0 0 1-4-4v-8zm8 0h8v8a4 4 0 0 1-4 4 4 4 0 0 1-4-4v-8zm12 12a4 4 0 0 1-4-4v-8h7l1 8a4 4 0 0 1-4 4z"/><path class="o" d="M59 33L59 27.64"/><path class="o" d="M5 27.64V59a4 4 0 0 0 4 4h46"/><rect class="o" x="35" y="33" width="28" height="20" rx="2"/><path class="o" d="M39 53L39 63 43 63 43 53"/><path class="o" d="M55 53L55 63 59 63 59 53"/><path class="o" d="M10 63V35a2 2 0 0 1 2-2h16a2 2 0 0 1 2 2v28"/><path class="o" d="M51 39L60 39"/><path class="o" d="M51 43L60 43"/><path class="o" d="M51 47L60 47"/><rect class="o" x="9" y="9" width="46" height="4" rx="2"/><path class="o" d="M14 45L14 51"/><path class="o" d="M30 33L23 40"/><path class="o" d="M22 41L20 43"/><path class="o" d="M30 42L17 55"/><path class="o" d="M18 63L26 55"/><path class="o" d="M10 42L16 36"/><path class="o" d="M39 47L47 39"/><path class="o" d="M39 40L41 40"/><path class="o" d="M45 46L47 46"/></svg>