<svg viewBox="0 0 48 48" xmlns="http://www.w3.org/2000/svg"><g fill="none" stroke="#FFF" stroke-linecap="round" stroke-linejoin="round" stroke-width="2"><path d="m37 32h6a3 3 0 0 1 3 3 3 3 0 0 1 -3 3h-6"/><path d="m38 26h6a3 3 0 0 1 3 3 3 3 0 0 1 -3 3h-6"/><path d="m37 26h5a3 3 0 0 0 3-3 3 3 0 0 0 -3-3h-10a20.94 20.94 0 0 0 3-10.81 5 5 0 0 0 -4.13-4.88 2 2 0 0 0 -2.28 1.54l-.88 3.94a14.13 14.13 0 0 1 -2.8 5.82 14.11 14.11 0 0 1 -4.67 3.77l-3.24 1.62v21l.71.28a23.86 23.86 0 0 0 8.91 1.72h14.38a3 3 0 0 0 3-3 3 3 0 0 0 -3-3h-4"/><path d="m1 19h16v25h-16"/><path d="m9 19v25"/></g></svg>
