<svg enable-background="new 0 0 48 48" viewBox="0 0 48 48" xmlns="http://www.w3.org/2000/svg"><path d="m4 37v-29c0-.6.4-1 1-1h38c.6 0 1 .4 1 1v29m-40 0h-2c-.6 0-1 .4-1 1v2c0 .6.4 1 1 1h44c.6 0 1-.4 1-1v-2c0-.6-.4-1-1-1h-2m-40 0h16.6c.3 0 .5.1.7.3l.4.4c.2.2.4.3.7.3h3.2c.3 0 .5-.1.7-.3l.4-.4c.2-.2.4-.3.7-.3h16.6m-24-17h-2.8c-.6 0-1.1.6-1 1.2l1.6 8c.1.5.5.8 1 .8h10.4c.5 0 .9-.3 1-.8l1.6-8c.1-.6-.3-1.2-1-1.2h-2.8m-8 0 1.7-4.4c.2-.4.5-.6.9-.6h2.6c.4 0 .8.2.9.6l1.9 4.4m-8 0h8" fill="none" stroke="#FFF" stroke-linejoin="round" stroke-width="2"/></svg>
