<svg viewBox="0 0 48 48" xmlns="http://www.w3.org/2000/svg"><g fill="none" stroke="#FFF" stroke-linecap="round" stroke-linejoin="round" stroke-width="2"><path d="m37.36 22h7.64v25h-42v-25h7.64"/><path d="m29.76 22h-11.52"/><path d="m21 22h6v25h-6z"/><path d="m10.66 22h-.02-7.64-2v-8h12.02"/><path d="m20.13 15h-1.19a15.36 15.36 0 0 1 -1.94 0 9.41 9.41 0 0 1 -7.16-3.54 3.91 3.91 0 0 1 -.79-2.74c.23-2.49 1.14-7.72 4.95-7.72 4.6 0 9.2 5.07 9.9 9"/><path d="m14.48 14.56a21.28 21.28 0 0 0 -3.82 7.44 43.07 43.07 0 0 0 -1.66 8l4-3 3 5a30.77 30.77 0 0 1 5.05-15.3"/><path d="m34.98 14h12.02v8h-2-7.64-.02"/><path d="m24.1 10c.7-3.93 5.3-9 9.9-9 3.81 0 4.72 5.23 4.93 7.72a3.91 3.91 0 0 1 -.79 2.74 9.41 9.41 0 0 1 -7.14 3.54 15.36 15.36 0 0 1 -1.92 0h-1.21"/><path d="m27 16.7a30.77 30.77 0 0 1 5 15.3l3-5 4 3a43.07 43.07 0 0 0 -1.66-8 21.28 21.28 0 0 0 -3.82-7.44"/><circle cx="24" cy="14" r="4"/><path d="m13 7c2.38-3.18 6.66 1.85 8.31 4.05"/><path d="m26.69 11.05c1.65-2.2 5.93-7.23 8.31-4.05"/></g></svg>
