<svg viewBox="0 0 300 300" xmlns="http://www.w3.org/2000/svg"><path d="m227.37 274.69c-1.32 16-2.17 25.06-15.17 29.08s-51.67 3.72-81.07 0-58.79-18.56-64-23.2-.92-11.76 3.1-26.3 5.26-13.93-.62-22.9 5.26-24.45 2.17-23.83-15.48 20.12-32.8 26.61-40.23-3.4-34-31.87 31.25-43 43.63-54.76 25.37-41.16 45.79-47.47 61.65.52 73.34 2.29c20.29 3.08 38.06 1.55 52.6 6.5s24.44 14.31 27.85 30 14.36 16.36 16 21.93-.84 22.59 2.56 29.71 23.12 19.52 26.25 30.37-1.23 26.61-19.49 30-35-16.4-38.06-16.09-6.91 25.58-8.08 39.93z" fill="#f09442"/><path d="m153.21 97.7s-4.07-1.86-7 5.88 4.77 25.33 9.1 27.52 13.79-5.64 17.95-6.79 14.85 9.08 20.42 7.17 3-28.57-5.78-30.56-34.69-3.22-34.69-3.22z" fill="#fff"/><path d="m188.69 76.35s-1.86 29.3 0 36.77-15.47 11.19-15.47 11.19-17.77-11.55-19.72-21.56 6.41-48.06 6.41-48.06 24.14 4.64 28.78 21.66z" fill="#efbeb3"/><path d="m213.13 24.06s3.72 3.09 4.64 10.21-5 3-6.19 10.62-4.33 11.8-9.9 7.55-7.42-31.51 0-33.2 11.45 4.82 11.45 4.82z" fill="#974445"/><path d="m159.91 54.69s-3.51 16-5.45 30c9.82 4.42 23.36 4.31 33.66 3.28.24-6.51.57-11.63.57-11.63-4.64-17.01-28.78-21.65-28.78-21.65z" fill="#db9b93"/><path d="m177.24 19.41c-18.54 1.23-25.06 9.91-23.52 30.64s12.38 35.27 31.56 35.58 19.81-15.51 20.43-26.32 13.61-42.68-28.47-39.9z" fill="#efbeb3"/><path d="m212 40.61c-.07 2.4-1.89-.16-5.47-1.14-2.25-.61-5.18.31-5.56-1.15-.49-1.9 2.64-3 5.53-2.44s5.5 2.95 5.5 4.73z" fill="#974445"/><path d="m152.83 29.63c1.55 3.11-6.22 4.33-8.08 10.21s3.79 9.93 4 14.53-1.59 6.2-.19 13.31-1.23 12.3 6.85 10.43l1-14.27 3-7.19a12.58 12.58 0 0 0 6-11.76c-.62-8.15 2.44-11.93 1.86-17.74s2.47-6.5 7.42-3.71 4 8 12.07 5.88 6.85 4.79 13.62 4.33 6.18-4.33 9.59-4.33 8.66 1.55 11.76-3.56.31-13.15-5.57-14.08-4.58-8.68-12.31-11.14-13 4.33-17 5-7.42-3.09-17.64-2.78-8.35 8.66-11.14 11.44-11.39 3.05-5.24 15.43z" fill="#974445"/><path d="m192.85 45.86s1.93 7.76 4.44 9.82c4.43 3.63 3.43 9.35-1.72 8.28s-6.46-5.96-2.72-18.1z" fill="#db9b93"/><path d="m181.52 41.13a2.32 2.32 0 1 1 -2.75 1.8 2.33 2.33 0 0 1 2.75-1.8z" fill="#5a4a42"/><path d="m203.51 45.7a2.32 2.32 0 1 1 -2.74 1.8 2.32 2.32 0 0 1 2.74-1.8z" fill="#5a4a42"/><path d="m175.75 33.09c-.89 2.23 1.8.6 5.47 1.13 2.31.34 4.63 2.35 5.56 1.16 1.21-1.54-1.21-3.84-4.1-4.44s-6.27.49-6.93 2.15z" fill="#974445"/><path d="m175.15 61s13.74 1.88 23.9 9a14.26 14.26 0 0 1 -13.42 4.74c-8.91-1.39-10.48-13.74-10.48-13.74z" fill="#fff"/><path d="m159.49 56.65s-8.55-19.29-12.57-8.46 9.54 15.65 9.54 15.65z" fill="#efbeb3"/><g fill="#412645"><path d="m96.49 274.58a68.23 68.23 0 0 1 -9.49-.58l.34-2.45c14.13 1.95 28.38-1.14 44.89-4.72 8.55-1.85 17.39-3.76 27.05-5.17 27.77-4 63.35-26.82 63.71-27.05l1.34 2.08c-.36.23-36.4 23.32-64.69 27.42-9.58 1.39-18.38 3.3-26.88 5.14-13.09 2.75-24.76 5.33-36.27 5.33z"/><path d="m166.69 292.44-.15-2.47c.19 0 19.29-1.18 48-4.1l.26 2.46c-28.8 2.93-47.92 4.1-48.11 4.11z"/><path d="m235.51 201.17h-2.51c0-10.32-6.53-77.41-6.6-78.08l2.47-.24c.31 2.76 6.64 67.88 6.64 78.32z"/></g><path d="m109.15 143.46 2.52 38.01 113.29 44.94-3.11-46.89z" fill="#6999ce"/><path d="m222.43 188.23-116.2-46.07 66.6-36.72 116.21 46.07z" fill="#e6f4ff"/><path d="m107.28 141.74 65.56-36.16 115.1 45.64-65.56 36.15z" fill="#c2e2ff"/><path d="m222.43 188.23 2.53 38.18 63.87-35.22-2.52-38.01z" fill="#88c0ea"/><path d="m164.85 165.79 2.52 38.01 12.05 4.7-2.51-38.01z" fill="#ff7384"/><path d="m248.71 173.9 2.52 38.03 11.33-6.25-2.52-38.03z" fill="#ff7384"/><path d="m106.23 142.16.88 8.98 115.91 45.95-.59-8.86z" fill="#91b3e5"/><path d="m222.43 188.23.59 8.86 66.33-36.57-.31-9.01z" fill="#a1ceff"/><path d="m163.24 164.2.66 9.95 12.52 4.88-.66-9.95z" fill="#ff7b7f"/><path d="m249.75 173.07.56 9.13 11.77-6.49-.56-9.13z" fill="#ff7b7f"/><path d="m144.58 120.69-11.33 6.24 47.35 18.95 20.17 4.04 10.6 7.96 38.38 15.19 11.77-6.49-40.19-15.49-18.95-3.09-12.23-9.06z" fill="#ff929a"/><path d="m229.79 127.99-17.16 9.41-11.58 11.81-15.33 2.59-22.48 12.4 12.47 4.91 16.01-8.83 9.57-8.85 18.3-8.39 22.26-10.37z" fill="#ff929a"/><path d="m188.25 145.75c-7.84-2-10.51-8.6-9.38-11.86.64-1.86.64-1.27-1.05-1.84-2.78 2.44-8.47 2.3-7.9 7.51.47 4.21 4.28 9.12 8.94 10.93s15.79-1.29 15.79-1.29l6.2-3.48s-7.56 1.34-12.6.03z" fill="#d65b75"/><path d="m184.91 131.76c-2.44-.95-13 3.31-13 3.31 1.43-.79 3.64-.78 6 .12 4.65 1.82 16.81 14 16.81 14l6.2-3.48s-11.36-12.14-16.01-13.95z" fill="#ff929a"/><path d="m187.37 129.89c-2.45-.95-4.57-.94-6 0a97.1 97.1 0 0 1 -9.64 5.22 7.23 7.23 0 0 1 6.49-.19c6.71 3.31 16.39 14.25 16.39 14.26l6.2-3.48a66.81 66.81 0 0 1 -6.36-7.11c-2.59-3.41-4.96-7.87-7.08-8.7z" fill="#ff7b7f"/><path d="m172 135.15h.07z" fill="#ff7384"/><path d="m194.66 149.2-.18.05a55.33 55.33 0 0 1 -10.1 1.86 13.92 13.92 0 0 1 -5.59-.52c-4.68-1.82-8.72-6.77-9-11a4.5 4.5 0 0 1 2.21-4.59c1.54-.85 3.65-.82 5.94.07 4.63 1.81 16.15 13.49 16.64 14zm-.45-.11c-1.27-1.27-12.11-12.11-16.43-13.8a8.45 8.45 0 0 0 -3.64-.65 4.93 4.93 0 0 0 -2 .56 4.31 4.31 0 0 0 -2.05 4.35c.28 4.18 4.25 9 8.86 10.84 4.19 1.61 13.8-.89 15.26-1.3z" fill="#ff7384"/><path d="m184.17 129.21-9.43 5.07a6.46 6.46 0 0 1 3.52.69 22.83 22.83 0 0 1 2.54 1.47l8.54-4.95a6.17 6.17 0 0 0 -5.17-2.28z" fill="#ff929a"/><path d="m212.33 144.09c7.51-3.05 9.28-9.91 7.73-13-.88-1.75-.8-1.17.8-2 3.08 2.05 8.7 1.16 8.82 6.4.09 4.23-3 9.6-7.41 12s-15.83.8-15.83.8l-6.6-2.63s7.67.39 12.49-1.57z" fill="#d65b75"/><path d="m213.8 129.78c2.29-1.26 13.35 1.57 13.35 1.57-1.53-.6-3.71-.3-5.9.9-4.37 2.41-14.81 16.09-14.81 16.1l-6.6-2.63s9.58-13.52 13.96-15.94z" fill="#ff929a"/><path d="m211.11 128.26c2.3-1.27 4.41-1.54 5.91-.77a96.61 96.61 0 0 0 10.25 3.9 7.28 7.28 0 0 0 -6.47.67c-6.21 4.16-14.36 16.28-14.36 16.29l-6.6-2.63a66.45 66.45 0 0 0 5.36-7.89c2.16-3.73 3.92-8.47 5.91-9.57z" fill="#ff7b7f"/><path d="m227.08 131.44h-.07z" fill="#ff7384"/><path d="m206.53 148.22c.42-.56 10.3-13.66 14.65-16.06 2.16-1.19 4.25-1.49 5.89-.85a4.52 4.52 0 0 1 2.75 4.22c.28 4.25-3.07 9.69-7.48 12.11a13.78 13.78 0 0 1 -5.47 1.26 55.58 55.58 0 0 1 -10.25-.52h-.19zm15.66-.76c4.33-2.39 7.63-7.73 7.35-11.91a4.28 4.28 0 0 0 -2.6-4 4.77 4.77 0 0 0 -2.09-.3 8.84 8.84 0 0 0 -3.52 1.13c-4.06 2.25-13.37 14.42-14.46 15.85 1.49.17 11.36 1.42 15.32-.77z" fill="#ff7384"/><path d="m214.19 127.16 10 3.78a6.47 6.47 0 0 0 -3.4 1.15 22.61 22.61 0 0 0 -2.33 1.8l-9.11-3.79a6.16 6.16 0 0 1 4.84-2.94z" fill="#ff929a"/><path d="m195.56 152 7.86-.53 2.82-3.61-6.46-2.52a1.75 1.75 0 0 0 -1.44.2l-2.28 1.25a4.15 4.15 0 0 0 -2 3.57 1.48 1.48 0 0 0 .87 1.39z" fill="#d65b75"/><path d="m206.57 151.27a3.9 3.9 0 0 0 .51-2 1.42 1.42 0 0 0 -2.3-1.2l-2.28 1.25a4.25 4.25 0 0 0 -1.82 2.37z" fill="#b7465e"/><path d="m203.88 148.4.71-.39-6.18-2.4-.82.45z" fill="#ff929a"/><path d="m206.86 148.2c3.52 3.38 14.11 8.06 17.35 8.7 0 0 1.18 11-8.42 7.42-3.85-1.43-15.09-12.72-15.09-12.72s5.08-1.48 6.16-3.4z" fill="#d65b75"/><path d="m223.47 160.47c-.26-3.89-3.94-8.4-8.23-10.07s-14.54 1.2-14.54 1.2l5.67-3s12.31-3.4 16.6-1.73 7.57 4.66 7.83 8.55c.12 1.93-9.1 9.16-9.1 9.16h-.14a4.09 4.09 0 0 0 1.91-4.11z" fill="#ff929a"/><path d="m223.72 159.83c-.38-3.76-4.11-8.58-8.62-9.84-5.09-1.43-14.4 1.61-14.4 1.61l6.16-3.4s11.24-2.61 15.87-1.68c4.88 1 9.65 4.48 9.91 8.37.13 1.93-.49 3.8-1.79 4.54l-9.12 5.14h-.14a4.44 4.44 0 0 0 2.13-4.74z" fill="#ff7b7f"/><path d="m219.6 165.21a4.75 4.75 0 0 0 2-.56 4.17 4.17 0 0 0 2-4.19c-.26-3.92-4-8.47-8.3-10.15s-14 1.11-14.38 1.23l-.18.05.11.12c.45.45 11 11.21 15.27 12.87a8.1 8.1 0 0 0 3.48.63zm-9.37-15.16a12.09 12.09 0 0 1 5 .45c4.24 1.65 7.89 6 8.15 9.87a4 4 0 0 1 -1.89 4 6.23 6.23 0 0 1 -5.21-.09c-4-1.55-13.87-11.39-15-12.59a50.33 50.33 0 0 1 8.95-1.64z" fill="#ff7384"/><path d="m227.8 148.49-8 4.55a21.21 21.21 0 0 0 -3.77-2.67l7.1-3.77a14.73 14.73 0 0 1 4.67 1.89z" fill="#ff929a"/><path d="m194.19 149c-3.05 3.82-12.93 9.85-16.05 10.91 0 0 .28 11.06 9.32 6.25 3.63-1.93 13.28-14.61 13.28-14.61s-5.23-.75-6.55-2.55z" fill="#d65b75"/><path d="m179.34 163.39c-.26-3.89 2.8-8.84 6.83-11.06s14.57-.74 14.57-.74l-6-2.22s-12.65-1.74-16.68.48-6.89 5.62-6.63 9.51c.13 1.92 10.22 7.87 10.22 7.87l.13-.06a4.07 4.07 0 0 1 -2.44-3.78z" fill="#ff929a"/><path d="m179 162.79c-.12-3.77 2.94-9 7.25-10.89 4.85-2.09 14.48-.31 14.48-.31l-6.54-2.59s-11.49-1.1-16 .43c-4.71 1.61-9 5.71-8.72 9.6.13 1.93 1 3.71 2.38 4.26l9.71 3.88.13-.06a4.44 4.44 0 0 1 -2.69-4.32z" fill="#ff7b7f"/><path d="m187.17 166.5c4-2.21 13.05-14.26 13.43-14.78l.1-.13h-.18c-.43-.07-10.4-1.55-14.42.67s-7.15 7.24-6.89 11.16a4.16 4.16 0 0 0 2.54 3.89 4.75 4.75 0 0 0 2.05.29 8.12 8.12 0 0 0 3.37-1.1zm13.11-14.75c-1 1.34-9.52 12.41-13.26 14.47a6.23 6.23 0 0 1 -5.16.77 4 4 0 0 1 -2.39-3.72c-.26-3.85 2.78-8.66 6.77-10.85a12.3 12.3 0 0 1 4.85-1.11 51.35 51.35 0 0 1 9.19.44z" fill="#ff7384"/><path d="m173.46 152.09 8.56 3.45a21.7 21.7 0 0 1 3.39-3.14l-7.54-2.81a15 15 0 0 0 -4.41 2.5z" fill="#ff929a"/><path d="m71.73 208.78a1.17 1.17 0 0 1 -.32 0 1.23 1.23 0 0 1 -.92-1.32c0-.16 1.68-16.71 4-32.63s8.72-43.86 8.78-44.14l2.42.56c-.07.28-6.44 28.11-8.75 43.94-1.25 8.56-2.3 17.31-3 23.57 6.27-16.47 19-54.19 17.19-84l2.47-.16c2.46 39.75-20.5 93-20.73 93.51a1.23 1.23 0 0 1 -1.14.67z" fill="#412645"/><path d="m90.89 161.92s6.5-16.81 12.41-20.31 19.25-3.22 21.63-2.07-11.93 8.24-11.93 8.24 9.05-.42 13.23 1.51-13.62 9.64-13.62 9.64 12.93 1.31 14.64 2.95-17.5 8-17.5 8 14.4 2.24 14.76 5.07-14.71 2.7-16.84 3.13-8.15 8.58-13.61 10.57c0 0-39.79 34.28-49.65 33.38s-19.49-24.77-14.53-34.88 55.12-22.35 61.01-25.23z" fill="#efbeb3"/><path d="m290.8 189.23a151.47 151.47 0 0 1 7.35 27c2.55 14.85-7.35 29.7-19.32 30.94s0-52.94 0-52.94 2.48-6.39 11.97-5z" fill="#db9b93"/><path d="m282 164.84c-4.52-2.11 7.88 16.4 7.88 16.4s-11.76-6.19-12.38-2.47 9.75 10.46 9.75 10.46-11.3-1.49-11.3 1.61 9.49 6.6 9.49 6.6-8.47-1.94-6.37 1.7c2.93 5.1 8 12.12 10.81 8.71s1.86-8.66 1.86-8.66 3.68 0 2.15-6.5c0 0 4.14-2.78.37-9.28-.01 0 14.43-6.09-12.26-18.57z" fill="#efbeb3"/></svg>