<svg xmlns="http://www.w3.org/2000/svg" viewBox="0 0 300 150"><defs><style>.a{fill:#361f39}.b{fill:#c7e5f7}.c{fill:#fff}.d{fill:#bf4634}.e{fill:#efbeb3}.f{fill:#db9b93}.g{fill:#f09442}.h{fill:#5a4a42}.i{fill:#fafafa}.j{fill:#bbbdbf}</style></defs><path class="a" d="M78 75.36c-5.09 3.26 15.85 50.12 21.89 56.64s49.78 17.2 61.09 18 49.93-11 50-14.75-38.44-14.36-39.98-14.49-19.87-43.66-25.4-45.4-59.29-5.3-67.6 0z"/><path class="b" d="M80.78 78.73c3.52-5 61.81-.38 65.12 0s21.36 41.41 20.86 42-62.35 7.92-64.86 7.41S78.19 82.4 80.78 78.73z"/><path class="c" d="M163.05 147.28c-2.83 0-15.69-2.95-26.93-5.86-23.09-6-23.2-7.21-23.24-7.67a.65.65 0 0 1 .16-.48c2-2.29 57.45-10.09 58-10.12h.11c3.33 0 32.35 9.26 34.38 11.51a.78.78 0 0 1 .23.6c-.27 2.61-39.75 11.93-42.55 12zm-48.89-13.54c4.35 2.45 43.41 12.54 48.89 12.54h.09c5-.18 38.15-9.12 41.43-11.13-2.79-2.08-29.73-11-33.45-11-3.44.2-51.86 7.49-56.96 9.59z"/><path class="c" d="M119.34 136.9l-.19-1c.36-.07 36.34-6.95 57.85-11.42l.2 1c-21.51 4.52-57.5 11.35-57.86 11.42zm10.07 2.67l-.22-1c.34-.08 34.87-8 55.29-11.87l.19 1c-20.4 3.87-54.91 11.79-55.26 11.87zm9.17 2.43l-.23-1c.31-.08 31.79-7.52 51.67-12.49l.24 1c-19.88 4.96-51.37 12.4-51.68 12.49zm9.73 2.37l-.27-1c.29-.08 29.54-8.18 47.64-12.93l.25 1c-18.09 4.75-47.33 12.85-47.62 12.93z"/><path class="c" transform="rotate(-69.69 174.284 140.698)" d="M173.78 134.1H174.79V147.29999999999998H173.78z"/><path class="c" transform="rotate(-66.95 189.057 136.666)" d="M188.57 130.51H189.57999999999998V142.82H188.57z"/><path class="c" d="M156.68 142c-11.07-3.23-35.31-9.89-35.55-10l.26-1c.25.07 24.5 6.73 35.57 10zm6.12-1.74c-9.24-4.24-29.1-10.4-29.29-10.47l.29-1c.2.06 20.13 6.25 29.42 10.51zm7.45-2.06c-8.66-4.73-26.13-10-26.3-10.1l.29-1c.18 0 17.74 5.4 26.5 10.17zm9.42-2.52c-8.17-3.31-25.85-9-26-9.08l.31-.95c.17.06 17.9 5.78 26.1 9.1zm8.45-2.29c-7.39-3.39-23.8-8.29-24-8.34l.29-1c.16 0 16.64 5 24.09 8.39z"/><path class="d" d="M196.76 87.44c-.84-4.52-3.18-1.33-13.74-11.39s-15.13-18.52-40.16-22.92c-8.87-1.56-18.17-4.23-30.74-2.73S81.28 70.52 76.26 72.86s-2.52 19.78 5.86 21.62 18.27-5 18.27-5a198.502 198.502 0 0 0-1.4 34.9l3.32 5c9-.4 18.7-1.17 29-2.49s20.13-3.06 29-5c-1.62-20.21.4-25.37 2.73-26.05 4.32-1.25 8.7 12.46 17.6 13.18 7.07.55 16.96-17.02 16.12-21.58z"/><path class="c" d="M142.86 43.59s-7.44-1.57-10.62.87S124.53 60 126 60.81s3.86-3.35 6.88-3.35 3.8 10.38 10 10.38 7.64-9.86 9.49-9.7 4.19 5.5 5.19 4.34.67-8.62-3.52-13-4.31-3.48-11.18-5.89zm-42.34 44.76a.68.68 0 0 1-.45-.17c-.74-.62 0-2.13 2.61-6.85 2.14-3.9 4.8-8.77 5.6-12.25a97.14 97.14 0 0 0 1.92-13.64l1 .05a96.17 96.17 0 0 1-1.94 13.82c-.83 3.61-3.53 8.54-5.7 12.51a53.52 53.52 0 0 0-2.64 5.18c1.75-1.72 6.48-9.49 8.57-13.68 1.82-3.62 2.51-13.57 2.51-21.67h1c0 4-.18 17.36-2.57 22.13-1 2.07-7.74 14.14-9.7 14.55zm62.55 4.98h-.17a.49.49 0 0 1-.31-.59c0-.08 1.82-7.54 1.59-13s1.46-13.3 1.53-13.63l1 .22c0 .08-1.74 7.88-1.51 13.37a45.12 45.12 0 0 1-.75 9c1.14-2.66 2.4-6 2.43-7.87.07-3.5.94-17.92.95-18.06l1 .06c0 .15-.88 14.54-.94 18s-4.17 11.9-4.35 12.25a.5.5 0 0 1-.47.25zm-42.45 20.25l-.07-.77c6.64-.51 8.17-2.75 10.09-5.58a18.73 18.73 0 0 1 5.54-5.77c5.13-3.39 7.92-3.89 9.76-4.23a6.69 6.69 0 0 0 2.12-.61c1.69-.92 7-7.43 8.86-9.86l.7.45c-.28.36-6.93 8.89-9.12 10.08a7.53 7.53 0 0 1-2.39.7c-1.88.34-4.45.81-9.43 4.1a18.07 18.07 0 0 0-5.31 5.55c-1.97 2.9-3.67 5.36-10.75 5.94zM109 123.32v-.85c8.61-.1 20.34.15 30.13-2.42a36.33 36.33 0 0 0 12.48-5.64l.63.64c-.18.14-4.6 3.65-12.84 5.81s-29.54 2.45-30.4 2.46z"/><path class="c" d="M143.57 71.78c-4.36 0-9.53-4.47-10.32-9.22l1-.16c.82 4.92 6.5 8.92 10.15 8.31s7-6.56 7-6.62l.89.48c-.14.26-3.52 6.43-7.74 7.13a6.27 6.27 0 0 1-.98.08z"/><path class="c" d="M143.29 82.7l-1-.2s.34-1.71.83-5.66.83-5.66.85-5.73l1 .19s-.33 1.72-.83 5.67-.84 5.66-.85 5.73zm37.88 24.08l-.66-.76c7.19-6.21 12.54-21 12.59-21.15l1 .33c-.27.62-5.54 15.2-12.93 21.58z"/><path class="e" d="M144.23 27.81s-9.09 18.72-9 22.21 5.49 18.25 7.62 17.82 7.87-15 7.87-15L155 37.1z"/><path class="f" d="M137.16 43.64c3.71 4.8 9.28 6.46 14.19 6.86L155 37.1l-10.73-9.29s-4.47 9.13-7.11 15.83z"/><path class="e" d="M159.05 12.49c9 3.14 7.23 10.23 6.45 19.09s-2.64 13.75-10.07 13.23S142 39.29 140.83 28s3.34-20.68 18.22-15.51z"/><path class="g" d="M163 16.46c-7.51 2.15-7.55-4.16-16.37-4.4a7.35 7.35 0 0 1-1.54 7.94c-3.47 4-2 9.24-4.07 9.45s-6-1.67-5.21-8.84c.32-3 3.6-13.26 9-13 0 0 1-3.83 6.41-4.87S174.1 13.27 163 16.46z"/><path class="e" d="M142.23 29S139 21.17 137 25.22s2.92 9.43 6.64 9.59z"/><path class="f" d="M158.26 24.63s1.59 3.68 3 4.5c2.48 1.43 2.45 4.34-.18 4.23s-3.67-2.36-2.82-8.73z"/><path class="h" d="M152.28 23.22a1.16 1.16 0 0 1-.1 2.32 1.16 1.16 0 0 1 .1-2.32zm11.24.47a1.16 1.16 0 1 1-1.21 1.11 1.16 1.16 0 0 1 1.21-1.11z"/><path class="g" d="M148.77 19.71c-.26 1.18.94.16 2.8.12 1.16 0 2.48.78 2.84.12.47-.86-.91-1.8-2.39-1.86s-3.02.75-3.25 1.62zm18.51.78c.16 1.19-.95.07-2.8-.12-1.16-.12-2.53.57-2.84-.12-.4-.89 1.06-1.71 2.54-1.65s2.98 1 3.1 1.89z"/><path class="c" d="M151.35 35.72a25.72 25.72 0 0 1 10.55-.06 5.89 5.89 0 0 1-4.48 3.81c-3.63.8-6.07-3.75-6.07-3.75z"/><path class="d" d="M135.81 20.59s20.71-7.07 30.77-1.54c0 0 1.27-15.93-8.69-17.4-12.49-1.84-22.67 5.05-22.08 18.94z"/><path class="a" d="M146.89 17.87s5-6.07 10.26-7 14.51-1.18 16.09 1.29-6.66 6.89-6.66 6.89z"/><path class="c" d="M84.61 91.44a14.25 14.25 0 0 1-3.36-.44l.24-1c6.65 1.61 9.47-1.87 11.8-5.56 1.75-2.79-1.84-13.36-3.37-17.2l.94-.37c.58 1.46 5.62 14.37 3.28 18.11-2 3.21-4.54 6.46-9.53 6.46z"/><path class="e" d="M63.63 123.47c.15-2.58 1.55-6.36 2.5-8.94s9.32-13.59 13.14-18.24 12-11 12-12.24-6.91-10.25-13.91-7.29S57.81 114.38 57.15 116s-7.5 2.29-7.68 3.89 0 7.94.53 9.2 13 5.91 13.63-5.62z"/><path class="e" d="M63.63 123.47c-.57 3.35-1 6.61-3 8.12s-7.76.37-9.47-.06S55 129 56.38 128.7s-.2-2.32 1.43-5.7 6.63-4.3 5.82.47z"/><path class="e" d="M47.12 129.41c.42 3 7-.74 7.39-3.12s.18-8-2.62-8.38-5.45 6.75-4.77 11.5zm157.1-66.88c.39 2.49-.19 6.37-.58 9s-6.27 14.81-9 20-9.39 12.86-9.13 14 8.86 8.37 15.08 4.14S211.81 70 212.12 68.33s6.86-3.69 6.69-5.26-1.64-7.56-2.44-8.64-13.89-2.98-12.15 8.1z"/><path class="a" d="M200.17 49.1s3.27 7.39 5.06 11.29 2.58 7.31 3.68 7.86 7.71-.88 8.58-1.25 2.71-2.64 2.34-3.77-8.31-16.86-9.11-17.62-11.24 2.15-10.55 3.49zM188.24 37s-3.47 1.47-3.87 3.27 1.07 6.4 2.28 8.15 2.34 2.4 3.13 2.33 4.24-1 4.24-1z"/><path class="i" d="M225.14.42c-1.15 1.1-11.6 15.32-20.57 22.45s-18.19 12.51-18.29 13.71a13.69 13.69 0 0 0 .78 7.91c1.64 4.46 5.29 5.92 7 6s18.22-5.36 31.73-6.32 20.11-1.66 22.16-2.5 4.44-12.29-2.43-25.52S227.1-1.47 225.14.42z"/><path class="j" d="M245.51 16.17C238.64 3 227.1-1.47 225.14.42c-1.68 2-.74 13.9 5.79 25.57s13.91 16.39 17 15.7c2.07-.85 4.45-12.29-2.42-25.52z"/><path class="i" d="M211.77 56.61c-1.52-3.46-3.7-8.61-3.77-8.61l.44-.19c0 .05 2.21 5.16 3.73 8.62zm4.44 9.23c-.69-.92-3.22-6.71-3.33-7l.44-.19c0 .06 2.62 6 3.27 6.86z"/><path class="d" d="M234.18 21.77c-1-2.39-3.63-3-6.3-2.16a55 55 0 0 0 3.05 6.39c.38.68.76 1.33 1.14 2 1.74-1.68 3.21-3.61 2.11-6.23zm-29.61 1.1a2.75 2.75 0 0 0-2.35-.55c-1.2.4-8.76 5.73-9.62 7.18s-.65 5.07 1.78 10.92 4.5 9.83 6.47 10 10.26-1.73 10.74-2.55a7.58 7.58 0 0 0 .7-1.68 3.76 3.76 0 0 1-2.37-1.35 81.1 81.1 0 0 1-5.27-11.67c-1.79-4.91-2.14-8.7-1.83-8.93z"/><path class="a" d="M194.78 32.6l-.27-.39c.2-.13 4.74-3.19 6.26-3.89l.19.44c-1.48.68-6.14 3.81-6.18 3.84zm.87 5.72l-.23-.42a72.21 72.21 0 0 1 6.8-3.38l.15.45a73.6 73.6 0 0 0-6.72 3.35z"/><path class="a" transform="rotate(-18.29 201.258 40.97)" d="M197.67 40.74H204.79V41.21H197.67z"/><path class="a" d="M206.36 45.15c-1.35.45-6.27 1.59-6.48 1.64l-.11-.46s5.11-1.19 6.44-1.63z"/><path class="d" d="M211.79 49.54c-1.3.38-.08 4 1.09 3.31s-.08-3.61-1.09-3.31z"/><path class="j" d="M241.71 42c-.08 0-8.26-3.5-14.51-15.39S222 5.92 222 5.83l.47.06c0 .09-1.06 8.7 5.11 20.44s14.19 15.15 14.28 15.18z"/><path class="i" transform="rotate(-69.77 230.182 9.749)" d="M227.37 9.5H233.04V9.97H227.37z"/><path class="i" transform="rotate(-43.29 237.853 14.761)" d="M234.38 14.52H241.35999999999999V14.99H234.38z"/><path class="i" transform="rotate(-10.85 240.748 23.607)" d="M237.6 23.34H243.98V23.81H237.6z"/><path class="i" transform="rotate(-78.7 240.703 30.836)" d="M240.46 28.12H240.93V33.57H240.46z"/><path class="e" d="M204.22 62.53c-.15-3.3-.39-6.49 1.24-8.33s7.51-1.91 9.27-1.85-3.23 3.22-4.51 3.74.67 2.17-.21 5.71-5.58 5.43-5.79.73z"/></svg>