<svg xmlns="http://www.w3.org/2000/svg" viewBox="0 0 200 150"><defs><style>.a{fill:none}.b{clip-path:url(#a)}.c{fill:#c7e5f7}.d{fill:#361f39}.e{fill:#fff}.f{clip-path:url(#b)}.g{fill:#efbeb3}.h{fill:#fff3e4}.i{fill:#eacfbc}.j{fill:#435790}.k{fill:#8a5d3b}.l{fill:#db9b93}.m{fill:#f09442}.n{fill:#5a4a42}</style><clipPath id="a"><path class="a" d="M70.64 8.53c-32.38 4.87-41.06 7.69-49.21 15.38-16.77 15.83-18.2 40-19.06 54.5-.14 2.43-1.15 24.66 8.4 44.55 3.75 7.8 7.86 12.41 12.4 15.57A35.32 35.32 0 0 0 37 144.12c52.6 10.32 99.76 3.92 99.76 3.92 24.46-3.32 36.83-5.09 43.52-10.66 18.1-15.07 19.8-52.26 15.53-75.69-3.6-19.72-7.85-43-26.72-56.23C155.55-4 127.06 0 70.64 8.53z"/></clipPath><clipPath id="b"><path class="a" d="M26.52 1.19C22.61 4 23.93 113.88 26.52 117s134.26 3.09 137.87 0c2.23-1.92 2.69-44.47 2.11-77.45-.16-8.91 7.4-12.17 7.1-18.7-.38-8.4-8.66-18.94-9.21-19.64C161.81-2 30.65-1.77 26.52 1.19z"/></clipPath></defs><g class="b"><path class="c" d="M51.72 33.58c-25.55 10.27-31.88 16.47-35.8 21.48C1.74 73.22-.8 101.54 10.44 122.5a56.78 56.78 0 0 0 12.4 15.57C45.75 158.31 78.21 155 136.72 148c32.3-3.81 38.28-6.94 43.19-11.13C200.13 119.68 201 85.4 192.6 61.69c-1.35-3.79-12.6-34.13-42.7-46.42-26.07-10.66-50.11-1-98.18 18.31z"/><path class="d" d="M78.29 126.48s-2.85 16.12-5.3 18-10.7 2.79-10.7 5.27 68.68 2.17 69.19 0-6.54-3.72-9.2-5.27-5.77-18-5.77-18z"/><path class="e" d="M80.39 145.58v-.77c.21 0 21-1.53 35.08 0v.77c-14.17-1.53-34.87-.01-35.08 0z"/><path class="d" d="M21.86 30.53c-4.95 2-5.73 97.81-.05 103s146.65 4.13 148.72 0 6.47-98.61-1.6-103.78-135.01-4.07-147.07.78z"/><path class="c" d="M26.52 36c-3.91 2.8-2.59 77.84 0 80.94s134.26 3.09 137.87 0 2.58-77.7 0-80.94-133.74-2.92-137.87 0z"/><path class="e" d="M96.67 130.69h-.39a3.66 3.66 0 0 1-3.56-4c.08-2 1.44-4.12 3.59-4.12s3.57.7 4.31 2a4 4 0 0 1-.13 3.95 4.38 4.38 0 0 1-3.82 2.17zm-.36-7.37c-1.68 0-2.75 1.72-2.82 3.38a2.9 2.9 0 0 0 2.85 3.21h.33a3.62 3.62 0 0 0 3.15-1.83 3.22 3.22 0 0 0 .13-3.17c-.6-1.02-1.89-1.59-3.64-1.59z"/><g class="f"><path class="g" d="M146.39 48.12s.37-3.48 1.13-4.66a41.75 41.75 0 0 0 5-9.19c1.44-4.17 1.43-15 .1-15.14s-2.1 7.8-2.1 7.8 1.16-10-.44-10.14-2.7 9.17-2.7 9.17 1.28-11.13-.59-11.33-3 10.86-3 10.86.9-9.1-.84-9.29-2.82 13.8-3.7 17.8.41 13.39.41 13.39z"/><path class="h" d="M130.68 23.5c.15 1.24 13 17.38 14.47 18s25.24-19.74 25.2-22S158.82 4.23 157 2.88s-26.58 18.46-26.32 20.62z"/><path class="i" d="M152.05 27.32c-6.23 0-19.64-3-21.46-3.45l.18-.75c8.6 2 22 4.43 23.69 3.07s2.2-14.68 2.15-23.31h.78c0 2.24.06 21.9-2.45 23.92a5.29 5.29 0 0 1-2.89.52z"/><path class="i" d="M145.53 41.47h-.77c0-.09.61-9.26 2.32-14.94l.74.23c-1.68 5.54-2.28 14.62-2.29 14.71zm24.76-21.64a99.54 99.54 0 0 0-13.81-1V18a99.42 99.42 0 0 1 13.93 1z"/><path class="g" d="M140.14 24.32c-1.78-.19-.9 3.92-1.64 5.73s-2.52 3.34-2.41 6.51 2.39 5.48 2.77 7a8.19 8.19 0 0 1-.41 3.75l6 .64a64.25 64.25 0 0 1 .2-6.92c.32-4.65-3.14-5.93-3.56-6.69s1.21-2.49 1.38-4.9-1.4-5.02-2.33-5.12z"/><path class="j" d="M116.52 48.64a108 108 0 0 0 1.75 27.49s16.65 11.24 22.85 8.33 7.94-37.95 7.94-37.95-7.17-2.25-12.2-1.42c0 0-2.56 20-4.19 19.83s-16.15-16.28-16.15-16.28z"/><path class="j" d="M74.12 50.57c3.29-2.51 17.81-1.16 24-2.32s16.94-1.2 18.39.39c0 0 .31 2.61.79 6.61 1 8.72 2.86 24 4 33.47 1.75 13.75 6.78 34.28 6 35.63s-49.58.78-51.71 0-.58-42.41-.58-53.25-.89-20.53-.89-20.53z"/><path class="j" d="M91.54 45.63s-6.19 1.26-6.19 4.94S94 64.92 94 64.92s3.14-7 5.28-7.38 5.85 5 5.85 5 .36-12.43-2-15-11.59-1.91-11.59-1.91z"/><path class="e" d="M94.1 65.66l-.4-.49c-.36-.44-8.7-10.82-8.7-14.6h.77c0 3.07 6.51 11.5 8.18 13.62.85-1.78 3.33-6.67 5.3-7 1.79-.32 4.33 2.64 5.56 4.26 0-4-.24-11.75-1.88-13.54l.57-.53c2.4 2.62 2.07 14.73 2.06 15.24v1.19l-.67-1c-1.38-2-4.06-5.14-5.46-4.87s-3.81 4.52-5 7.15z"/><path class="e" d="M106.14 125.18c-.68-20.43-6.34-65.2-6.4-65.65l.77-.1c0 .45 5.72 45.26 6.41 65.72z"/><path class="k" d="M108.91 46.61S108.84 97 77 114.29l1.65 4.84s33.42-18.38 34.29-71.51z"/><path class="k" d="M99.28 102.15c-3.3-2.89-43.43-.06-44.92 5.16-2 7-2 32.05 1.36 34.38s41.58 1.51 45.06-2.36.34-35.58-1.5-37.18z"/><path class="e" d="M72.94 126.33a9.42 9.42 0 0 1-1.06-.06c-9.72-1.06-19.13-8.9-18.88-12.69l.78.06c-.21 3.06 8.45 10.8 18.19 11.86 9.18 1 21.56-12.8 22.62-16.24l.74.23c-1.09 3.51-12.82 16.84-22.39 16.84z"/><path class="e" d="M99.16 138.92c-.39-.13-3.85-1.72-4.75-17.21-.68-11.73.48-18.39 3.57-20.38l.42.65c-2.79 1.8-3.87 8.42-3.22 19.68.88 15 4.2 16.52 4.23 16.53zm-26.85-15.4a1.25 1.25 0 0 1-1.14-.57c-.75-1.18.5-3.87.64-4.17l.06-.09a1.73 1.73 0 0 1 1.26-.68c.83 0 1.51.91 1.65 2.21a2.76 2.76 0 0 1-1.91 3.24 2.89 2.89 0 0 1-.56.06zm.18-4.36c-.51 1.08-1 2.8-.67 3.38a.51.51 0 0 0 .49.21 2.08 2.08 0 0 0 .4 0c1.12-.24 1.4-1.44 1.3-2.4s-.48-1.52-.88-1.52a1 1 0 0 0-.64.33z"/><path class="g" d="M76.57 104.66s3.53 3.09 5.3 3.61 4.8.67 6.21 1.32 3.34 2.46 4.92 3.53-2.39 1.52-5.81-.71c0 0 9.7 7.73 9.52 9.1s-6.47-3.2-6.47-3.2 6.14 5.35 5.29 6.58-7.19-4.68-7.19-4.68 4.36 4.8 3.26 5.6-7.6-5.09-7.6-5.09 3.75 3.88 2.64 4.42-8.16-4.52-9.37-8.65-5.31-6.79-5.31-6.79a8.59 8.59 0 0 1 4.61-5.04z"/><path class="e" d="M133.41 79.27a.63.63 0 0 1-.48-.24c-1.86-2-2.54-11.22-.58-14.31l.65.41c-1.68 2.66-1.18 11 .34 13.17a46.42 46.42 0 0 0 .15-6.33 26.16 26.16 0 0 1 .09-4.46.49.49 0 0 1 .49-.42c.34 0 .81 0 2.2 8.4l-.76.13c-.41-2.41-.9-5-1.28-6.52v2.86c.09 5.31 0 7-.66 7.27a.45.45 0 0 1-.16.04z"/><path class="g" d="M99.19 17.48c6.84 1.78 5.93 7.11 5.87 13.69s-1.14 10.28-6.64 10.34S88.21 38.23 86.67 30s1.25-15.45 12.52-12.52z"/><path class="g" d="M86.9 31l2.25 19.36s8.38 7.16 10.13 7.16.23-8.71.23-8.71L98.13 36.3z"/><path class="l" d="M99.32 47.15L98.13 36.3 86.9 31l1.89 16.22a18.91 18.91 0 0 0 10.53-.07z"/><path class="m" d="M102.31 20.17c-5.4 2-5.81-2.62-12.32-2.28a5.44 5.44 0 0 1-.65 5.93C87 27 88.45 30.74 86.9 31s-4.5-.88-4.36-6.2c.06-2.2 1.88-10 5.84-10.14 0 0 .51-2.88 4.44-4s17.51 6.51 9.49 9.51z"/><path class="g" d="M87.77 30.6S85 25.05 83.7 28.16s2.7 6.77 5.45 6.67z"/><path class="m" d="M88 23.56s1.56 8.81 3 9.83 3.9-.46 6.81-1 7.48-1.05 8.35 1.82 1 10.67-5.24 10.9a14.14 14.14 0 0 1-12.33-6.86C86.88 35.37 86.67 30 86.67 30z"/><path class="l" d="M99.32 26.47s1.39 2.62 2.47 3.14c1.92.91 2.07 3 .12 3.13s-2.85-1.56-2.59-6.27z"/><path class="n" d="M94.83 25.79a.86.86 0 1 1-.83.89.86.86 0 0 1 .83-.89zm8.31-.32a.86.86 0 0 1 .07 1.72.86.86 0 1 1-.07-1.72z"/><path class="m" d="M92 23.41c-.12.88.7.06 2.07-.08.86-.09 1.87.43 2.1-.08S95.43 22 94.34 22s-2.21.75-2.34 1.41zm13.72-.52c.19.87-.69.11-2.06.08-.87 0-1.84.57-2.1.08-.35-.64.67-1.33 1.77-1.37s2.25.56 2.39 1.21z"/><path class="e" d="M94.8 35.27a23.05 23.05 0 0 1 9.42-.81 5.3 5.3 0 0 1-3.73 3.73c-3.19.97-5.69-2.92-5.69-2.92zm24.96 41.86a.45.45 0 0 1-.27-.4l-3.12-26.11.77-.09s1.72 14.47 2.61 21.87c.08-4.33 0-11-.9-15.21l.76-.16c1.23 6 1.11 19.56.54 20z"/><path class="j" d="M74.12 50.57C67 55.41 48.75 83.11 48.75 88.91s21.19 25.76 22.7 25.37 8.47-8.71 8.67-10.45-13.36-14.92-13.56-15.69 9.69-14.52 9.69-14.52a93.37 93.37 0 0 0 .58-12.2 29.66 29.66 0 0 0-2.71-10.85z"/><path class="e" d="M66.46 90.06a33.37 33.37 0 0 0-9.46-1c-1.59 0-2.47 0-2.85-.39a.76.76 0 0 1-.17-.61c0-.2.11-.81 2.19-1.38C59 86 65 85.52 66.87 87.9l-.61.48c-1.21-1.51-4.87-1.74-8-1.3-2.32.32-3.46.89-3.56 1.13a8.3 8.3 0 0 0 2.25.11 33.57 33.57 0 0 1 9.67 1zm8.59-14.31a.65.65 0 0 1-.2 0c-.64-.29-.6-1.39-.42-4.5.1-1.59.22-3.56.19-5.57-.07-4.81-.88-11-.89-11.08l.77-.1c0 .06.82 6.31.89 11.16 0 2-.09 4-.18 5.64a29.64 29.64 0 0 0-.1 3.34 37 37 0 0 0 1.33-13.13 59 59 0 0 0-2.06-9.33l.73-.24a59.17 59.17 0 0 1 2.1 9.46c.65 4.79-.83 13.52-1.85 14.28a.56.56 0 0 1-.31.07z"/><path class="e" d="M107.87 78.49H118.45V79.25999999999999H107.87z"/><path class="j" d="M82.54 24.82s14.84-6.43 22.58-2.95c0 0 0-11.81-7.43-12.31-9.3-.62-16.4 5.06-15.15 15.26z"/><path class="d" d="M90.54 22.16s3.3-4.77 7.15-5.76 10.62-1.72 11.94 0-4.51 5.47-4.51 5.47z"/></g></g></svg>