<svg viewBox="0 0 300 300" xmlns="http://www.w3.org/2000/svg" xmlns:xlink="http://www.w3.org/1999/xlink"><pattern id="a" height="16" patternTransform="matrix(.41 0 0 .41 -24.87 131.35)" patternUnits="userSpaceOnUse" viewBox="0 0 16 16" width="16"><path d="m0 0h16v16h-16z" fill="none"/><circle cx="8" cy="8" fill="#ffb754" r="2"/></pattern><linearGradient id="b" gradientUnits="userSpaceOnUse" x1="215.76" x2="248.65" y1="110.59" y2="233.34"><stop offset="0" stop-color="#c7a58d"/><stop offset="1" stop-color="#b99983"/></linearGradient><linearGradient id="c" gradientUnits="userSpaceOnUse" x1="127.82" x2="94.26" y1="136.83" y2="253.87"><stop offset="0" stop-color="#ab8d79"/><stop offset="1" stop-color="#9e8572"/></linearGradient><linearGradient id="d" x1="223.74" x2="244.14" xlink:href="#b" y1="77.34" y2="153.49"/><linearGradient id="e" x1="118.79" x2="94.51" xlink:href="#c" y1="105.21" y2="195.82"/><linearGradient id="f" gradientUnits="userSpaceOnUse" x1="175.78" x2="175.78" y1="148.32" y2="117.94"><stop offset="0" stop-color="#bd9e86"/><stop offset="1" stop-color="#f3d4bc"/></linearGradient><linearGradient id="g" gradientUnits="userSpaceOnUse" x1="234.01" x2="245.61" y1="145.48" y2="125.37"><stop offset="0" stop-color="#eac5ab"/><stop offset=".34" stop-color="#ab8d79"/><stop offset="1" stop-color="#9e8572"/></linearGradient><linearGradient id="h" x1="176.73" x2="173.34" xlink:href="#f" y1="259.26" y2="65.09"/><path d="m64 244.49c-5.37-4.13-53.23-42.08-62-105-2.22-16-5-38 6.92-60.18s33.49-31.63 58.08-42.82c12.22-5.57 33.69-15.35 61-18.1 9-.9 101.28-8.8 139.26 54.06 28.44 47.08 7.61 102.35-.3 122-9.46 23.57-24.59 61.24-63 79-61.9 28.67-128.57-20.16-139.96-28.96z" fill="#beb2da"/><circle cx="75" cy="225" fill="url(#a)" r="75"/><g fill-rule="evenodd"><path d="m175 176.62 112.99 40.58-112.99 40.57-112.99-40.57z" fill="#8f8f8f"/><path d="m175 40.62 112.99 40.58-112.99 40.58-112.99-40.58z" fill="#ededee"/><path d="m287.99 216.85v-135.65l-112.99 40.58v135.65z" fill="url(#b)"/><path d="m288 112.78v-31.58l-113 40.58v28.81s.08 2.74.13 2.72z" fill="#c4a48d"/><path d="m288 112.61v-31.41l-113 40.58v28.78c.08 0 .17 2.57.25 2.53 3.51-1.25 109.24-39.23 112.75-40.48z" fill="#c4a48c"/><path d="m288 112.43v-31.23l-113 40.58v28.74c.13 0 .25 2.4.38 2.36z" fill="#c3a38c"/><path d="m288 112.26v-31.06l-113 40.58v28.71c.17-.06.34 2.23.51 2.17z" fill="#c3a38b"/><path d="m288 112.09v-30.89l-113 40.58v28.67c.21-.07.42 2.06.64 2z" fill="#c2a28b"/><path d="m288 111.91v-30.71l-113 40.58v28.64c.25-.09.51 1.89.76 1.8z" fill="#c2a28a"/><path d="m288 111.74v-30.54c-12.56 4.5-100.44 36.07-113 40.58v28.6c.3-.1.59 1.73.89 1.62z" fill="#c1a18a"/><path d="m288 111.57v-30.37l-113 40.58v28.57c.34-.12.68 1.55 1 1.43z" fill="#c0a18a"/><path d="m288 111.39v-30.19l-113 40.58v28.53c.38-.13.76 1.39 1.15 1.25z" fill="#c0a089"/><path d="m288 111.22v-30c-17.94 6.44-95.06 34.13-113 40.58v28.5c.42-.15.85 1.22 1.27 1.06z" fill="#bfa089"/><path d="m288 111.05v-29.85l-113 40.58v28.46c.47-.16.93 1 1.4.88z" fill="#bf9f88"/><path d="m288 110.87v-29.67l-113 40.58v28.43c.51-.18 1 .88 1.53.7z" fill="#be9f88"/><path d="m288 110.7v-29.5l-113 40.58v28.39c.55-.19 1.1.71 1.65.52z" fill="#be9e87"/><path d="m288 110.53v-29.33l-113 40.58v28.36c.59-.21 1.19.54 1.78.33z" fill="#bd9e87"/><path d="m288 110.35v-29.15l-113 40.58v28.32c.64-.22 1.27.38 1.91.15z" fill="#bc9d87"/><path d="m288 110.18v-29l-113 40.6v28.29c.68-.24 1.36.2 2 0z" fill="#bc9d86"/><path d="m288 110v-28.8l-113 40.58v28.22c.72-.25 1.44 0 2.16-.22z" fill="#bb9c86"/><path d="m288 109.84v-28.64l-113 40.58v28.22c.76-.27 1.53-.13 2.29-.41z" fill="#bb9c85"/><path d="m288 109.66v-28.46l-113 40.58v28.22c.81-.28 1.61-.3 2.42-.59z" fill="#ba9b85"/><path d="m288 109.49v-28.29l-113 40.58v28.15c.85-.3 1.7-.47 2.54-.78z" fill="#ba9b84"/><path d="m288 109.32v-28.12l-113 40.58v28.11z" fill="#b99a84"/><path d="m288 109.23v-28l-113 40.55v26.61c0 .47.06.92.06 1.4z" fill="#b89983"/><path d="m288 109.14v-27.94l-113 40.58v26.59c0 .45.13.86.13 1.31z" fill="#b79883"/><path d="m288 109.06v-27.86l-113 40.58v26.58c0 .42.19.78.19 1.21z" fill="#b69882"/><path d="m288 109v-27.8l-113 40.58v26.56c0 .4.26.71.26 1.12z" fill="#b59781"/><path d="m288 108.88v-27.68l-113 40.58v26.55c0 .37.32.64.32 1z" fill="#b49681"/><path d="m288 108.8v-27.6l-113 40.58v26.53c0 .36.39.57.39.93z" fill="#b49580"/><path d="m288 108.71v-27.51l-113 40.58v26.51c0 .34.45.51.45.84z" fill="#b3957f"/><path d="m288 108.62v-27.42l-113 40.58v26.5c0 .31.51.43.51.74z" fill="#b2947f"/><path d="m288 108.54v-27.34l-113 40.58v26.48c0 .29.58.36.58.65z" fill="#b1937e"/><path d="m288 108.45v-27.25l-113 40.58v26.47c0 .26.64.29.64.55z" fill="#b0927d"/><path d="m288 108.36v-27.16c-17.94 6.44-95.06 34.13-113 40.58v26.45c0 .24.71.22.71.46z" fill="#af927d"/><path d="m288 108.28v-27.08l-113 40.58v26.44c0 .21.77.15.77.36z" fill="#ae917c"/><path d="m288 108.19v-27l-113 40.59v26.42c0 .19.83.08.83.27z" fill="#ad907b"/><path d="m288 108.1v-26.9c-12.56 4.5-100.44 36.07-113 40.58v26.41c0 .16.9 0 .9.17z" fill="#ac8f7b"/><path d="m288 108v-26.8l-113 40.58v26.39c0 .14 1-.06 1 .08z" fill="#ab8f7a"/><path d="m288 107.93v-26.73l-113 40.58v26.37c0 .12 1-.13 1 0z" fill="#ab8e79"/><path d="m288 107.84v-26.64l-113 40.58v26.36c0 .09 1.09-.2 1.09-.11z" fill="#aa8d79"/><path d="m288 107.76v-26.56l-113 40.58v26.34c0 .07 1.16-.27 1.16-.2z" fill="#a98c78"/><path d="m288 107.67v-26.47l-113 40.58v26.33s1.22-.35 1.22-.3z" fill="#a88c77"/><path d="m288 107.58v-26.38l-113 40.58v26.31s1.28-.41 1.28-.39z" fill="#a78b77"/><path d="m62.01 216.85v-135.65l112.99 40.58v135.65z" fill="url(#c)"/><path d="m62 112.78v-31.58l113 40.58v28.81s-.08 2.74-.13 2.72z" fill="#aa8c78"/><path d="m62 112.61v-31.41l113 40.58v28.78c-.08 0-.17 2.57-.25 2.53-3.51-1.25-109.24-39.23-112.75-40.48z" fill="#aa8c78"/><path d="m62 112.43v-31.23l113 40.58v28.74c-.13 0-.25 2.4-.38 2.36z" fill="#a98b77"/><path d="m62 112.26v-31.06l113 40.58v28.71c-.17-.06-.34 2.23-.51 2.17z" fill="#a98b77"/><path d="m62 112.09v-30.89l113 40.58v28.67c-.21-.07-.42 2.06-.64 2z" fill="#a88a76"/><path d="m62 111.91v-30.71l113 40.58v28.64c-.25-.09-.51 1.89-.76 1.8z" fill="#a78a76"/><path d="m62 111.74v-30.54c12.56 4.5 100.44 36.07 113 40.58v28.6c-.3-.1-.59 1.73-.89 1.62z" fill="#a78975"/><path d="m62 111.57v-30.37l113 40.58v28.57c-.34-.12-.68 1.55-1 1.43z" fill="#a68975"/><path d="m62 111.39v-30.19l113 40.58v28.53c-.38-.13-.76 1.39-1.15 1.25z" fill="#a58874"/><path d="m62 111.22v-30c17.94 6.44 95.06 34.13 113 40.58v28.5c-.42-.15-.85 1.22-1.27 1.06z" fill="#a58874"/><path d="m62 111.05v-29.85l113 40.58v28.46c-.47-.16-.93 1-1.4.88z" fill="#a48773"/><path d="m62 110.87v-29.67l113 40.58v28.43c-.51-.18-1 .88-1.53.7z" fill="#a48773"/><path d="m62 110.7v-29.5l113 40.58v28.39c-.55-.19-1.1.71-1.65.52z" fill="#a38672"/><path d="m62 110.53v-29.33l113 40.58v28.36c-.59-.21-1.19.54-1.78.33z" fill="#a28672"/><path d="m62 110.35v-29.15l113 40.58v28.32c-.64-.22-1.27.38-1.91.15z" fill="#a28571"/><path d="m62 110.18v-29l113 40.58v28.29c-.68-.24-1.36.2-2 0z" fill="#a18571"/><path d="m62 110v-28.8l113 40.58v28.22c-.72-.25-1.44 0-2.16-.22z" fill="#a08470"/><path d="m62 109.84v-28.64l113 40.58v28.22c-.76-.27-1.53-.13-2.29-.41z" fill="#a08470"/><path d="m62 109.66v-28.46l113 40.58v28.22c-.81-.28-1.61-.3-2.42-.59z" fill="#9f836f"/><path d="m62 109.49v-28.29l113 40.58v28.15c-.85-.3-1.7-.47-2.54-.78z" fill="#9f836f"/><path d="m62 109.32v-28.12l113 40.58v28.11z" fill="#9e826e"/><path d="m62 109.23v-28l113 40.58v26.61c0 .47-.06.92-.06 1.4z" fill="#9d816d"/><path d="m62 109.14v-27.94l113 40.58v26.59c0 .45-.13.86-.13 1.31z" fill="#9c806c"/><path d="m62 109.06v-27.86l113 40.58v26.58c0 .42-.19.78-.19 1.21z" fill="#9b806c"/><path d="m62 109v-27.8l113 40.58v26.56c0 .4-.26.71-.26 1.12z" fill="#997f6b"/><path d="m62 108.88v-27.68l113 40.58v26.55c0 .37-.32.64-.32 1z" fill="#987e6a"/><path d="m62 108.8v-27.6l113 40.58v26.53c0 .36-.39.57-.39.93z" fill="#977d69"/><path d="m62 108.71v-27.51l113 40.58v26.51c0 .34-.45.51-.45.84z" fill="#967d69"/><path d="m62 108.62v-27.42l113 40.58v26.5c0 .31-.51.43-.51.74z" fill="#957c68"/><path d="m62 108.54v-27.34l113 40.58v26.48c0 .29-.58.36-.58.65z" fill="#947b67"/><path d="m62 108.45v-27.25l113 40.58v26.47c0 .26-.64.29-.64.55z" fill="#937a66"/><path d="m62 108.36v-27.16c17.94 6.44 95.06 34.13 113 40.58v26.45c0 .24-.71.22-.71.46z" fill="#917a66"/><path d="m62 108.28v-27.08l113 40.58v26.44c0 .21-.77.15-.77.36z" fill="#907965"/><path d="m62 108.19v-27l113 40.58v26.43c0 .19-.83.08-.83.27z" fill="#8f7864"/><path d="m62 108.1v-26.9c12.56 4.5 100.44 36.07 113 40.58v26.41c0 .16-.9 0-.9.17z" fill="#8e7763"/><path d="m62 108v-26.8l113 40.58v26.39c0 .14-1-.06-1 .08z" fill="#8d7763"/><path d="m62 107.93v-26.73l113 40.58v26.37c0 .12-1-.13-1 0z" fill="#8c7662"/><path d="m62 107.84v-26.64l113 40.58v26.36c0 .09-1.09-.2-1.09-.11z" fill="#8b7561"/><path d="m62 107.76v-26.56l113 40.58v26.34c0 .07-1.16-.27-1.16-.2z" fill="#897460"/><path d="m62 107.67v-26.47l113 40.58v26.33s-1.22-.35-1.22-.3z" fill="#887460"/><path d="m62 107.58v-26.38l113 40.58v26.31s-1.28-.41-1.28-.39z" fill="#87735f"/><path d="m62.01 81.81v-.61l112.99 40.58 112.99-40.58v.61l-112.99 41.19z" fill="#fff"/><path d="m175 36.96 116.8 41.95-116.8 41.95-116.8-41.95z" fill="#eac5ab"/><path d="m291.8 105.92v-27.01l-116.8 41.95v27.01z" fill="url(#d)"/><path d="m58.2 105.92v-27.01l116.8 41.95v27.01z" fill="url(#e)"/><path d="m176.57 120.29-1.57.57v27.01l1.57-.57z" fill="url(#f)"/><path d="m58.2 79.54v-.63l116.8 41.95 116.8-41.95v.63l-116.8 42.58z" fill="#f3d4bc"/><path d="m219.56 144.22 26.14-9.33c4-1.41 7.24 1.1 7.24 5.58 0 4.49-3.26 10-7.24 11.43l-26.14 9.32c-4 1.42-7.24-1.78-7.24-6.26 0-4.49 3.26-9.32 7.24-10.74z" fill="url(#g)"/><path d="m219.56 144.22 26.14-9.33c3.46-1.48 5.84 1.42 5.87 5.24 0 4.49-3.26 9.32-7.24 10.74l-26.15 9.32c-3.45 1.49-5.83-1.42-5.86-5.23 0-4.49 3.26-9.32 7.24-10.74z" fill="#5e5243"/><path d="m176.52 149.42-1.52.55v107.46l1.52-.55z" fill="url(#h)"/></g></svg>