<svg viewBox="0 0 300 300" xmlns="http://www.w3.org/2000/svg"><path d="m161.62 81.29v95.08l107.64 61.51v-94.45z" fill="#cdd4fc"/><path d="m161.62 82.35v94.45l107.64 61.04-.01-93.35z" fill="#9393d1"/><path d="m53.99 143.43v94.45l107.63-61.51v-95.08z" fill="#cdd4fc"/><path d="m53.99 144.49v93.39l107.63-61.07v-94.46z" fill="#8585c9"/><path d="m161.62 175.74-107.63 62.11 107.63 62.14 107.64-62.15z" fill="#6f6fbc"/><path d="m159.73 205.55v90.66l109.53-152.78-1.9-.03z" fill="#cdd4fc"/><path d="m53.98 142.3v94.45l107.63 62.15v-94.46z" fill="#cdd4fc"/><path d="m161.62 205.55v94.45l107.64-62.14v-94.43z" fill="#c0caf9"/><path d="m205.89 179.97v94.47l19.1-11.02v-94.47z" fill="#3db5c1"/><path d="m204.98 179.4.91.54 19.1-10.99-.91-.54z" fill="#5cd0d6"/><path d="m99.24 168.44-.99.53 19.1 11.01.98-.52z" fill="#5cd0d6"/><path d="m53.99 143.4v94.45l107.63 62.15v-94.46z" fill="#a3ace2"/><path d="m98.25 168.96v94.44l19.1 11.03v-94.45z" fill="#3db5c1"/><path d="m155.75 145.75-125.01-34.24 92.15-91.14 125.01 34.24z" fill="#e3e9ff"/><path d="m32.26 110.37 90.71-89.71 123.05 33.69-90.71 89.72z" fill="#cdd4fc"/><path d="m82.35 60.33-15.69 15.48 38.05 10.33 34.04 2.23 20.25 12.64 33.17 9.09 15.68-15.5-35.6-9.75-31.69-.73-23.32-14.34z" fill="#5cd0d6"/><path d="m177.44 35.41-24.42 24.3-13.83 26.52-22.83 9.74-31.1 30.76 21.27 5.83 22.15-21.92 11.79-20.12 26-21.7 32.23-27.61z" fill="#3db5c1"/><path d="m206.26 94.16-15.67 15.51 1.58.43 15.68-15.5z" fill="#68d8d8"/><path d="m86.44 125.56-1.18 1.17 21.27 5.83 1.18-1.17z" fill="#68d8d8"/><path d="m30.74 111.51 9.57 34.7 124.49 34.1-9.05-34.56z" fill="#9393d1"/><path d="m155.75 145.75 9.06 34.56 91.77-90.77-8.68-34.93z" fill="#c0caf9"/><path d="m82.53 125.93 8.98 34.29 22.09 6.05-8.99-34.29z" fill="#3db5c1"/><path d="m193.56 108.66 8.99 34.32 16.28-16.1-8.99-34.32z" fill="#3db5c1"/><path d="m102.9 75.64c-22.81-3-34.61-23.7-33.76-35.16.48-6.48.86-4.55-4.14-5.63-5.91 9.5-21.56 11.77-16.41 28.92 4.17 13.86 17.96 28.44 31.91 32.23s42.27-12 42.27-12l14.52-14.62s-19.71 8.2-34.39 6.26z" fill="#38909e"/><path d="m84.17 30.45c-7.33-2-33.32 17.36-33.32 17.36 3.37-3.33 9.4-4.37 16.37-2.46 14 3.82 55.52 38.71 55.55 38.73l14.52-14.62s-39.16-35.18-53.12-39.01z" fill="#7af4f4"/><path d="m89.6 23c-7.33-2-13.13-1-16.27 2.93-6.75 8.37-22.74 22.14-22.74 22.14a16.75 16.75 0 0 1 17.61-3.78c20.6 7.84 54.54 39.77 54.57 39.79l14.52-14.62a227.78 227.78 0 0 1 -22.29-20.73c-9.49-10.17-19-23.96-25.4-25.73z" fill="#5cd0d6"/><path d="m51.14 48a1.06 1.06 0 0 0 .15-.15z" fill="#ff7384"/><path d="m122.38 83.74c-1.67-1.43-41.18-35-55.06-38.76-6.88-1.88-12.67-.98-16.32 2.63s-4.58 9.39-2.77 16.25c3.69 14.14 18.13 28.69 32.18 32.54 4.34 1.19 9.93.53 15.61-1 12.55-3.29 25.52-10.64 26.3-11.09l.47-.27zm-41.78 11.93c-13.81-3.78-28-18.14-31.64-32-1.74-6.63-.81-12.15 2.6-15.53a11.3 11.3 0 0 1 5.17-2.87 20.28 20.28 0 0 1 10.39.44c13 3.55 50 34.58 54.36 38.25-3.71 2.04-28.22 15.18-40.88 11.71z" fill="#3db5c1"/><path d="m80.39 22.28-22.26 21.5a15.43 15.43 0 0 1 10.08.63 61.31 61.31 0 0 1 8 3.69l19.87-20.69a16.17 16.17 0 0 0 -15.69-5.13z" fill="#7af4f4"/><path d="m167.55 58.48c18.4-13.82 18.54-37.63 12.18-47.2-3.62-5.45-3-3.54.84-6.94 9.81 5.38 24.57-.31 28.48 17.16 3.17 14.12-1.69 33.59-12 43.77s-42.69 10.31-42.69 10.31l-19.81-5.58s21.16-2.63 33-11.52z" fill="#38909e"/><path d="m161.71 9.91c5.41-5.34 37.55-1.21 37.55-1.21-4.57-1.25-10.34.8-15.48 5.88-10.28 10.17-29.39 61-29.41 61l-19.82-5.58s16.87-49.91 27.16-60.09z" fill="#7af4f4"/><path d="m153.34 6.1c5.41-5.34 11-7.26 15.61-5.42 10 4 30.66 8.12 30.66 8.12a16.74 16.74 0 0 0 -17.19 5.34c-14.12 16.93-28 61.4-28 61.44l-19.87-5.58a228.43 228.43 0 0 0 9.22-29c3.32-13.56 4.87-30.25 9.57-34.9z" fill="#5cd0d6"/><path d="m199.12 9a1.17 1.17 0 0 1 -.2-.06z" fill="#ff7384"/><path d="m154.36 75.59h.53c.9 0 15.81.05 28.37-3.24 5.67-1.49 10.87-3.66 14.07-6.82 10.36-10.25 15.78-30.05 12.09-44.14-1.81-6.89-5.51-11.39-10.42-12.78s-10.4.68-15.48 5.7c-10.23 10.12-28.22 58.71-29 60.78zm1.08-.75c2-5.33 19.05-50.54 28.61-60a20.23 20.23 0 0 1 8.84-5.48 11.29 11.29 0 0 1 5.91 0c4.64 1.27 8.15 5.62 9.89 12.25 3.63 13.84-1.69 33.32-11.89 43.39-9.33 9.23-37.13 9.81-41.36 9.84z" fill="#3db5c1"/><path d="m161 .93 29.95 7.83a15.43 15.43 0 0 0 -8.48 5.49 60.79 60.79 0 0 0 -5.12 7.12l-27.5-8.27a16.2 16.2 0 0 1 11.15-12.17z" fill="#7af4f4"/><path d="m127.16 93 21.13-5.53 5.21-13.47-19.38-5.31a3.89 3.89 0 0 0 -3.77 1.29l-5.35 5.39c-2.77 2.74-4.1 8.54-3 12.89.62 2.38 1.87 3.82 3.32 4.21z" fill="#3db5c1"/><path d="m156.73 85.27a15.14 15.14 0 0 0 0-7c-1.14-4.35-4.34-5.67-7.11-2.93l-5.37 5.31c-1.95 1.93-3.17 5.38-3.33 8.78z" fill="#38909e"/><path d="m147.42 76.98 1.67-1.65-18.53-5.05-1.92 1.9z" fill="#5cd0d6"/><path d="m155.43 74.88c11.95 9.6 44.08 20.14 53.36 20.72.06 0 10.79 36.22-17.9 28.89-11.5-2.94-50-35.29-50-35.29s12.91-7.39 14.54-14.32z" fill="#38909e"/><path d="m209.22 107.9c-3.38-12.9-16.53-26.19-29.38-29.7s-38.91 11-38.91 11l13.43-12.76s31.29-17.31 44.14-13.79 23.89 11.95 27.27 24.83c1.67 6.39-18.54 35-18.54 35l-.41-.08c3.02-3.05 4.07-8.13 2.4-14.5z" fill="#7af4f4"/><path d="m209.46 105.65c-3.62-12.39-17.1-26.73-30.31-28.79-14.87-2.31-38.22 12.34-38.22 12.34l14.5-14.32s28.89-14.16 42.19-13.29c14 .91 29.44 10.34 32.82 23.23 1.67 6.39 1.27 13-1.77 16l-.07.07-21.37 21.61-.41-.08c3.02-3.07 5.12-8.32 2.64-16.77z" fill="#5cd0d6"/><path d="m192 125.21c-12.78-3.5-49-34.4-50.54-35.72l-.39-.33.45-.26c1-.59 25.59-14.57 38.44-11.05s26.23 17 29.63 30c1.67 6.36.75 11.68-2.58 15a11.13 11.13 0 0 1 -5.08 2.83 19.35 19.35 0 0 1 -9.93-.47zm-49.7-35.93c4 3.44 37.84 31.61 49.76 34.87 6.09 1.67 11.17.87 14.31-2.23s4-8.19 2.4-14.29c-3.35-12.76-16.32-25.6-29-29.08-3.81-1-8.77-.46-13.84.87-10.44 2.72-21.31 8.58-23.63 9.86z" fill="#3db5c1"/><path d="m212.82 65.72-18.82 19.1a64 64 0 0 0 -12.13-7.1l16.8-16a39.25 39.25 0 0 1 14.15 4z" fill="#7af4f4"/><path d="m121.38 83.8c-5.7 14.2-28.54 39.2-36.38 44.2-.05 0 8.37 36.86 29.77 16.4 8.58-8.2 26.23-55.27 26.23-55.27s-14.8-.13-19.62-5.33z" fill="#38909e"/><path d="m90.7 139c-3.37-12.89 1.57-30.93 11-40.3s39.3-9.53 39.3-9.53l-18-4.53s-35.76.26-45.23 9.62-15 22.13-11.58 35c1.67 6.39 33.32 21.42 33.32 21.42l.33-.26c-4.07-1.18-7.47-5.09-9.14-11.42z" fill="#7af4f4"/><path d="m89.38 137.11c-2.91-12.57 1.8-31.68 12.3-40 11.83-9.3 39.36-8 39.36-8l-19.66-5.31s-32.12 1.83-43.28 9.11c-11.76 7.66-20.59 23.45-17.21 36.34 1.67 6.39 5.24 11.91 9.4 13.1h.1l29.2 8.32.33-.26c-4.15-1.17-8.55-4.72-10.54-13.3z" fill="#5cd0d6"/><path d="m105.76 150.81a11.08 11.08 0 0 1 -5.8 0c-4.53-1.24-7.94-5.43-9.6-11.79-3.4-13 1.59-31.21 11.13-40.65s37.72-9.22 38.92-9.21h.52l-.18.48c-.69 1.9-17.1 46.6-26.52 55.91a19.35 19.35 0 0 1 -8.47 5.26zm8.73-57.92c-5.07 1.33-9.69 3.25-12.49 6-9.38 9.27-14.38 26.82-11 39.58 1.6 6.1 4.83 10.11 9.09 11.28s9.08-.64 13.57-5.07c8.79-8.7 24.42-49.81 26.27-54.8-2.69.05-15.04.28-25.44 3.01z" fill="#3db5c1"/><path d="m66.87 104 25.76 7.42a64.38 64.38 0 0 1 7.08-12.14l-22.5-5.74a39 39 0 0 0 -10.34 10.46z" fill="#7af4f4"/></svg>