<svg xmlns="http://www.w3.org/2000/svg" viewBox="0 0 300 300"><defs><style>.a{fill:#c7e5f7}.b{clip-path:url(#a)}.c{fill:#435790}.d{fill:#d93d64}.e{fill:#f6921e}.f{fill:#efbeb3}.g{fill:#db9b93}.h{fill:#bf4634}.i{fill:#b43053}.j{fill:#fff}.k{fill:#071826}.l{fill:#bbbdbf}.m{fill:#2f3541}</style><clipPath id="a"><path class="a" d="M271.8 45.38c26.2 33.89 23.09 75.73 19.73 121.22-2.13 28.93-4.42 55.05-23.49 78-16.29 19.6-36.05 26.33-64.84 35.71-44.61 14.53-105.94 34.51-151.33 2.69-24-16.82-33.71-41.22-36.95-49.7C-14.51 156.29 33.13 30.37 128 5c46.68-12.52 110.8-2.32 143.8 40.38z"/></clipPath></defs><path class="a" d="M271.8 45.38c26.2 33.89 23.09 75.73 19.73 121.22-2.13 28.93-4.42 55.05-23.49 78-16.29 19.6-36.05 26.33-64.84 35.71-44.61 14.53-105.94 34.51-151.33 2.69-24-16.82-33.71-41.22-36.95-49.7C-14.51 156.29 33.13 30.37 128 5c46.68-12.52 110.8-2.32 143.8 40.38z"/><g class="b"><path class="c" d="M187.54 268.19s3.54 53.45 10.14 111.68S211 546.44 211 551.6s-28.77 7.37-31.71 0S155 432.94 151 417.46s-9.64-79.6-14.59-79.6-10.36 93.6-15 115.71-19.24 99.84-22.64 102.77c-2.2 1.89-23.3-1.05-26.63-8.42S80.49 424 80.05 371c-.18-22.28.44-102.83.44-102.83z"/><path class="d" d="M170.49 131.28s15.31 15.07 16.94 35.45 2 79.25 4.17 102.79 9.27 60.67 2 66.85-24.26 18.41-53.64 9.85-60.31-1.83-64.41-15.89-2.26-78.87-2.87-110S65.61 136.58 101 128z"/><path class="e" d="M108.27 55s-10.19-3.37-15.69 0-5.5 11.55-10.08 13.4-13.14-3.29-19.25 4.48 4 15.1 6.11 18.46-1.53 17 13.75 20 16.59-9 19.6-9.77 13.37.44 16.77-8.8-5.06-12.34 0-22.58-.41-17.96-11.21-15.19z"/><path class="f" d="M145.45 87.84s0 27 4.89 33 20.15 10.48 20.15 10.48-4.86 29.88-25 30.12S104.12 143.3 101 128c0 0 19.58-3.77 20.43-6.47S114 70 114 70z"/><path class="g" d="M118.63 99C116.5 85.1 114 70 114 70l31.5 17.81s0 7 .65 14.6A56.33 56.33 0 0 1 118.63 99z"/><path class="h" d="M106.34 59.25s-7.34 1.94-4.89 10.91 13.22 8.18 14.09 4.75-9.2-15.66-9.2-15.66z"/><path class="f" d="M148.82 27.78c17.34 3.72 20.47 14.67 20.47 37.59s-7 32.7-12.83 33-34.84-8.83-42.18-26-6.72-53.46 34.54-44.59z"/><path class="e" d="M168.46 49.8c5.32-9.19.22-24.16-15.54-28.75s-40.47-3.66-48.11 18 7.64 41.26 13.17 39.4 5.17-30.81 16.17-34.45 18.77-15.08 18.77-15.08a22.42 22.42 0 0 1 10 6.38c3.74 4.37 5.54 14.5 5.54 14.5z"/><path class="i" d="M92.35 265.38c8 0 16.83-6.14 26.18-12.63 4-2.74 8-5.57 12.11-7.95 6.69-3.92 10.28-8.46 13.46-12.46 3.61-4.56 6.74-8.5 13.58-10.88 13.93-4.87 17.74-21.91 17.89-22.63l-2.39-.52c0 .17-3.68 16.43-16.31 20.84-7.51 2.62-11 7-14.69 11.67-3.19 4-6.48 8.18-12.78 11.87-4.14 2.43-8.27 5.29-12.26 8.05-9.42 6.53-18.32 12.73-25.71 12.16l-.18 2.44c.36.02.75.04 1.1.04zm7.78 39.95c.16-.08 16-7.35 29.83-6.67 15.62.8 30.3-5.56 37.66-9.42l-1.13-2.17c-5.76 3-20.84 9.91-36.41 9.15-14.46-.76-30.31 6.58-31 6.89z"/><path class="f" d="M122.49 68.28s-6.26-14.4-11.79-9 .07 16.1 9.77 16c0-.08 3.14-1.96 2.02-7z"/><path class="j" d="M101 128s5.92 146.08 0 148.22-42.9-4.89-44.43-10.39 2.84-26.28 4.78-49.51c0 0-5.08 24.75-19.14 24.14s-20.78-17.42-5.5-47.37S69.89 135.66 101 128zm69.49 3.28s21.95-.38 34.92 19 48.73 48.31 43.32 69.35c-7 27.13-43.32 2.56-43.32 2.56s2.1 35.45 0 39.52-21.65 6.93-29 0-5.92-130.43-5.92-130.43z"/><path class="g" d="M156.24 54.37s3.42 5.16 6.26 6.24c5 1.91 5.2 6.07 0 6.07s-7.43-3.22-6.26-12.31z"/><path class="k" d="M144.33 52.07a2.3 2.3 0 1 1-2.29 2.3 2.3 2.3 0 0 1 2.29-2.3zm22.19 0a2.3 2.3 0 1 1-2.3 2.3 2.3 2.3 0 0 1 2.3-2.3z"/><path class="e" d="M137.14 45.45c-.42 2.34 1.86.23 5.51 0 2.3-.14 4.95 1.34 5.61 0 .86-1.73-1.94-3.46-4.86-3.46s-5.96 1.73-6.26 3.46zm33.56 0c.31 2.34-1.37.23-4.06 0-1.7-.14-3.66 1.34-4.14 0-.64-1.73 1.43-3.46 3.58-3.46s4.4 1.73 4.62 3.46z"/><path class="g" d="M162.38 75.86s-8.51-.2-13.89-3.67c0 0 2 7.34 6.94 7.13a8.57 8.57 0 0 0 6.95-3.46z"/><path class="l" d="M205.42 223.37a1.7 1.7 0 0 0 1.29-.63c2.81-3.21 4.64-29.64 3.52-36.74-1.28-8.14-9.86-35-10.23-36.13l-2.33.75c.09.27 8.89 27.8 10.14 35.77 1.09 6.89-.52 26-2.14 32.58-.14-2.18-.1-5.51-.06-8.38.08-6.66.18-15-1.1-20.5-2.45-10.59-6.51-29-6.51-29l-2.39.53s4.07 18.38 6.52 29c1.21 5.25 1.11 13.39 1 19.92-.11 9-.15 12.74 2.22 12.81zM61 217.66a1.7 1.7 0 0 0 1-.33c3.31-2.42 14.26-43 16.42-67l-2.42-.2c-1.93 21.55-10.69 54.28-14.34 63.11.2-6.23 2.74-22.19 5.26-30.23 2.95-9.44 6-26.79 6.14-27.52l-2.41-.43c0 .18-3.16 17.93-6.07 27.21-1.91 6.13-7.36 33-4.41 35.11a1.45 1.45 0 0 0 .83.28z"/><path class="k" d="M76 147.6c3-2.79 27.22-8.56 29.93-4.25s9.6 51 7.95 56-28.88 5.74-30.39 4.34-9.73-54.01-7.49-56.09z"/><path class="m" d="M92.9 148.68c-.39-2.74 1.55-2.6 5-3.2s5.08-.38 5.49 1.71-2.41 2.18-5 2.4-5.11 1.79-5.49-.91z"/><path class="f" d="M74.55 165c2.61-3.69 19.26-11.92 22.62-9.17s-6.42 4.58-11.31 9.17-4.89 4 2.75 3.05 12.23-.82 10.7 2.49-15.89 4.24-17.12 6.68 18-2.44 17.41 1.83-16.18 3.06-17.71 5.51 4.24.91 9.45 2.13 9.19 7.95 6.74 8.56-7-3.05-11-3.05-.59 8.55-12.53 8.55c-3.36 0-16.5 44.95-32.09 45.7s-17.11-15.16-6.72-26.15 30.87-31.47 32.7-34.83.92-13.14 6.11-20.47z"/><path class="i" d="M147.74 172.92a23.1 23.1 0 0 0 20.42-12.25l-2.21-1a20.24 20.24 0 0 1-19.28 10.81c-14.15-.62-31.71-16.9-31.89-17.06l-1.67 1.78c.75.7 18.41 17.06 33.46 17.72h1.17z"/><path class="f" d="M250.26 148.61c.9-2.77-.76-6.07-1-11.56s1.25-6.5 1-10.7-4.18-11.34 0-11c3.33.29 7.08 2.6 6.65 12.14 0 0 10.12-31.65 12.58-26.74s-4.2 23.66-4.2 23.66 8.53-27 11.86-25.25-5.06 26.88-5.06 26.88 9.54-20.07 11.85-17.55-7.52 22.76-7.52 22.76 10.71-13.59 11.57-8.67-10.41 14-11 15-2.89 9.83-6.36 12.43a50.32 50.32 0 0 0-7.37 6.36c-.72 1-14 58-18.79 65.33s-12.22 6.79-17.24 6.65-7.33-14.31-3.72-26.89 25.63-49.38 26.75-52.85z"/><path class="g" d="M265.38 147.48c3.45-17.16-8.15-20.77-8.26-20.8l-.49 1.66c.41.13 10.18 3.25 7.05 18.8z"/></g></svg>