<svg xmlns="http://www.w3.org/2000/svg" viewBox="0 0 300 150"><defs><style>.a{fill:#dcd7fe}.b{fill:#361f39}.c{fill:#fff}.d{fill:#f09442}.e{fill:#efbeb3}.f{fill:#db9b93}.g{fill:#c96951}.h{fill:#652d90}.i{fill:#ec297b}.j{fill:#e02424}</style></defs><path class="a" d="M107.88 13.61c33.9 14.16 32.49 38.84 24.73 68.93s6 54.13 18.5 57.06c0 0-17.82 2.06-28.92-6.79S94.74 137.45 64.38 122 10.6 76.34 33.93 39s51.21-34.9 73.95-25.39z"/><path class="b" d="M132.56 82.21c-.13-1.95-5.45-5.23-7.67-5.72s-2.48 1.73-2.48 2.1-4.83.87-5.32 5-4.21 12.13-6.19 12.38-7.55-10.4-10-12.87c-2.32-2.33-3.78-8.32-8.73-13.53a9.79 9.79 0 0 0-1.39-1.33c-.22-.18-.43-.33-.64-.47h-.06l-.16-.1c-2.92-1.88-7.57-3.11-15.21-3.48-8-.37-16.63 2-21.58 9.41s-3 24.25-5 29.45c-.86 2.26-.83 5.12-.58 8.23A96.85 96.85 0 0 0 64.38 122c15.88 8.09 27.93 8.25 37.39 7.83A7.47 7.47 0 0 0 103 122c-.21-.61-.43-1.39-.66-2.31 4.44 2.75 8.42 2 12.26 1.69 5.45-.5 13.25-16.71 15.72-21.91s2.23-10.64 2.23-12.86.13-2.45.01-4.4z"/><path class="c" d="M101.86 119.8c0-.13-2.23-13.24-4.19-23.79S94 76.19 94 76.19l1-.19s1.71 9.13 3.69 19.82 4.17 23.67 4.19 23.81z"/><path class="d" d="M85.48 81.93c-4.43 0-19-14.1-24.69-14.85s-2.48-5.69 0-5.69.49-5.27 4.95-6.22 10.16 5 18 5.25 5.92 4.93 6 6.17 2.32 3.46 2.06 5.94-3.35 9.4-6.32 9.4z"/><path class="e" d="M71.57 41s1.35 19.47-.73 23.87c0 0 9.79 14.09 15.38 14.09 1.67 0-2.42-15.18-2.42-15.18s-.93-7.38 2.2-10.7A32.47 32.47 0 0 0 71.57 41z"/><path class="f" d="M85.24 54.16C81.66 52.79 78 51 76.43 48.84 73.61 45 77.81 57 83.69 60.42a13.39 13.39 0 0 1 1.55-6.26z"/><path class="e" d="M73.62 25.48c-6.21 4.88-2.38 15.55.45 20.86s8.15 10.21 12.43 8.46S97 45 95.55 34.46s-10.88-17.65-21.93-8.98z"/><path class="b" d="M73.62 25.48s1.37 3.74 8.12 2 8.55 4.13 15.52 1.57 7.26-9.43 2.73-9.31-4.6-5.84-10.13-5.56-6.72 2.29-9.92 1.71-6.6-.74-10.25 2.71S68 26 66.94 27.94s-3.37 1.78-4.4 6.61 6.86 14.38 9.13 14.35S75.1 31 73.62 25.48z"/><path class="e" d="M74.36 41.06s-3.85-7.29-5.71-3.26 4.94 5.73 4.94 5.73z"/><path class="b" d="M84.56 34.63a.93.93 0 1 1-.93.93.93.93 0 0 1 .93-.93zm-2.91-2.69c-.17.95.76.09 2.24 0 .93-.06 2 .54 2.27 0 .35-.7-.78-1.4-2-1.4s-2.38.7-2.51 1.4zm13.59.06c.12.95-.55.09-1.64 0-.69-.06-1.48.54-1.68 0-.25-.7.58-1.4 1.46-1.4a2 2 0 0 1 1.86 1.4zm-3.5 13.39A24.64 24.64 0 0 0 83.21 43s-1.21 4.24 2.13 5.77 6.4-3.38 6.4-3.38z"/><path class="c" d="M86.16 43.45a3.72 3.72 0 0 0 1.89 1.81 3.45 3.45 0 0 0 3.09-.16 24.45 24.45 0 0 0-4.98-1.65z"/><path class="g" d="M83 45.45a3.9 3.9 0 0 0 2.31 3.32 3.25 3.25 0 0 0 2.44.11c-.87-3.04-2.91-3.62-4.75-3.43z"/><path class="f" d="M88.1 35.29l.33 3.3c-1.09.68-2 1.61.24 2.46s2.33-1.34-.57-5.76z"/><path class="b" d="M93.54 34.65a.94.94 0 0 1 .93.93.93.93 0 1 1-.93-.93z"/><path class="c" d="M108.2 110.76c-.48 0-1-.56-2.22-4.16-2.4-6.89 1.11-8.95 3.43-10.32a10.77 10.77 0 0 0 1.19-.76l.6.79a14.48 14.48 0 0 1-1.29.83c-2.29 1.34-5.13 3-3 9.13a29.73 29.73 0 0 0 1.11 2.86c0-.89-.09-2.29-.16-3.32l-.08-1.2a9.57 9.57 0 0 1 2.12-6.56l.74.66a8.71 8.71 0 0 0-1.87 5.84l.08 1.2c.26 3.85.25 4.84-.49 5z"/><path class="e" d="M128.73 112.66c.54-1.25-7.82-4.28-7.82-4.28 8.05 1 10.81-3 8.65-3.16s-12.34 0-13.72-.19c-2.48-.37-8.82 6.55-10.24 6.57l.91 7.09c3.75.44 7-2.74 7-2.74 2 2.44 4 4.26 5 3.69s-2.6-5.8-2.6-5.8c4.66 4.11 7.18 3.37 8.29 3.14S118 111 118 111c5.5 2.19 10.18 2.92 10.73 1.66z"/><path class="b" d="M54.13 72.14c6.66-5.06 9.13.88 11.36 13.26s3.29 19.3 5.35 22.27 18.66 2.89 23.63 0 8.88 2.91 9.87 2.2 2.6-.71 2.85 2.26 1.11 7.79 0 8.41-2.23-.25-2.6 0-1.36 4.7-7.67 4.46-17.82 2.59-26.61.86-13.85-3.09-15.59-9.65-4.66-20.22-5-29.85 4.41-14.22 4.41-14.22z"/><path class="c" d="M76.88 126.92a35.14 35.14 0 0 1-6.66-.57c-8.72-1.72-14.16-3.13-16-10l1-.26c1.67 6.33 6.62 7.6 15.21 9.3 5.45 1.07 12 .36 17.69-.27a66 66 0 0 1 8.84-.61c5 .21 6.41-2.68 7-3.76a1.42 1.42 0 0 1 .42-.61 1.3 1.3 0 0 1 1.11 0 2 2 0 0 0 1.52 0c.59-.33.17-4 0-5.83-.09-.75-.17-1.47-.22-2.11-.1-1.15-.42-1.9-.9-2.12a1.23 1.23 0 0 0-1.17.22c-.6.44-1.34-.09-2.36-.81-1.77-1.26-4.45-3.17-7.55-1.36-4.86 2.83-21.92 3.24-24.28-.15-1.92-2.75-2.94-8.46-4.79-18.82L65 85.49l1-.18.63 3.69c1.76 9.89 2.83 15.85 4.62 18.43s18.21 2.62 23-.15c3.66-2.12 6.77.09 8.63 1.41a5.11 5.11 0 0 0 1.29.79 2 2 0 0 1 2.07-.29c.58.26 1.31 1 1.47 2.93.06.64.14 1.35.22 2.09.43 3.83.62 6.2-.47 6.8a2.86 2.86 0 0 1-2.26.11l-.3-.08-.09.18c-.62 1.24-2.28 4.52-7.88 4.31a64.3 64.3 0 0 0-8.69.61 107.26 107.26 0 0 1-11.36.78z"/><path class="c" d="M62.11 117.51a1.27 1.27 0 0 1-.52-.1 1.31 1.31 0 0 1-.87-1.31c.06-2 3.87-5.31 9.44-7.2l.31.94c-5.68 1.92-8.73 5.12-8.76 6.29 0 .16 0 .27.25.37.82.32 4.1-2.11 6.27-3.72 3.5-2.61 5.72-4.17 7-3.86l-.23 1c-.89-.22-3.93 2-6.15 3.69-3.23 2.39-5.4 3.9-6.74 3.9z"/><path class="e" d="M145.55 62.5c-.49-2.8-6.6 5-6.6 5s5.61-11.55 4.29-13-6.77 10-6.77 10 4.79-14.35 2.89-15.34c-1.45-.76-4.65 8.09-6.06 12.28 1-3.27 2.69-9.36 1.69-11.38-1.4-2.8-7.18 15.27-7.18 15.27.25-5.45-1.9-6.77-3.79-6.93-2.39-.21-.17 3.87 0 6.27s-.69 3-.55 6.1 1.08 5 .57 6.6l7.4 4.45a29.6 29.6 0 0 1 4.21-3.63c2-1.48 3.3-6.51 3.63-7.09s6.72-5.79 6.27-8.6z"/><path class="f" d="M132.67 76.7l-1-.19c1.78-8.88-3.79-10.66-4-10.73l.28-1c.05.07 6.69 2.13 4.72 11.92z"/><path class="c" d="M131 85.9c-3.8 0-7.68-5.64-7.84-5.89l.82-.55c0 .05 3.81 5.59 7.15 5.44l.05 1zM103.5 117h-1c0-5.1 1.36-7.31 1.42-7.4l.83.52-.42-.26.42.26s-1.25 2.12-1.25 6.88z"/><path class="a" d="M192.12 23.8c-33.9 14.2-32.49 38.85-24.73 68.93s-6 54.13-18.5 57.06c0 0 17.82 2.06 28.92-6.79s27.45 4.65 57.81-10.81 53.78-45.66 30.45-83-51.21-34.9-73.95-25.39z"/><path class="h" d="M260.17 103.74c-2.15-5.11-4.46-20-8.75-22.77S240 78.11 240 78.11s-19.76-.17-24.58-1.1c-8-1.53-11.39 4.62-18.65 10.4s-20 7-18.31 14.08 14.85 7.1 25.9-2a6.75 6.75 0 0 0 0 7.08c2.31 3.62 3.72 11.2 3.43 15.49-.23 3.37-2.72 13.1-3.46 18.09 8.41-.1 18.62-1.52 31.25-7.95a101 101 0 0 0 12.72-7.7c-.11-1.26-.22-2.11-.22-2.11s5.94 4.79 12.87 1.49 1.36-15.02-.78-20.14z"/><path class="i" d="M236.74 42.2s6.43-.75 5.77 10c-.6 9.79 8.75 18.52 2 24.33s-34.15 1.59-36.29-4.65 5.66-13.64 7.92-19.68 3.55-10.74 3.55-10.74z"/><path class="e" d="M224.92 61.67s-1 12-3.19 14-6.27 1.33-6.27 1.33.16 11.22 10.23 11.88S240 78.11 240 78.11s-6.43-.08-6.93-2.82 1.07-20.47 1.07-20.47z"/><path class="f" d="M223.72 70.16c3.47-1.92 8.14-5.46 8.25-10.69 0-1.33-.27-2.08-.79-2.43l-6.26 4.63s-.4 4.53-1.2 8.49z"/><path class="c" d="M204.4 100a.43.43 0 0 1-.19 0 .49.49 0 0 1-.3-.5s.49-5.42.82-9.49.89-8.5.89-8.55l1 .13s-.56 4.49-.89 8.5c-.19 2.29-.42 5-.6 7 1.65-4.77 2.21-14.07 2.21-14.19l1 .06c0 .56-.82 13.76-3.54 17a.49.49 0 0 1-.4.04zm43.65 15.16a.62.62 0 0 1-.38-.13c-1.48-1.06-3.19-14-3.34-19.36a34.62 34.62 0 0 1 1.51-11.08l.94.32a34 34 0 0 0-1.46 10.73c.16 6 1.67 15.45 2.62 18 .34-2.67-.11-11.86-.47-15.11-.33-3-.33-8.3-.33-8.53h1c0 .06 0 5.51.32 8.42 0 .15 1.4 15.8-.08 16.66a.62.62 0 0 1-.33.08zm-8.73 8.21c-3.87-.49-8-2.53-11.72-4.33-2.88-1.41-5.6-2.74-7.68-3.1-5-.84-10.22-6.51-10.44-6.75l.73-.67c0 .06 5.24 5.66 9.87 6.45 2.23.37 5 1.74 7.95 3.18 3.61 1.77 7.71 3.77 11.41 4.24zm-22.45 7.32c-1.42 0-2.39-.05-2.49-.06l.05-1a47.14 47.14 0 0 0 10.38-.65 29.22 29.22 0 0 1 10.05 0l-.17 1a29.08 29.08 0 0 0-9.66 0 39.57 39.57 0 0 1-8.16.71zM262.49 116a6.12 6.12 0 0 0-4.87-4.49c-4-.61-7.12 2.78-7.15 2.81l-.73-.66c.14-.16 3.51-3.82 8-3.13s5.67 5.2 5.68 5.24z"/><path class="e" d="M229.13 115c-2.33-1.8-2.41-5.36-2.41-5.36-2.48.24-4.57.19-4.83-.69s4.63-1.81 4.63-1.81c-4.85-.26-5.85-2-6.35-2.79s6.71.08 6.71.08c-4.22-1.79-7.23-3.94-6.85-4.93s6.7 1.88 6.7 1.88c-5-3.83-4.4-7.56-3.1-6.49s6.88 6.75 7.76 7.4c1.59 1.14 1.34 8.47 2.12 9.26S250.1 114 258.73 114c3.78 0 5.95 6.43 3 9.2s-17.25 3.65-32.6-8.2z"/><path class="c" d="M192.3 104.41l-.72-.68s1.46-1.61 1.77-5.31c.3-3.53-4.31-5.08-4.35-5.1l.31-.94c.22.07 5.39 1.82 5 6.12-.31 4.09-1.94 5.84-2.01 5.91z"/><path class="e" d="M173.63 52.08c-2.39 0 6.77 8.15 6.77 8.15a6.66 6.66 0 0 0-.8 4.67 7.55 7.55 0 0 0 2.47 3.7 7.64 7.64 0 0 0 3.7 2.47c3 .65 5.62-1.79 6-2.14l2.46-6.56s-1.49-4.74-7.55-5.09S182 57 182 57s-6.08-4.87-8.37-4.92z"/><path class="e" d="M191.78 69s-1 16.76 0 24.68-2.82 14.93-9.49 10.91c-8.41-5.09 2.68-33.8 2.68-33.8zm2.56-3.26c1.35-2.09.19-5.15-2.41-6.78s-4.94-.13-7.72-.52-.47 4.14 2.75 3 1.63 2.05 2.78 4.13 1.98 4.23 4.6.17z"/><path class="f" d="M193.1 66.84a4.27 4.27 0 0 1-2.86-1.3 6 6 0 0 1-1.2-2.36c-.21-.67-.4-1.26-.73-1.36s-.66.07-1.21.43a3.53 3.53 0 0 1-4.23-.25 1.87 1.87 0 0 1-.83-2 1.52 1.52 0 0 1 1.44-.94h.15s.86.1 3.94-1.27l.28.88c-3 1.32-4.08 1.38-4.42 1.35s-.51.16-.53.22.09.54.57.94a2.7 2.7 0 0 0 3.21.23 2.39 2.39 0 0 1 2-.55c.72.23 1 1 1.25 1.89a5.35 5.35 0 0 0 1 2 3.53 3.53 0 0 0 2.28 1z"/><path class="e" d="M227.67 40.15c-10.36-1.52-12.71 6.17-13.2 14.59s2 12.21 5.44 12.21c5 0 12.21-4.15 14.69-13.5 2.1-7.93.49-12.21-6.93-13.3z"/><path class="i" d="M236.74 42.2a13.56 13.56 0 0 0-11.82-8.2c-9-.53-11.77 9.83-11.77 9.83s4.29 3.36 16.66 4.42l2.19-4.44a28.47 28.47 0 0 0 1.24 11.73l.53 4.65S249 44.42 236.74 42.2z"/><path class="e" d="M233.21 55.54s4-5.85 4.36-2.09-5.6 6-5.6 6z"/><path class="b" d="M226.54 48.5a.93.93 0 1 0-.45 1.8.91.91 0 0 0 1.12-.67.92.92 0 0 0-.67-1.13zm3.46-1.88c-.07 1-.75-.1-2.16-.55-.89-.28-2.08 0-2.2-.56-.17-.76 1.1-1.16 2.25-.87s2.19 1.27 2.11 1.98zm-13.15-3.34c-.35.89.52.22 1.6.4.68.12 1.3.89 1.62.42.42-.62-.22-1.51-1.06-1.72a2 2 0 0 0-2.16.9zm.06 13.86a24.56 24.56 0 0 1 8.86-.21s.15 4.43-3.5 5.07-5.36-4.86-5.36-4.86z"/><path class="c" d="M222.8 56.65a3.78 3.78 0 0 1-2.28 1.29 3.46 3.46 0 0 1-3-.93 24.76 24.76 0 0 1 5.28-.36z"/><path class="g" d="M225.34 59.36a3.91 3.91 0 0 1-3.07 2.64 3.19 3.19 0 0 1-2.39-.5c1.63-2.72 3.74-2.77 5.46-2.14z"/><path class="f" d="M220.31 48.82l-.94 3.18c.95.86 1.67 2-.69 2.36s-2.07-1.74 1.63-5.54z"/><path class="b" d="M217.83 46.29a.93.93 0 0 0-1.12.68.91.91 0 0 0 .67 1.12.93.93 0 0 0 1.13-.67.94.94 0 0 0-.68-1.13z"/><path class="j" d="M140.51.46c-13.43 2.23-15 11.26-14.76 22.77s-6.76 19-11.52 19c0 0 6.26 2.25 11 0s9.51 4 21.77 1 23.3-11.89 18-27.33S149.53-1 140.51.46z"/><path class="c" d="M138.21 16.07h-.29c-1.76-.11-2.86-1.49-2.79-3.53.07-2.48 2-5.93 4.9-5.93a3.87 3.87 0 0 1 3.75 4.59c-.45 2.35-2.78 4.87-5.57 4.87zM140 8.86c-1.34 0-2.6 2.09-2.65 3.74 0 1.17.49 1.2.68 1.21a3.79 3.79 0 0 0 3.5-3A1.58 1.58 0 0 0 140 8.86zm10.65.55c-.82-.49-4.11 5.13-8.28 11.71s-8.25 13.62-8.28 14.41 2.23 2.48 3.35 2.3 6.14-8.59 9.36-13.69 6.65-10.69 6.81-11.93-2.96-2.8-2.96-2.8zm-3 30.45a3.29 3.29 0 0 1-2.4-1c-.94-1-1-2.75-.14-4.76s2.48-4.1 4.64-4.1a3.19 3.19 0 0 1 1.67.48c2.51 1.57 1.87 3.6.93 5.72s-2.89 3.66-4.7 3.66zm2.1-7.61c-.8 0-1.93 1.18-2.57 2.68-.55 1.32-.45 2.18-.32 2.32a1 1 0 0 0 .79.36c.9 0 2.06-1 2.64-2.33 1-2.23.75-2.38-.06-2.88a.9.9 0 0 0-.48-.15z"/></svg>
