<svg viewBox="0 0 300 300" xmlns="http://www.w3.org/2000/svg" xmlns:xlink="http://www.w3.org/1999/xlink"><pattern id="a" height="16" patternTransform="matrix(.41 0 0 .41 -21.39 131.35)" patternUnits="userSpaceOnUse" viewBox="0 0 16 16" width="16"><path d="m0 0h16v16h-16z" fill="none"/><circle cx="8" cy="8" fill="#ffb754" r="2"/></pattern><linearGradient id="b" gradientUnits="userSpaceOnUse" x1="142.76" x2="158.98" y1="42.65" y2="82.79"><stop offset="0" stop-color="#a68a76"/><stop offset="1" stop-color="#8f7866"/></linearGradient><linearGradient id="c" gradientUnits="userSpaceOnUse" x1="181.66" x2="219.29" y1="41.98" y2="41.98"><stop offset="0" stop-color="#8f7866"/><stop offset="1" stop-color="#75604f"/></linearGradient><linearGradient id="d" x1="211.56" x2="224.23" xlink:href="#c" y1="35.35" y2="63.8"/><linearGradient id="e" gradientUnits="userSpaceOnUse" x1="172.56" x2="220.83" y1="156.06" y2="349.65"><stop offset="0" stop-color="#c7a58d"/><stop offset="1" stop-color="#b99983"/></linearGradient><linearGradient id="f" x1="119.97" x2="77.97" xlink:href="#c" y1="165.13" y2="168.81"/><linearGradient id="g" x1="47.65" x2="102.61" xlink:href="#b" y1="155.22" y2="168.92"/><linearGradient id="h" x1="85.17" x2="86.71" xlink:href="#b" y1="258.8" y2="236.72"/><linearGradient id="i" gradientUnits="userSpaceOnUse" x1="111.76" x2="103.55" y1="224.77" y2="-10.37"><stop offset="0" stop-color="#c7a58d"/><stop offset="1" stop-color="#eac5ab"/></linearGradient><linearGradient id="j" gradientUnits="userSpaceOnUse" x1="192.91" x2="166.13" y1="158.16" y2="80.37"><stop offset="0" stop-color="#c5a48c"/><stop offset="1" stop-color="#c5a38b"/></linearGradient><linearGradient id="k" gradientUnits="userSpaceOnUse" x1="192.9" x2="166.18" y1="158.1" y2="80.5"><stop offset="0" stop-color="#c4a28b"/><stop offset="1" stop-color="#c2a189"/></linearGradient><linearGradient id="l" gradientUnits="userSpaceOnUse" x1="192.88" x2="166.23" y1="158.03" y2="80.62"><stop offset="0" stop-color="#c2a18a"/><stop offset="1" stop-color="#c09f88"/></linearGradient><linearGradient id="m" gradientUnits="userSpaceOnUse" x1="192.87" x2="166.27" y1="157.96" y2="80.73"><stop offset="0" stop-color="#c1a089"/><stop offset="1" stop-color="#bd9d86"/></linearGradient><linearGradient id="n" gradientUnits="userSpaceOnUse" x1="192.85" x2="166.32" y1="157.89" y2="80.84"><stop offset="0" stop-color="#bf9f88"/><stop offset="1" stop-color="#bb9b84"/></linearGradient><linearGradient id="o" gradientUnits="userSpaceOnUse" x1="192.84" x2="166.39" y1="157.82" y2="81"><stop offset="0" stop-color="#be9d86"/><stop offset="1" stop-color="#b99982"/></linearGradient><linearGradient id="p" gradientUnits="userSpaceOnUse" x1="192.83" x2="166.44" y1="157.76" y2="81.11"><stop offset="0" stop-color="#bc9c85"/><stop offset="1" stop-color="#b69781"/></linearGradient><linearGradient id="q" gradientUnits="userSpaceOnUse" x1="192.82" x2="166.48" y1="157.69" y2="81.21"><stop offset="0" stop-color="#ba9b84"/><stop offset="1" stop-color="#b4957f"/></linearGradient><linearGradient id="r" gradientUnits="userSpaceOnUse" x1="192.78" x2="166.45" y1="157.62" y2="81.17"><stop offset="0" stop-color="#b99983"/><stop offset="1" stop-color="#b2937d"/></linearGradient><linearGradient id="s" gradientUnits="userSpaceOnUse" x1="192.76" x2="166.47" y1="157.56" y2="81.22"><stop offset="0" stop-color="#b79882"/><stop offset="1" stop-color="#af917b"/></linearGradient><linearGradient id="t" gradientUnits="userSpaceOnUse" x1="192.74" x2="166.5" y1="157.49" y2="81.27"><stop offset="0" stop-color="#b69781"/><stop offset="1" stop-color="#ad907a"/></linearGradient><linearGradient id="u" gradientUnits="userSpaceOnUse" x1="192.72" x2="166.52" y1="157.42" y2="81.32"><stop offset="0" stop-color="#b49680"/><stop offset="1" stop-color="#aa8e78"/></linearGradient><linearGradient id="v" gradientUnits="userSpaceOnUse" x1="192.71" x2="166.54" y1="157.35" y2="81.35"><stop offset="0" stop-color="#b3947f"/><stop offset="1" stop-color="#a88c76"/></linearGradient><linearGradient id="w" gradientUnits="userSpaceOnUse" x1="192.7" x2="166.56" y1="157.28" y2="81.38"><stop offset="0" stop-color="#b1937e"/><stop offset="1" stop-color="#a68a74"/></linearGradient><linearGradient id="x" gradientUnits="userSpaceOnUse" x1="192.69" x2="166.58" y1="157.21" y2="81.41"><stop offset="0" stop-color="#af927d"/><stop offset="1" stop-color="#a38873"/></linearGradient><linearGradient id="y" gradientUnits="userSpaceOnUse" x1="192.67" x2="166.6" y1="157.14" y2="81.43"><stop offset="0" stop-color="#ae907b"/><stop offset="1" stop-color="#a18671"/></linearGradient><linearGradient id="z" gradientUnits="userSpaceOnUse" x1="192.66" x2="166.63" y1="157.07" y2="81.45"><stop offset="0" stop-color="#ac8f7a"/><stop offset="1" stop-color="#9f846f"/></linearGradient><linearGradient id="A" gradientUnits="userSpaceOnUse" x1="192.66" x2="166.65" y1="157" y2="81.47"><stop offset="0" stop-color="#ab8e79"/><stop offset="1" stop-color="#9c826d"/></linearGradient><linearGradient id="B" gradientUnits="userSpaceOnUse" x1="192.65" x2="166.67" y1="156.93" y2="81.48"><stop offset="0" stop-color="#a98d78"/><stop offset="1" stop-color="#9a806c"/></linearGradient><linearGradient id="C" gradientUnits="userSpaceOnUse" x1="192.64" x2="166.7" y1="156.85" y2="81.5"><stop offset="0" stop-color="#a88b77"/><stop offset="1" stop-color="#977e6a"/></linearGradient><linearGradient id="D" gradientUnits="userSpaceOnUse" x1="192.83" x2="167.02" y1="156.36" y2="81.42"><stop offset="0" stop-color="#a68a76"/><stop offset="1" stop-color="#957c68"/></linearGradient><path d="m73.08 244.49c-5.36-4.13-53.23-42.08-62-105-2.22-16-5-38 6.92-60.18s33.54-31.63 58.08-42.82c12.23-5.57 33.7-15.35 61-18.1 9-.9 101.28-8.8 139.26 54.06 28.45 47.08 7.61 102.35-.3 122-9.46 23.57-24.58 61.24-63 79-61.86 28.67-128.52-20.16-139.96-28.96z" fill="#beb2da"/><circle cx="75" cy="225" fill="url(#a)" r="75"/><g fill-rule="evenodd"><path d="m187.11 25 16.04 11.16 31.76 5.52-125.77 45.17-47.8-16.68z" fill="#ededee"/><path d="m187.11 25 16.04 11.16 31.76 5.52-125.77 45.17-16.04-11.16-31.76-5.52z" fill="#eac5ab"/><path d="m186.95 26.17-121.53 43.65 28.09 4.87 15.79 10.99 121.53-43.65-28.09-4.87z" fill="url(#b)"/><path d="m186.95 57.79 43.88-15.76-28.09-4.87-15.79-10.99z" fill="url(#c)"/><path d="m202.74 52.12 28.09-10.09-28.09-4.87z" fill="url(#d)"/><path d="m234.91 221v-179.32l-125.77 45.17v179.32z" fill="url(#e)"/><path d="m61.34 249.49v-179.32l31.76 5.52 16.04 11.16v179.32z" fill="url(#f)"/><path d="m61.34 249.49v-179.32l31.76 5.52-.1 169.47z" fill="url(#g)"/><path d="m61.34 249.49 31.66-4.33 16.14 21.01z" fill="url(#h)"/><path d="m110.99 86.19-1.85.66v179.32l1.85-.66z" fill="url(#i)"/><path d="m149 89.7a23.31 23.31 0 0 1 2.58 7.79c3.06 15.53-2.11 32.61 3.85 50 3.34 9.78 12 13.77 21.15 10.53 8.91-3.15 14.83-9.25 18.55-17.11 7.91-16.62 6.45-41.34 6.47-59.46a20.29 20.29 0 0 0 -2.08-7.89 1.67 1.67 0 0 1 -.08-.2 3 3 0 0 1 1.76-3.8c2.5-1 4.1 4.07 4.81 8.49a28.23 28.23 0 0 1 .41 3.56c.56 19.18 2.2 49.43-6.41 63.73-9.25 15.35-27.36 27.08-42.15 16-21.42-16-5-48.85-12-68-1.94-2.08-.67-4.77 1-4.94a2.27 2.27 0 0 1 2.14 1.3z" fill="url(#j)"/><path d="m148.83 89.72c1.48 2.11 2.16 5.1 2.68 7.71 3.08 15.53-2.17 32.66 3.81 50.12 3.37 9.87 12.07 13.8 21.19 10.6a31.9 31.9 0 0 0 18.63-17.09c7.91-16.46 6.44-41.46 6.46-59.57a20.45 20.45 0 0 0 -2.08-7.91 1.67 1.67 0 0 1 -.08-.2 2.87 2.87 0 0 1 1.81-3.67c2.42-.84 4 4.14 4.7 8.55a29 29 0 0 1 .38 3.55c.54 19.17 2.16 49.29-6.42 63.53-9.23 15.31-27.3 27-42 16-21.29-15.92-5.1-48.57-12-67.7-1.87-2.07-.68-4.72.91-5a2.08 2.08 0 0 1 2.01 1.08z" fill="url(#k)"/><path d="m148.7 89.74c1.53 2 2.25 5.05 2.77 7.63 3.08 15.53-2.21 32.71 3.78 50.21 3.41 9.95 12.11 13.81 21.22 10.65a32.09 32.09 0 0 0 18.71-17.07c7.87-16.31 6.44-41.57 6.46-59.67a20.37 20.37 0 0 0 -2.09-7.93c0-.07-.05-.13-.07-.2a2.75 2.75 0 0 1 1.86-3.55c2.35-.66 3.94 4.22 4.58 8.62a30.36 30.36 0 0 1 .37 3.53c.52 19.16 2.1 49.16-6.45 63.34-9.2 15.27-27.22 27-41.93 16-21.18-15.86-5.22-48.3-11.91-67.43-1.79-2.07-.7-4.67.77-5a2 2 0 0 1 1.93.87z" fill="url(#l)"/><path d="m148.57 89.76c1.59 1.79 2.35 5 2.86 7.55 3.08 15.54-2.26 32.77 3.75 50.29 3.44 10 12.16 13.84 21.25 10.72a32.34 32.34 0 0 0 18.8-17.06c7.85-16.14 6.44-41.68 6.45-59.77a20.43 20.43 0 0 0 -2.09-7.95l-.08-.2a2.62 2.62 0 0 1 1.93-3.42c2.26-.48 3.85 4.29 4.46 8.68a33.94 33.94 0 0 1 .35 3.52c.49 19.14 2 49-6.47 63.14-9.19 15.24-27.16 27-41.83 16-21-15.77-5.34-48-11.9-67.14-1.71-2.06-.71-4.62.64-5a1.79 1.79 0 0 1 1.88.64z" fill="url(#m)"/><path d="m148.44 89.79c1.65 1.62 2.45 5 2.95 7.46 3.08 15.54-2.3 32.82 3.72 50.38 3.47 10.12 12.2 13.86 21.28 10.77a32.5 32.5 0 0 0 18.88-17c7.84-16 6.44-41.79 6.45-59.87a20.55 20.55 0 0 0 -2.09-8 1.67 1.67 0 0 1 -.08-.2 2.49 2.49 0 0 1 2-3.29c2.17-.31 3.77 4.36 4.35 8.74a32.61 32.61 0 0 1 .32 3.51c.47 19.12 2 48.87-6.49 62.94-9.16 15.2-27.09 26.91-41.71 15.95-20.94-15.69-5.46-47.72-11.86-66.85-1.64-2.06-.72-4.58.5-5.06a1.63 1.63 0 0 1 1.78.52z" fill="url(#n)"/><path d="m148.31 89.81c1.71 1.46 2.55 4.91 3 7.38 3.09 15.55-2.35 32.87 3.69 50.46 3.5 10.22 12.25 13.89 21.31 10.84a32.73 32.73 0 0 0 19-17c7.82-15.82 6.43-41.9 6.44-60a20.66 20.66 0 0 0 -2.09-8 1.67 1.67 0 0 1 -.08-.2c-.63-1.62.78-2.77 2-3.16 2-.62 3.69 4.43 4.23 8.8.16 1.26.28 2.47.31 3.5.44 19.11 1.94 48.73-6.51 62.75-9.14 15.15-27 26.86-41.61 15.92-20.82-15.61-5.58-47.43-11.82-66.57-1.55-2.05-.72-4.53.38-5.09a1.47 1.47 0 0 1 1.75.37z" fill="url(#o)"/><path d="m148.18 89.83c1.78 1.3 2.64 4.87 3.13 7.3 3.09 15.55-2.4 32.93 3.65 50.54 3.54 10.31 12.3 13.91 21.35 10.9a32.9 32.9 0 0 0 19.05-17c7.81-15.66 6.44-42 6.44-60.08a20.53 20.53 0 0 0 -2.1-8 1.67 1.67 0 0 0 -.08-.2c-.64-1.64.85-2.72 2.09-3 1.92-.49 3.6 4.51 4.12 8.87.14 1.25.26 2.45.28 3.49.42 19.09 1.89 48.59-6.52 62.55-9.12 15.12-27 26.82-41.51 15.9-20.69-15.54-5.69-47.15-11.77-66.29-1.47-2-.74-4.48.25-5.12.32-.31.91-.37 1.62.14z" fill="url(#p)"/><path d="m148.05 89.85c1.86 1.14 2.74 4.82 3.22 7.22 3.1 15.56-2.44 33 3.62 50.63 3.57 10.39 12.34 13.93 21.38 11a33.12 33.12 0 0 0 19.14-17c7.79-15.5 6.43-42.13 6.43-60.18a20.75 20.75 0 0 0 -2.1-8c0-.06-.05-.13-.08-.19-.66-1.65.9-2.66 2.15-2.91 1.85-.36 3.51 4.58 4 8.93.14 1.23.25 2.44.27 3.48.4 19.07 1.83 48.45-6.55 62.35-9.09 15.08-26.89 26.77-41.39 15.88-20.58-15.46-5.81-46.87-11.73-66-1.39-2-.75-4.43.11-5.14.26-.38.82-.5 1.53-.07z" fill="url(#q)"/><path d="m147.92 89.88c2 1 2.84 4.77 3.31 7.13 3.1 15.56-2.49 33 3.59 50.71 3.6 10.48 12.39 14 21.41 11a33.29 33.29 0 0 0 19.23-17c7.77-15.33 6.42-42.24 6.42-60.28a20.81 20.81 0 0 0 -2.1-8.06 1.54 1.54 0 0 1 -.08-.19 2.06 2.06 0 0 1 2.2-2.78c1.77.34 3.43 4.65 3.88 9 .12 1.22.23 2.42.25 3.47.37 19.06 1.78 48.31-6.57 62.15-9.08 15.05-26.83 26.73-41.29 15.86-20.45-15.38-5.93-46.58-11.68-65.73a4.6 4.6 0 0 1 0-5.17c.19-.29.71-.47 1.43-.11z" fill="url(#r)"/><path d="m147.78 89.9c2.05.8 2.94 4.72 3.41 7 3.1 15.57-2.53 33.08 3.56 50.8 3.63 10.56 12.43 14 21.44 11.07a33.45 33.45 0 0 0 19.31-16.95c7.76-15.17 6.42-42.35 6.42-60.38a20.92 20.92 0 0 0 -2.1-8.08 1.54 1.54 0 0 1 -.08-.19 2 2 0 0 1 2.26-2.61c1.66.48 3.35 4.73 3.76 9.06.12 1.21.21 2.4.23 3.46.35 19 1.73 48.17-6.59 62-9 15-26.75 26.69-41.17 15.84-20.34-15.31-6.05-46.3-11.64-65.45a5.18 5.18 0 0 1 -.16-5.2c.14-.41.64-.65 1.35-.37z" fill="url(#s)"/><path d="m147.65 89.92c2.14.63 3 4.68 3.5 7 3.11 15.57-2.58 33.13 3.53 50.88 3.67 10.65 12.48 14 21.48 11.14a33.7 33.7 0 0 0 19.39-16.94c7.74-15 6.42-42.47 6.41-60.49a21 21 0 0 0 -2.11-8.1 1.54 1.54 0 0 0 -.08-.19 1.9 1.9 0 0 1 2.32-2.53c1.55.61 3.26 4.8 3.64 9.12.1 1.2.19 2.38.21 3.45.33 19 1.67 48-6.61 61.75-9 15-26.69 26.65-41.07 15.82-20.22-15.23-6.17-46-11.59-65.17a5.88 5.88 0 0 1 -.29-5.23c.09-.43.56-.72 1.27-.51z" fill="url(#t)"/><path d="m147.52 89.94c2.23.44 3.14 4.64 3.59 6.89 3.12 15.58-2.62 33.19 3.5 51 3.7 10.73 12.52 14 21.51 11.19 8.41-2.64 15.36-9 19.47-16.91 7.73-14.88 6.41-42.61 6.41-60.62a20.9 20.9 0 0 0 -2.11-8.12c0-.06 0-.13-.08-.19a1.82 1.82 0 0 1 2.37-2.4c1.45.74 3.19 4.87 3.52 9.18.1 1.19.18 2.36.19 3.44.31 19 1.62 47.88-6.62 61.56-9 14.93-26.63 26.6-41 15.79-20.06-15.15-6.27-45.75-11.51-64.89a6.9 6.9 0 0 1 -.43-5.26c.04-.42.48-.8 1.19-.66z" fill="url(#u)"/><path d="m147.39 90c2.33.24 3.23 4.58 3.68 6.8 3.12 15.58-2.66 33.24 3.47 51.05 3.73 10.82 12.56 14.05 21.54 11.26 8.37-2.6 15.41-9 19.56-16.9 7.7-14.69 6.41-42.7 6.4-60.69a21 21 0 0 0 -2.11-8.14 1.54 1.54 0 0 1 -.08-.19 1.76 1.76 0 0 1 2.42-2.27c1.36.85 3.11 4.94 3.41 9.24.09 1.17.15 2.34.17 3.43.29 19 1.57 47.74-6.65 61.36-9 14.89-26.55 26.55-40.85 15.77-20-15.07-6.4-45.45-11.5-64.6a8.22 8.22 0 0 1 -.56-5.3c-.02-.48.39-.93 1.1-.82z" fill="url(#v)"/><path d="m147.26 90c2.42 0 3.33 4.54 3.77 6.72 3.13 15.59-2.71 33.29 3.44 51.13 3.76 10.92 12.61 14.07 21.57 11.32 8.33-2.55 15.45-9 19.64-16.88 7.69-14.53 6.42-42.81 6.4-60.79a21.13 21.13 0 0 0 -2.08-8.17l-.09-.19a1.72 1.72 0 0 1 2.46-2.14c1.26 1 3 5 3.29 9.31.07 1.16.13 2.32.15 3.41.27 19 1.51 47.61-6.67 61.17-9 14.85-26.49 26.51-40.74 15.75-19.86-15-6.53-45.16-11.46-64.32a10.05 10.05 0 0 1 -.69-5.33.9.9 0 0 1 1.01-.99z" fill="url(#w)"/><path d="m147.13 90c2.51-.18 3.42 4.49 3.86 6.64 3.14 15.59-2.75 33.34 3.41 51.22 3.79 11 12.65 14.09 21.6 11.38 8.28-2.51 15.5-8.94 19.73-16.86 7.67-14.38 6.41-42.93 6.39-60.9a21 21 0 0 0 -2.12-8.17c0-.07-.05-.13-.08-.19a1.67 1.67 0 0 1 2.54-2c1.18 1.09 2.95 5.09 3.17 9.37.07 1.15.12 2.3.13 3.4.25 19 1.46 47.47-6.69 61-8.94 14.82-26.42 26.47-40.63 15.73-19.74-14.92-6.64-44.88-11.41-64a13.15 13.15 0 0 1 -.83-5.35 1 1 0 0 1 .93-1.27z" fill="url(#x)"/><path d="m147 90c2.59-.4 3.52 4.45 3.95 6.56 3.15 15.6-2.8 33.39 3.38 51.3 3.82 11.14 12.67 14.14 21.67 11.47 8.24-2.46 15.55-8.92 19.81-16.84 7.65-14.22 6.41-43 6.38-61a21 21 0 0 0 -2.11-8.2c0-.07 0-.13-.08-.19a1.64 1.64 0 0 1 2.59-1.89c1.1 1.2 2.87 5.16 3.06 9.43 0 1.14.1 2.28.11 3.39.23 19 1.4 47.33-6.71 60.77-8.92 14.78-26.35 26.43-40.53 15.71-19.61-14.84-6.76-44.6-11.36-63.76a18.33 18.33 0 0 1 -1-5.38 1 1 0 0 1 .84-1.37z" fill="url(#y)"/><path d="m146.87 90.06c2.66-.64 3.62 4.39 4 6.47 3.16 15.6-2.84 33.44 3.35 51.39 3.85 11.17 12.74 14.13 21.66 11.5 8.19-2.42 15.59-8.9 19.9-16.83 7.63-14.06 6.41-43.15 6.37-61.1a21.06 21.06 0 0 0 -2.11-8.22c0-.07-.06-.13-.08-.19a1.62 1.62 0 0 1 2.65-1.77 19 19 0 0 1 2.93 9.5c0 1.12.08 2.27.09 3.38.21 18.93 1.36 47.19-6.72 60.57-8.9 14.74-26.29 26.39-40.42 15.69-19.49-14.77-6.84-44.31-11.28-63.45a29.3 29.3 0 0 1 -1.1-5.41 1.09 1.09 0 0 1 .76-1.53z" fill="url(#z)"/><path d="m146.74 90.08c2.73-.87 3.71 4.35 4.13 6.39 3.17 15.61-2.88 33.5 3.32 51.47 3.88 11.26 12.79 14.17 21.69 11.56 8.15-2.36 15.64-8.88 20-16.81 7.62-13.9 6.41-43.26 6.37-61.2a21.12 21.12 0 0 0 -2.11-8.24l-.09-.19a1.6 1.6 0 0 1 2.71-1.64 20.34 20.34 0 0 1 2.8 9.58c0 1.11.06 2.25.07 3.37.19 18.91 1.3 47-6.75 60.38-8.87 14.7-26.22 26.34-40.31 15.66-19.38-14.69-7-44-11.27-63.2-.62-2-.88-3.93-1.23-5.44a1.18 1.18 0 0 1 .67-1.69z" fill="url(#A)"/><path d="m146.61 90.1c2.79-1.1 3.81 4.31 4.22 6.32 3.18 15.6-3 33.55 3.28 51.55 3.9 11.35 12.84 14.19 21.73 11.62 8.11-2.33 15.69-8.86 20.07-16.79 7.59-13.75 6.4-43.38 6.36-61.31a21 21 0 0 0 -2.12-8.26c0-.07-.05-.13-.08-.19a1.58 1.58 0 0 1 2.76-1.51 21.64 21.64 0 0 1 2.7 9.62c0 1.1.05 2.23.06 3.36.17 18.9 1.24 46.9-6.77 60.18-8.86 14.66-26.16 26.3-40.2 15.64-19.26-14.61-7.12-43.74-11.23-62.92-.54-1.94-.89-3.88-1.36-5.47a1.28 1.28 0 0 1 .58-1.84z" fill="url(#B)"/><path d="m146.48 90.12c2.85-1.33 3.9 4.26 4.31 6.24 3.21 15.64-2.97 33.64 3.21 51.64 4 11.44 12.88 14.21 21.77 11.68 8.05-2.28 15.72-8.84 20.14-16.77 7.58-13.59 6.4-43.49 6.36-61.41a21.16 21.16 0 0 0 -2.12-8.28l-.08-.2a1.57 1.57 0 0 1 2.82-1.38 23.52 23.52 0 0 1 2.58 9.69v3.35c.13 18.88 1.19 46.76-6.79 60-8.83 14.62-26.08 26.25-40.09 15.62-19.14-14.54-7.23-43.46-11.19-62.64a52.6 52.6 0 0 0 -1.49-5.5 1.4 1.4 0 0 1 .57-2.04z" fill="url(#C)"/><path d="m145.94 92.33a1.56 1.56 0 0 1 .41-2.18c3-1.25 3.91 4.23 4.4 6.15 2.44 15.75-3 33.63 3.22 51.71 7.6 21.91 33.05 12 42-5 7.89-13.23 6.36-43.6 6.35-61.51a21.85 21.85 0 0 0 -2.21-8.5c-.85-1.82 2.1-3.14 2.88-1.25a24.54 24.54 0 0 1 2.46 9.75c0 18.78 1.56 49.11-6.79 63.12-8.89 14.54-25.28 25.16-40 15.6-19.66-17.42-4.89-48.82-12.72-67.89z" fill="url(#D)"/><path d="m147.32 87.21c1.62-.58 2.94.45 2.94 2.27a5.33 5.33 0 0 1 -2.94 4.65c-1.62.58-2.95-.72-2.95-2.55a4.93 4.93 0 0 1 2.95-4.37z" fill="#856f5e"/><path d="m201.67 68.14c1.62-.58 2.94.44 2.94 2.27a5.34 5.34 0 0 1 -2.94 4.65c-1.62.58-2.95-.73-2.95-2.55a4.92 4.92 0 0 1 2.95-4.37z" fill="#856f5e"/><path d="m144.57 91.89-.19-.08c0-.07 0-.15 0-.23a5.07 5.07 0 0 1 1.67-3.58c6.68 1.64 12.29 6.67 12.13 13.93v25.81c-.32 31 28.51 33.66 42.47 8.25 9.73-13.79 7.58-37.07 7.69-53.14.2-5.72-4.71-8.83-9.66-10.13a.42.42 0 0 0 0-.2 5.08 5.08 0 0 1 1.68-3.6c6.66 1.65 12.3 6.68 12.13 13.94-.05 17 1.92 40.66-8.28 55.26-16 29.17-50.61 24.86-50.26-10.38v-25.82c.24-5.58-4.49-8.81-9.38-10.03z" fill="#fff"/></g></svg>