<svg xmlns="http://www.w3.org/2000/svg" viewBox="0 0 300 300"><defs><style>.a{fill:#c7e5f7}.b{clip-path:url(#a)}.c{fill:#361f39}.d{fill:#efbeb3}.e{fill:#db9b93}.f{fill:#fff}.g{fill:#bf4634}</style><clipPath id="a"><path class="a" d="M271.8 45.38c26.2 33.89 23.09 75.73 19.73 121.22-2.13 28.93-4.42 55.05-23.49 78-16.29 19.6-36.05 26.33-64.84 35.71-44.61 14.53-105.94 34.51-151.33 2.69-24-16.82-33.71-41.22-36.95-49.7C-14.51 156.29 33.13 30.37 128 5c46.68-12.52 110.8-2.32 143.8 40.38z"/></clipPath></defs><path class="a" d="M271.8 45.38c26.2 33.89 23.09 75.73 19.73 121.22-2.13 28.93-4.42 55.05-23.49 78-16.29 19.6-36.05 26.33-64.84 35.71-44.61 14.53-105.94 34.51-151.33 2.69-24-16.82-33.71-41.22-36.95-49.7C-14.51 156.29 33.13 30.37 128 5c46.68-12.52 110.8-2.32 143.8 40.38z"/><g class="b"><path class="c" d="M68.92 269c3.27-.22 2.57 19.32 4.18 24.48s18 9 50.56 7.73 40.26-4.21 57.34-5.15 10-12.88 7.41-24.79 0-19-3.22-24.06-1.94-20.39-1.94-20.39 29 25.77 42.19 22.3 9.34-48.06 0-54.5-48-54.75-64.09-58.94-32.09.24-45.08 2.9c-14.17 2.9-30.92.16-47.34 6.68s-10.64 24.56-17.08 34.54-3.22 28.34-5.15 36.07-7.73 24.91-6.77 36S59.58 269.66 68.92 269z"/><path class="d" d="M245 160.16c1-3.09-.85-6.76-1.12-12.88s1.4-7.25 1.07-11.92-4.66-12.64 0-12.24c3.71.33 7.89 2.9 7.41 13.53 0 0 11.27-35.26 14-29.79s-4.67 26.36-4.67 26.36 9.5-30.06 13.2-28.13-5.66 29.91-5.66 29.91 10.63-22.36 13.2-19.56-8.37 25.36-8.37 25.36S286 125.7 287 131.18s-11.6 15.62-12.25 16.74-3.22 11-7.08 13.85-7.41 6-8.21 7.09-15.62 64.57-20.94 72.78-13.61 7.56-19.2 7.4-8.17-15.94-4.14-29.95S243.71 164 245 160.16z"/><path class="e" d="M261.8 158.9c3.84-19.12-9.08-23.14-9.21-23.18l-.54 1.86c.46.14 11.34 3.61 7.86 20.94z"/><path class="f" d="M183.19 227.79h.21a1.57 1.57 0 0 0 1.13-.86c3.24-5.67-3.18-58.83-7.47-70l-1.8.7c4.86 12.65 9.65 60.88 7.85 67.72-2.09-4.45-5.39-28.07-7.84-45.61-2.13-15.24-4.14-29.63-5.59-34.72l-1.86.53c1.41 5 3.41 19.29 5.54 34.46 4 28.37 6.55 45.72 9 47.52a1.37 1.37 0 0 0 .83.26zm-102.4 14.86a2.94 2.94 0 0 0 2-1.12c5-5.38 1.77-51.5-2.87-74.22-3.08-15.09-5.84-16.32-6.75-16.73l-.78 1.77c.65.29 3 2.25 5.64 15.35 5.12 25.08 7.11 68.45 3.34 72.51-.43.47-.64.5-.64.5-1.68-1-1.57-15.23-1.48-25.63.06-7.14.12-14.51-.15-21.14l-1.93.07c.27 6.59.21 13.94.15 21.05-.16 18.67 0 26.38 2.75 27.46a1.82 1.82 0 0 0 .72.13z"/><path class="g" d="M112.94 130.55c6-.6 16.93.59 23.95 3.41s10.87 35.67 8.46 36.64-18.09-6.8-21.52-6.9-8.12 13.54-12.86 13.36S86.53 145.91 88.33 141s17.96-9.78 24.61-10.45z"/><path class="f" d="M92.78 227.72c12.46-4.93 23.34-14.1 32.94-22.18 3.6-3 7-5.88 10.11-8.19 11.34-8.4 18.37-23.27 18.66-23.9l-1.75-.82c-.07.15-7.12 15.06-18.06 23.17-3.16 2.34-6.58 5.22-10.2 8.26-9.49 8-20.24 17-32.41 21.87zm9.31 52.28c6.84 0 11.63-1.71 16.69-3.52a70.87 70.87 0 0 1 16.28-4.21c15.19-1.94 29.75-11.67 30.37-12.08l-1.08-1.6c-.15.1-14.81 9.89-29.54 11.76a73.54 73.54 0 0 0-16.68 4.31c-5.12 1.83-9.53 3.41-16 3.41z"/><path class="d" d="M118.19 111.85s8.69 20.29 11.27 25.44 4.19 24.16-5.63 26.41-26.25-20-26.25-23.83-10-39.8-13-47.37c.03 0 18.47.03 33.61 19.35z"/><path class="e" d="M118.4 112.35c.59 1.37 2.33 5.41 4.3 9.92-7.06-.55-16.94-2.84-24-10.65-8.99-9.94 5.96-2.62 19.7.73z"/><path class="d" d="M112.39 52c16.43 1.54 25.77 42.76 18.68 55.65s-30.91 8-41.86-7.41S77.29 67.13 85 59.7s27.39-7.7 27.39-7.7z"/><path class="c" d="M100.8 40.51c3-1.48 7.73-10.78 18-8.85s11.65 17.93.2 23.34-14 4.4-18.2 4.7-6.61 6.47-16.19 5 7 5.93 7.72 13.34a98.43 98.43 0 0 1 0 15.78v6.44s1.8 8.81-2.59 8.59S81.2 98.19 76.32 92.5C65.05 79.33 72.78 70 74.39 67.09s-1.93-6.62 0-15.07 17.07-6.84 26.41-11.51z"/><path class="d" d="M92.33 93.82s-12.79-10.71-14.07-4.23 14.07 10.67 14.07 10.67z"/><path class="c" d="M109.56 77.07a1.81 1.81 0 1 1-1.19 2.27 1.81 1.81 0 0 1 1.19-2.27zm16.72-5.27a1.81 1.81 0 1 1-1.18 2.28 1.82 1.82 0 0 1 1.18-2.28zm-23.71 1.98c.24 1.86 1.45-.27 4.15-1.31 1.7-.65 4-.16 4.23-1.33.24-1.51-2.28-2.15-4.48-1.46s-4.08 2.72-3.9 4.1zm-11.81 8.66s13.4 17.2 16 18.38 0-6.84 5.17-11.28 15.23-5.36 19.49-6 7.38 24-2.63 29.57-19.59 3.07-24.26 0-9.19-14.69-12.2-19.3-1.57-11.37-1.57-11.37zm37.11-16.62c.79 1.69-1 .49-3.07 1-1.31.3-2.43 1.88-3.12 1-.88-1.16.26-3 1.88-3.47s3.73.22 4.31 1.47z"/><path class="d" d="M126.48 260.4c6.83-2.76 9.42-11.28 9.42-11.28 5.8 2.26 10.87 3.55 12.08 1.62s-9.9-7.49-9.9-7.49c11.83 2.65 15.45-1 17.14-2.42S139 236.48 139 236.48c11.35-1.44 20.05-4.58 19.81-7.24s-17.39 0-17.39 0c14.73-5.8 15.7-15.22 11.83-13.53s-21.1 11.62-23.67 12.56c-4.59 1.69-8.93 19.48-11.35 20.85S64.89 234.84 56 238s-18.71 11.41-13.48 20 39.04 20.51 83.96 2.4z"/><path class="f" d="M128.64 89.54s-7.64 2.17-14.45 1.76 3.19 12.31 9.57 11.27 4.88-13.03 4.88-13.03z"/><path class="e" d="M120.46 75.92v6.48c-2.26 1.1-4.19 2.73 0 4.81s4.83-2.13 0-11.29z"/></g><path class="f" d="M180.62 22.42C162.51 32 164.5 45.58 170.29 61.89s-.67 30.33-7.46 32.57c0 0 10 .27 15.72-5.19s15.45 1.23 31.54-8.84 27.6-28 12.81-47.54S192.77 16 180.62 22.42z"/><path class="g" d="M185.86 44.29l-.41.12c-2.57.68-4.79-.78-5.66-3.72-1.06-3.57 0-9.39 4.2-10.77a5.78 5.78 0 0 1 7.51 4.78c.5 3.57-1.67 8.3-5.64 9.59zm-.81-11.16c-1.91.64-2.72 4.22-2 6.6.5 1.68 1.27 1.48 1.55 1.41 2.43-.65 3.87-3.75 3.56-6A2.16 2.16 0 0 0 185.9 33a2.34 2.34 0 0 0-.85.13zm15.41-4.22c-1.39-.31-3.43 9.27-6.29 20.61s-5.34 23.33-5 24.47 4.35 2.5 5.87 1.7 4.7-15.15 6.9-23.94 4.44-18.39 4.09-20.23-5.57-2.61-5.57-2.61zm10.09 44.87a5 5 0 0 1-3.92-.35c-1.8-.94-2.71-3.46-2.44-6.74.24-3 1.62-7 4.7-8a4.8 4.8 0 0 1 2.61-.09c4.33 1.05 4.38 4.24 4 7.71s-2.36 6.62-4.95 7.47zM210 61.93c-1.14.38-2.19 2.59-2.39 5-.17 2.13.38 3.32.64 3.46a1.61 1.61 0 0 0 1.29.14c1.29-.43 2.46-2.43 2.67-4.57.36-3.65-.06-3.75-1.45-4.08a1.3 1.3 0 0 0-.76.05z"/></svg>