<svg enable-background="new 0 0 300 201" viewBox="0 0 300 201" xmlns="http://www.w3.org/2000/svg"><path d="m60.7 89c1.9 2.2 3.9 4.2 6.1 6.1 8.5 7.9 23.5 20.2 38 30.2.8.5 1.6 1.1 2.4 1.6 8.5 5.7 16.6 10.4 23.2 12.9 2.4.9 4.9 1.7 7.3 2.4 20.1 5.7 41.6 3.6 70.1-12.4 32-18.1 35.8-50.9 45.6-69.4 1.3-2.3 2.9-4.4 4.8-6.3 13.2-13 39.7-16.4 40.5-16.5-.7-.5-26.5-19.3-69-26.3-2.9-.5-5.8-.9-8.7-1.3-40.8-5.4-85.2-3.3-104 .9 0 0 0 0-.1 0s0 0-.1 0c-2.8.7-5.6 1.6-8.3 2.7-.1 0-.1 0-.2.1-4.2 1.7-9 3.9-13.8 6.2-8.6 4.2-17 8.7-21.8 11.3l-4 2.2-6 .1-20.2 18.5s-.8 3-1.2 4.8c-.2.9 2.6 10 5.9 14.6 2.3 3.3 5.2 7.1 7.8 10.5 2.1 2.7 4 5.2 5.7 7.1z" fill="#d5301d"/><path d="m60.7 89c1.9 2.2 3.9 4.2 6.1 6.1 8.5 7.9 23.5 20.2 38 30.2.8.5 1.6 1.1 2.4 1.6 8.5 5.7 16.6 10.4 23.2 12.9 2.4.9 4.9 1.7 7.3 2.4s.7-3.5 2.2-9.1c2.6-10 7.7-26.8 15.7-42.8 8.1-16.2 19.2-31.6 33.7-38.3 29.6-13.4 64.2 8.3 64.2 8.3l4.8-6.3-37.2-44.1c-40.8-5.4-85.2-3.3-104 .9 0 0 0 0-.1 0s0 0-.1 0c-2.8.7-5.6 1.6-8.3 2.7-.1 0-.1 0-.2.1-4.2 1.7-9 3.9-13.8 6.2-8.6 4.2-17 8.7-21.8 11.3l-4 2.2-6 .1-16.7 15.1c0 .1-.1.2-.2.4-.7 2.2-3.9 11.4-4.2 13.1-.2.9 2.2 4.7 5.5 9.3 2.3 3.3 5.2 7.1 7.8 10.5 2.1 2.8 4 5.3 5.7 7.2z" fill="#ad2217" opacity=".62"/><path d="m291.7 82.2-1.6 1.2s-69.7-71.6-150.7-75.4c0 0 48.5-6.2 70.1.8s82.2 73.4 82.2 73.4z" fill="#cf331d"/><path d="m148.3 7.5c19.8 1.5 39.6 7.8 57.8 16.2 48.2 22.1 85.6 58.5 85.6 58.5 12.5-25.8 7.2-44.5 7.2-44.5-70.5-44.5-150.6-30.2-150.6-30.2z" fill="#d5301d"/><path d="m148.3 7.5c19.8 1.5 39.6 7.8 57.8 16.2 45.4-8.7 91.3 13.3 92.7 14-70.4-44.5-150.5-30.2-150.5-30.2z" fill="#ed5e4e"/><path d="m15.2 60s-3.6 3.5-6.5 1.4c-.2-1-.5-2-.8-2.9s-.8-1.7-1.3-2.1c-.2-.3-.4-.4-.6-.5-1-.4-1.5.2-4.1-4.2 0 0-.9.1-1.6-1.9s0-1.7.6-2c0 0 0-1.3 1-1.4l1-.2s-.1-1.1 1.3-1.3c.2 0 .5 0 .7.2 0-.1-.9-1.9.4-2.7.4-.1.8.1 1.1.5.5.6 2.6 1.4 3.9 1.3s1.9.7 2.2 2.4-.4 6.4-.2 7.6c.2 1.3 2.9 5.8 2.9 5.8z" fill="#fed194"/><path d="m4.8 45.1c.7.6 1.5 1 2.3 1.3.5.2.9.3 1.3.6s.6.7.7 1.2c0 .5 0 .9-.2 1.3s-.5.7-.8 1.1c-.2.4-.4.8-.4 1.3s.1.9.4 1.3c-.3-.4-.5-.8-.5-1.3s.1-1 .4-1.4c.2-.4.5-.8.7-1.1.2-.4.2-.8.2-1.2s-.2-.7-.5-1c-.4-.2-.7-.4-1.1-.6-1.1-.3-1.9-.8-2.5-1.5z" fill="#f59d4e"/><path d="m6.2 46c.3.8.7 1.5 1 2.3.2.4.4.7.6 1.1.1.2.3.3.5.2s.4-.2.5-.4c-.1.2-.2.4-.5.5-.1 0-.3 0-.4 0s-.2-.1-.3-.2c-.3-.3-.5-.7-.7-1.1-.3-.7-.6-1.5-.7-2.4z" fill="#f59d4e"/><path d="m2.8 46.2c.3.6.6 1.2.9 1.8.1.3.3.6.5.9.1.3.3.6.5.8s.5.4.8.5.6.1 1 0c.3-.1.6-.3.7-.6.2-.2.3-.6.2-.9.2.3.1.7-.1 1-.1.1-.2.3-.3.4s-.3.2-.5.3c-.4.1-.8.1-1.1 0-.4-.1-.7-.3-1-.5-.1-.1-.2-.3-.3-.5 0-.1-.1-.3-.2-.4-.1-.3-.3-.6-.4-.9l-.4-.9c-.1-.3-.2-.6-.3-1z" fill="#f59d4e"/><path d="m.9 47.8c.2.5.5.9.7 1.4.3.5.6.9.9 1.3.2.2.4.4.6.4h.8c.3-.1.5-.2.7-.4s.3-.5.3-.7c0 .3 0 .6-.2.8-.2.3-.4.4-.7.5s-.6.1-.9 0-.6-.2-.8-.5c-.4-.4-.7-.9-.9-1.4-.1-.2-.2-.5-.3-.7s-.2-.4-.2-.7z" fill="#f59d4e"/><path d="m1.9 51.8c.2 0 .4-.2.5-.4.1-.1.1-.2.1-.3s0-.2 0-.4c.1.1.1.1.1.2s.1.1.1.2c0 .2 0 .3-.1.5s-.2.3-.4.3c.1 0-.1 0-.3-.1z" fill="#f59d4e"/><path d="m7.8 58.4c-.3-.9-.8-1.7-1.3-2.1-.1-.2-.3-.3-.5-.4.1 0 2 .4 3.7-.4 1.3-.5-.1 1.9-1.9 2.9z" fill="#f59d4e"/><path d="m58.6 71.8s-9.7 25.5-24.1 26.5c-5.2.3-9.1-1.7-12.3-4.9-5.6-5.6-8.4-14.5-10.1-18.5-2.7-6.2-1.5-6.4-1.5-6.4-.2-1.5-2.7-6.6-3-7.2-.2-.6.3-.5.3-.5 2.6-.2 5-1.3 6.9-3 .5-.5.8.1.8.1 1 2.4 3.7 6.4 3.7 6.4 2.5-2.2 9.5 9.3 9.5 9.3 7.6-12.7 11.3-17.6 12.8-19.3.3-.3.6-.6.9-.9z" fill="#fafafa"/><path d="m19.3 64.3s.1 2.5-5.8 4c0 0-1.2.1.3-.9s4-3 4.2-5.2z" fill="#aeb6b7"/><path d="m28.8 73.6s6 7.7 7.7 15.8c0 0 .8.9.7-1.9-.1-4.8-7.6-15.2-7.6-15.2z" fill="#aeb6b7"/><path d="m58.6 71.8s-4.6 12.2-12.3 20.1c-3.4 3.5-7.4 6.1-11.8 6.4-5.2.3-9.1-1.7-12.3-4.9 22.1 8.5 25.9-11.7 23.6-17.5-2.3-5.9-3.9-20.9-3.9-20.9-.1-.2-.2-.4-.2-.7.3-.3.6-.6.9-.9l4.7 5.3z" fill="#d2d7db" opacity=".54"/><path d="m46.3 91.9c5.6-9.2 2.5-16.9 1.3-20.7-1.3-3.8-4-12.5-4-12.5 1.2-.1 2.4 0 3.7.2l11.4 13c-.1-.1-4.7 12.1-12.4 20z" fill="#aeb6b7"/><path d="m52.2 84.3s1.1-3.9 0-6.7-4.3-10.6-4.3-10.6l8 10.7c0 .1-2.2 4.4-3.7 6.6z" fill="#949a9b"/><path d="m55.2 36c-1.2 0-2.4.6-3 1.6-1.2 1.7 1.8 3.1 3.7 1.9 2-1.2-.7-3.5-.7-3.5z" fill="#bbc3c4"/><path d="m56.8 37.2s-.7 1.8-2.8.5c-2.3-2.5-5-6.2-5.6-9.5-.9-5.8-7.7-17.9-12.4-15.8 0 0-4.3 1-7.1 4.2-.6.7-1.2 1.6-1.6 2.5-2.3 5.3-.8 6.2-4.4 8.5-1.9 1.2-.1 2.9 1.7 3 1.9.2 1.8 6.1 5.4 8.6s10.2 2 12.4 1.3c0 0 1.8 1.1 3.9 4.5.3.5.7 1 1 1.5s2 5.7 1.8 8.2 11.1-1.3 11.2-6c.2-4.6-3.5-11.5-3.5-11.5z" fill="#fed194"/><path d="m46.9 29.5s.8 7.1 4.7 5.2l-3.1-4.3z" fill="#f59d4e"/><path d="m43.9 24.1s-1.1-.9-4.2 2.8c0 0 1.2-5.9 3-5.9 1.9.2 1.2 3.1 1.2 3.1z" fill="#f59d4e"/><path d="m29.4 16.1s9.4-.8 11.6 1.6-4.5-6.2-4.5-6.2-5.1 2.6-7.1 4.6z" fill="#f59d4e"/><path d="m42.6 12.7c4.9 1.9 5.9 12.4 2.6 10.7-4.4-2.3-5.5 6.6-5.8 2.5-.4-4.1 1.3-3.8.8-7.7-.5-3.7-3.6-3.6-3.9-3.6-4.9.4-10.4-.7-11.4-3-.4-.8-.2-1.7.7-2.8 1.7-2 3.3-2.6 4.8-2.5 2.6 0 4.6 2.3 4.6 2.3s11.8 1.1 7.6 4.1z" fill="#72120c"/><path d="m40.2 18.2s1.7 4.1 2.6 5.1c0 0 1-.3 1.2-.1s-4-6.2-4-6.2z" fill="#530905"/><path d="m31.2 6.4s3.2 6.7 5.7 8.2l1.8.5-5.9-8.5z" fill="#530905"/><path d="m46.9 28.7s-.3 5.6 4.2 5.1c0 0-2-3.4-1.7-4.4.2-1-2.5-.7-2.5-.7z" fill="#72120c"/><path d="m46.9 29.5s1.6 4.5 3.9 3.9l-.7-1.3-3.1-4c-.2.5-.2.9-.1 1.4z" fill="#530905"/><path d="m54.3 15.4c.6 1.2 1.2 2.5 1.5 3.8 2.3 7.8-5.3 13.8-5.3 13.8-3-2.2-9-13-10.8-16.3l-.5-1c-.5-.5-1-1-1.5-1.6-4-4.6-7.6-10.8-8.7-12.8-.2-.4-.1-1 .3-1.2.1-.1.3-.1.5-.1 2.6.2 6.8 7.9 6.8 7.9h.1c7.9-3 14.3 1.4 17.6 7.5z" fill="#6d378f"/><path d="m39.7 16.7c8.4-3.4 14.6-1.4 14.6-1.4-3.3-6-9.7-10.4-17.7-7.4-.8 2.2 0 4.5 1 6.3.6.9 1.3 1.7 2.1 2.5z" fill="#fafafa"/><path d="m42.5 40.5s2.7-1.5 3.6-2.5c.9-.9-.3 3.4-1.7 4.1 0 0-1.5-1.7-1.9-1.6z" fill="#f59d4e"/><path d="m28.9 13.1h-.1c-.1 0-2.6-.7-3-2.2-.2-.8.3-1.8 1.4-2.7.1-.1.1-.1.2 0s.1.1 0 .2c-1 .9-1.5 1.7-1.3 2.5.3 1.4 2.8 2 2.8 2 .1 0 .1.1.1.2z" fill="#fafafa"/><path d="m41.6 28.4c.1-.3.2-.6.4-.9s.4-.6.6-.8.5-.4.8-.5.6-.2 1-.1c-.3 0-.6.1-.9.3-.1.1-.3.2-.4.2-.1.1-.2.2-.4.3-.2.2-.4.5-.6.7s-.3.5-.5.8z" fill="#f59d4e"/><path d="m44.3 27.2c-.1-.1-.3-.1-.4-.2s-.3-.1-.4-.2c-.1 0-.3-.1-.4-.1s-.3 0-.4 0c.1-.1.3-.1.4-.1.2 0 .3 0 .5.1.1 0 .3.1.4.2.1 0 .2.2.3.3z" fill="#f59d4e"/><path d="m27.8 23.3s-.5.9 0 1.2c.5.2.8-1.3.7-1.4-.2-.4-.5-.1-.7.2z" fill="#0a031c"/><path d="m33.5 30.9c-.4 1.2-.6 2.2-1.1 3.1-.3.5-.7.9-1.2 1.2-.4.3-1 .3-1.4.1-1.1-.5-2.1-2.2-2.1-2.2 2 .5 5.8-2.2 5.8-2.2z" fill="#d5301d"/><circle cx="30.7" cy="25.8" fill="#f59d4e" r=".3"/><circle cx="31.6" cy="26.7" fill="#f59d4e" r=".2"/><circle cx="29.1" cy="26.5" fill="#f59d4e" r=".3"/><circle cx="30.4" cy="27.6" fill="#f59d4e" r=".4"/><path d="m27.4 19.6c0-.2.1-.4.3-.4.6-.2 2.1-.7 2.7.6.8 1.6-.3.8-.9 0-.5-.9-2.2.6-2.1-.2z" fill="#242e41"/><path d="m213.2 182.4s-8.1-2.7-16.7-5.8c-8-2.9-16.5-6.1-19.4-8-6.2-3.9 14.3-8 14.3-8s4.1 2.3 8.1 5c1.2.8 2.5 1.6 3.4 2.5 9.7 10.1 11.7 1.7 11.7 1.7z" fill="#fed194"/><path d="m191.8 160.9s.2 7.1-1.6 9.8-2.8 2.5-2.8 2.5l-7.9-3.2 9.8-10.4z" fill="#f59d4e"/><path d="m213.2 182.4s-8.1-2.7-16.7-5.8c.2-5.4 2.9-11 2.9-11 1.2.8 2.4 1.7 3.4 2.5 4.4 3.6 6 4.2 6 4.2l8.7 3.9z" fill="#ffb113"/><path d="m217.7 168c.5-.1 1.1-.1 1.6 0l4.6 31.3s-.2.8-1.7 1.3c-.4.1-.9.2-1.3.3-2.7.4-6.8-11.1-9.2-14.7-3.2-4.7-1.6-4.5-1.6-4.5.7-3.1.2-6.4-1.3-9.2 0 0-3.4-1.3 5.8-3.8 1-.3 2.1-.5 3.1-.7z"/><path d="m217.7 168c.5-.1 1.1-.1 1.6 0l4.6 31.3s-.2.8-1.7 1.3z" fill="#ffb113"/><path d="m214.8 185.8c0 .1-.1.2-.2.2-.9.2-1.7.6-2.4 1.1-.1.1-.2.1-.3 0s-.1-.2 0-.3c.7-.6 1.6-1 2.6-1.2.2 0 .3.1.3.2z" fill="#fafafa"/><path d="m215.7 188.7c0 .1-.1.2-.2.2-1.4.3-1.9.9-1.9.9-.1.1-.2.1-.3 0s-.1-.2 0-.3c0 0 .6-.8 2.2-1.1.1.1.2.2.2.3z" fill="#fafafa"/><path d="m213.5 182.9c0 .1-.1.2-.2.2-2.4.4-2.3 1.8-2.3 1.8 0 .1-.1.2-.2.2s-.2-.1-.2-.2-.1-1.8 2.6-2.3c.2.1.3.2.3.3z" fill="#fafafa"/><path d="m191 160c-.4 2.8-1.4 5.4-2.8 7.9-1.2 2.1-2.6 4-4.3 5.7 0 0-40.5-9.7-47.8-14.4s-21.1-36.4-21.1-36.4 21.1-32.2 24.1-24.7c1.1 2.8 3.7 9.7 6.5 17.4 4.7 12.9 10.1 27.7 10.1 27.7 10.2.4 35.3 16.8 35.3 16.8z" fill="#663e36"/><path d="m188.2 167.9c-1.2 2.1-2.6 4-4.3 5.7 0 0-17-4.1-30.9-8.2-7.6-2.3-14.3-4.5-16.9-6.2-7.3-4.7-21.1-36.5-21.1-36.5s21.1-32.2 24.1-24.7c.3.7.7 1.8 1.2 3.1 1.3 3.5 3.3 8.7 5.3 14.3 0 0-9.9 10.8-8.3 21s8.1 23.7 50.9 31.5z" fill="#59302a"/><path d="m153 165.4c-7.6-2.3-14.3-4.5-16.9-6.2-7.3-4.7-21.1-36.5-21.1-36.5s21.1-32.2 24.1-24.7c.3.7.7 1.8 1.2 3.1 3.4 19.9-12.5 21.1-10.6 35.3s9.7 23.5 23.3 29z" fill="#42211d"/><path d="m134.8 150.7s-8.5-.1-17.7-.5c-8.5-.4-17.5-.9-20.9-1.8-7.1-1.9 11.2-11.9 11.2-11.9s4.7 1 9.2 2.4c1.4.4 2.8.7 4 1.4 12.3 6.8 11.6-1.9 11.6-1.9z" fill="#fed194"/><path d="m108 136.5s2.4 6.7 1.4 9.8-1.9 3.2-1.9 3.2l-8.5-.7 6.2-12.8z" fill="#f59d4e"/><path d="m134.8 150.7s-8.5-.1-17.7-.5c-1.4-5.3-.5-11.4-.5-11.4 1.4.4 2.7.9 4 1.4 5.2 2.1 6.9 2.2 6.9 2.2l9.4 1.1z" fill="#ffb113"/><path d="m132.8 132.4c.5-.4 1-.7 1.5-1l24.6 26.1s.4.9-.7 2.4c-.3.4-.6.8-1 1.1-2.3 2.1-13.5-5.9-18.1-7.7-6-2.3-4.4-3.2-4.4-3.2-1.4-3.3-4-6.1-7.2-7.8 0 0-4 1 2.9-7.3.7-.9 1.5-1.8 2.4-2.6z"/><path d="m132.8 132.4c.5-.4 1-.7 1.5-1l24.6 26.1s.4.9-.7 2.4z" fill="#ffb113"/><path d="m141.7 150.8c.1.1.1.2 0 .3-.7.7-1.2 1.6-1.5 2.6 0 .1-.2.2-.3.2s-.2-.2-.2-.3c.3-1.1.8-2 1.6-2.8.2-.1.3-.1.4 0z" fill="#fafafa"/><path d="m144.4 152.9c.1.1.1.2 0 .3-1.1 1.2-1.2 2.1-1.2 2.1 0 .1-.1.2-.3.2-.1 0-.2-.1-.2-.3s.1-1.1 1.3-2.4c.2 0 .3 0 .4.1z" fill="#fafafa"/><path d="m138.6 149c.1.1.1.2 0 .3-1.9 1.9-.9 3.2-.9 3.2.1.1.1.3 0 .4-.1.1-.3.1-.4 0-.1-.1-1.3-1.6 1-3.8 0-.2.2-.2.3-.1z" fill="#fafafa"/><path d="m136.3 113.9c-2.5 3.7-7.2 6.8-12.8 9.2-15.7 6.9-38.4 9.4-38.4 9.4 10.4 0 22.3 3.4 22.3 3.4s-.1 2.7-.3 5.3c-.2 2.2-.5 4.4-.9 4.9-.9 1.1-2.4 7-2.4 7-6.8.4-13.6.4-20.4-.1-17.2-1.3-31.9-5.1-35.9-6.8-5.7-2.5-13.7-9.1-10-18.9s41-26.3 41-26.3c1.8-3.5 7.8-7 15.1-9.9 13.8-5.6 32.1-9.4 35-8.5 4.3 1.4 17.1 17.2 7.7 31.3z" fill="#663e36"/><path d="m136.3 113.9c-2.5 3.7-7.2 6.8-12.8 9.2-15.7 6.9-38.4 9.4-38.4 9.4 10.4 0 22.3 3.4 22.3 3.4s0 .7-.1 1.6v.2.2.1.1.1.1.1.2c0 .8-.1 1.7-.2 2.5-.2 2.2-.5 4.4-.9 4.9-.9 1.1-2.4 7-2.4 7-10.6.4-21.2-.1-31.7-1.4-7.7-.9-14.6-5.3-18.7-11.8-4.6-7.2-1.1-9.6 16.7-10.3 1.2 0 2.6-.1 4-.2s2.9-.2 4.4-.3l1.1-.1c6.3-.6 37.4-4.3 46-18.6 9.7-15.9-10.5-21-39.1-13-.5.1 7.1-6 7-6.3l.4-.2c13.7-5.5 31.8-9.3 34.7-8.3 2.1.7 6 4.5 8.6 9.8 2.8 6.2 4.1 14.1-.9 21.6z" fill="#59302a"/><path d="m137.1 92.4c-3.1-1.4-10.8-2.7-17.5-2.6s-24.9 3.9-24.9 3.9h-.5c-.6-.8-.7-1.9-.5-2.8 13.7-5.5 30.8-10 33.7-9.1 2.2.7 7.1 5.3 9.7 10.6z" fill="#42211d"/><path d="m97.4 133.7c-13.6 7.1-37.5 4.3-41.8 2s-2.3-2.6-2.3-2.6c12.5 1.7 31.8-.6 31.8-.6 2 0 4.1.1 6.1.3 1.9.2 3.8.5 5.7.8z" fill="#42211d"/><path d="m91.2 132.8c-21 6.2-37.9.3-37.9.3 12.5 1.7 31.8-.6 31.8-.6 2 0 4.1.1 6.1.3z" fill="#27140e"/><path d="m46.6 51.3c0 .3 6.3 18.2 10.3 6.5s-3.2-8-3.2-8l-2.7 3-3-3.6z" fill="#bbc3c4"/><path d="m115.4 99.8s-82.2 29.4-64.4 37.7c17.9 8.4 46.4 6.6 46.4 6.6" fill="none" stroke="#fff" stroke-linecap="round" stroke-miterlimit="10" stroke-width=".4219"/><path d="m127.6 79.2s-18 9.9-22.8 10.9-26.4 10.9-26.4 10.9l-.3-.3c-1.2-1.2-6.1-6.1-16.7-15.8-12.4-11.5-18.8-28.9-19.5-29.9s-.6-1.1-.6-1.1c.8-1.3 1.8-2.5 3-3.5.8-.7 1.7-1.4 2.6-2.1.5 5.6 2.6 10.4 7.3 7.5s2.4-16.6 2.4-16.6l3.8-2.5c.4-.2.8-.2 1.2 0z" fill="#6d378f"/><path d="m127.6 79.2s-18 9.9-22.8 10.9c-2.5.5-9.4 3.4-15.6 6-5.7 2.5-10.8 4.8-10.8 4.8l-.3-.3c5.6-19.3-18.5-47-22.2-43.8-4.3 3.7-6.7 1.3-7.2 0s-1.3-.3-1.3-.3c-1.3-1.9-2.3-4-3.1-6.1.8-.7 1.7-1.4 2.6-2.1.5 5.6 2.6 10.4 7.3 7.5s2.4-16.6 2.4-16.6l3.8-2.5c.4-.2.8-.2 1.2 0z" fill="#582279"/><path d="m51 52.8s-1.7.4-7.5-1.8c0 0-.7.2.5-1.4.8-1 1.9-1.6 3.1-1.9z" fill="#c90060"/><path d="m127.6 79.2s-18 9.9-22.8 10.9c-2.5.5-9.4 3.4-15.6 6 .2-5.9-1.5-14.8-10.7-24.3-11.4-11.6-16.3-27.2-18.2-35.1.4-.2.8-.2 1.2 0z" fill="#42115f"/><path d="m129 81.4-31 9.6-8.5-8.3-22.5-22 34.9-14.5 6.2 8z" fill="#ff920f"/><path d="m145.3 48.1-3.3 6.8-3.6 7.2-.2.4-9.2 18.9-27.1-35.1 1.4-2.3 7.6-12.7.6-.9 8.8-14.6z" fill="#ffad01"/><path d="m120.3 15.7c-.2.3-3.5 7.5-7.8 15.2-2.6 4.6-5.6 9-8.8 13.2-.7.9-1.2 1.6-1.5 1.9l-.2.2 1.4-2.3 7.6-12.7.6-.9z"/><path d="m120.3 15.7-8.8 14.6-.6.9-7.6 12.8-1.2 2-.2.3-5.1 2.1-5.1 2.1-24.7 10.2 8.6-14.6 9.6-16.4z" fill="#fad6ab"/><path d="m120.3 15.7-8.8 14.6-.6.9-7.6 12.8-1.2 2-.2.3-5.1 2.1-5.1 2.1-24.7 10.2 8.6-14.6 9.6-16.4z" fill="#ffcf58"/><path d="m128.8 81.1-31 9.7-8.3-8.1s24.7.2 18.5-28.5z" fill="#f27204"/><path d="m76.4 44.8 34.5-13.5.6-.9-34.5 13.4z"/><path d="m118.1 74.1-17.4 6.7 3.6 4.5 18.3-5.6z" fill="#ede2db"/><path d="m115.5 78 1.5 1.8 2.9-1-1.5-1.8z" fill="#90898b"/><path d="m103 81.1.4.5 7-2.3-.4-.4z" fill="#90898b"/><path d="m104 82.4.4.5 7.8-2.5-.4-.5z" fill="#90898b"/><path d="m105 83.7.4.5 7.8-2.5-.4-.5z" fill="#90898b"/><path d="m92.9 63.6-13.3 4.7-4.7-5.1 13.8-4.6z" fill="#eaeced"/><g fill="#515151"><path d="m80.6 67.2-.7.2-3.5-3.8.7-.2z"/><path d="m80.7 67.2-.3.1-3.4-3.8.3-.1z"/><path d="m81.3 67-.3.1-3.4-3.8.3-.1z"/><path d="m81.9 66.8-.3.1-3.4-3.8.3-.1z"/><path d="m82.5 66.5-.4.1-3.4-3.8.4-.1z"/><path d="m83 66.4-.3.1-3.4-3.8.3-.1z"/><path d="m83.6 66.2-.3.1-3.4-3.7.3-.1z"/><path d="m84.2 66-.5.2-3.4-3.7.5-.2z"/><path d="m84.7 65.8-.3.1-3.3-3.7.3-.1z"/><path d="m85.2 65.6-.2.1-3.3-3.7.3-.1z"/><path d="m85.8 65.4-.3.1-3.3-3.7.3-.1z"/><path d="m86.4 65.2-.4.1-3.3-3.7.5-.2z"/><path d="m86.9 65-.3.1-3.3-3.7.3-.1z"/><path d="m87.4 64.8-.3.1-3.2-3.7.3-.1z"/><path d="m88 64.6-.3.1-3.2-3.7.3-.1z"/><path d="m88.5 64.5-.5.1-3.2-3.7.5-.2z"/><path d="m89.1 64.3-.3.1-3.2-3.7.3-.1z"/><path d="m89.6 64.1-.3.1-3.2-3.7.3-.1z"/><path d="m90.1 63.9-.2.1-3.2-3.7.3-.1z"/><path d="m90.7 63.7-.3.1-3.1-3.7.3-.1z"/><path d="m91.2 63.5-.6.2-3.2-3.7.7-.2z"/><path d="m91.7 63.3-.2.1-3.1-3.7.3-.1z"/></g><path d="m94.1 45.3-2.6 5.7 3.7 4.5 4.9-1.9-3.5-4.5 2.4-5.9z"/><path d="m91.8 50.4v.9s3.1-1.5 4.8-2.3c.1-.2.1-.4.2-.6z" fill="#b28567" opacity=".32"/><path d="m112.4 54.7c3.2-5.8 6.5-11.3 9.6-17.2 1.1-1.1 2.2-3.9 3.2-5.5.1-.5 1-1.2.6-1.6-2.9 5.2-5.8 10.1-8.7 15.3 0-.1-.3.2-.2.4-1.4 2.3-3 5.5-4.5 7.8 0 .3-.3.6-.3.8.1.4.2.3.3 0z" fill="#593d2d"/><path d="m127.4 32.2c-1.1-2-2.3-2.7-.4-.1 2.2 3 4 5.9 6.3 9 .1.2-.3.5-.3.6 0 .2.1.3-.1.5-.1-.2-.2-.1-.3.1.1 0-.4 1.1-.3.6-.4.8-.7 1.4-1.1 2.2-.2.2 0 1.2-.3.5-.8 1.9-2.1 3.5-2.6 5.4-.3-.1-1.6 2.5-1.6 2.9-.2-.3-2 3.2-1.9 3.5-.1.2-.1-.2-.2 0-.1.4-.5.9-.6 1.3-.2-.1-.3.6-.5.7.3 0-.1.4-.2.4-.7 1.5-1.8 3.2-2.6 4.8-.1.2-.6-.4-.4-.5.1-.1-.3-.2-.2-.3-1.5-1.5-2.7-3.6-4.4-5.1.1-.1.1-.2 0-.2-.7-.6-1.1-1.4-1.6-1.9-.5-.3-1.1-1.8-1.7-1.5.3.3.5.6.7.9 2.5 2.7 4.5 5.3 6.7 8.1.4.4.9 1.6 1.3.5 3.7-6.8 7.9-15 12-22.4.4-.9.8-1.1-.2-1.9.1-.3-.3-.5-.4-.8-.3-.1 0-.1-.1-.3-.3-.1-.5-.6-.7-.8-1.5-2.1-2.9-4.3-4.3-6.2z" fill="#593d2d"/><path d="m142 54.9.3.4-3.5 6.9c-.1 0-.1.1-.2.1l-.3.2c-2.2 1.3-4.5 2.3-7 2.8-4.6 1-7.7.3-10-1.4-.1-.1-.2-.1-.2-.2-4-3.1-5.1-9.2-6.4-13.1l-.1-.3c-.7-2-1.4-3.4-2.7-3.3-3.2.2-4.9-1.5-8.2-2.9l-.3-.1c-2-.9-4.8-1.6-8.7-1.8-11.1-.7-19.3 4.8-19.3 4.8s.1-.3.2-.9l9.6-16.4 35-14 25.1 32.4z" fill="#ff920f" opacity=".47"/><path d="m142.3 55.3-3.5 6.9-.1.3-.1-.1-.1-.2-3.4-4.7 4-6.6 2.9 4z"/><path d="m46.8 45.7s-1.2 7.5.2 11.1c0 0 .4.6.4-.7s-.1-5 2.3-4.3c0 0 .8 0 1.4 1.1z" fill="#fafafa"/><path d="m133.9 52.4c-.6 1-2.6.3-2.6.3s2.3 3.6 2.3 4.9c.1 1.3-1.5.9-1.5.9.3.7.5 1.4.7 2.2.2.9-.1 1.2-.1 1.2-1.2.5-2-.6-2-.6s0 .5-1 .8-2.4-1.5-4-3.7c-.8-1.2-1.8-2.2-3-3.1-.1 4.7-2 5.3-1.9 3.3 0-1.6-1-4.8-1.4-6.4-.1-.2-.1-.5-.1-.7-.2-1.2-.4-2.5-.7-3.7l2.9-3.8s.7.4 1.7.9c1.9 1 4.7 2.7 5.7 3.8 1.5 1.8 5.6 2.7 5 3.7z" fill="#fed194"/><path d="m123.1 44.9c-.1 0-.1.1-.2.1-.6 1.3-1.3 2.6-2.1 3.7-.8 1-1.3 2.2-1.4 3.4-.1-.2-.1-.5-.1-.7-.2-1.2-.4-2.5-.7-3.7l2.9-3.8c-.2 0 .6.4 1.6 1z" fill="#f59d4e"/><path d="m123.2 44.3c-1.2 3.1-5.1 4.6-5.1 4.6l-5.2-3.8s.2.5-2.1.6-24-12.4-24.2-12.6l-13.4 16.6c-5.6-2.5-10-7.3-12-13.2l.6-.7c1.8-2.1 7.2-8.3 11.5-12 5.3-4.6 13.9-10.2 19.7-10.2 12.8 0 24.1 21.1 25.3 22.9.7.9.7 2.2 0 3.1z" fill="#fafafa"/><path d="m86.6 33.2-13.4 16.5c-5.6-2.5-10-7.3-12-13.2l.6-.7s2.2 5.3 6.1 8.2 8.6-7.7 12-10.5c2-1.7 4.7-1.8 6.7-.3z" fill="#d2d7db" opacity=".54"/><path d="m130.7 61.2c-.7-1.1-1.5-2.1-2.1-3.2-.3-.5-.7-1.1-1-1.7s-.6-1.1-.8-1.7c.2.3.3.6.5.8.2.3.3.5.5.8l1 1.6c.3.6.7 1.1 1 1.7l.5.8c.1.3.2.6.4.9z" fill="#f59d4e"/><path d="m132.1 58.4c-.5-.9-1.1-1.8-1.6-2.8-.5-.9-1-1.9-1.4-2.9.2.2.3.4.5.7l.4.7c.3.5.5.9.8 1.4s.5.9.7 1.4l.3.7c.1.3.2.6.3.8z" fill="#f59d4e"/><path d="m131.3 52.7-.6-.9-.6-1c.3.2.6.5.8.8s.4.7.4 1.1z" fill="#f59d4e"/><path d="m86.6 33.2-13.4 16.5c-5.6-2.5-10-7.3-12-13.2 2.7 5 8.3 11.7 11.2 11.5 2.9-.3 12.1-14 12.1-14.5s-.9-1.3-.9-1.3c1.1 0 2.1.3 3 1z" fill="#aeb6b7"/><path d="m112.9 45.1s2.8-1.9 4.2-3.6c0 0 1.3-.1-2.7 4.7z" fill="#bbc3c4"/><path d="m51 52.8s9.3-1.3 12.7-19.1c0 0-.4-.6-2 .4s-4.1 3.5-4.1 3.5-.9 9.6-6.6 15.2z" fill="#c90060"/><path d="m51 52.8c1.4-2.2 2.4-4.6 2.9-7.1.9-4 1.6-9 1.2-9.7s4.3.7 4.4 1.4.2 10.4 1.1 14.7c.1 0-6.7-3.4-9.6.7z" fill="#fafafa"/><path d="m50.1 52.9s-4.1.9-2.7 5.1 3.8 4.8 3.8 4.8-2.3-2.1-1.3-4.1 1.6-3.2 1.1-5.8z" fill="#c90060"/><path d="m50.7 53.4s-.2 2.9 2.8 2.8 3.9-1.5 3.9-1.5-1.8 1.1-3 0c-1.1-1.1-1.8-1.7-3.6-1.9z" fill="#c90060"/></svg>