<svg enable-background="new 0 0 300 150" viewBox="0 0 300 150" xmlns="http://www.w3.org/2000/svg"><path d="m70.4 111.8c-5.4 0-9.8-4.4-9.8-9.8s4.4-9.8 9.8-9.8 9.8 4.4 9.8 9.8-4.3 9.8-9.8 9.8zm0-16.7c-3.8 0-6.9 3.1-6.9 6.9s3.1 6.9 6.9 6.9 6.9-3.1 6.9-6.9-3.1-6.9-6.9-6.9z" fill="#ef9926"/><path d="m283.6 57.6c-1.9 0-3.4-1.5-3.4-3.4s1.5-3.4 3.4-3.4 3.4 1.5 3.4 3.4c.1 1.9-1.5 3.4-3.4 3.4zm0-5.9c-1.4 0-2.5 1.1-2.5 2.5s1.1 2.5 2.5 2.5 2.5-1.1 2.5-2.5-1.1-2.5-2.5-2.5z" fill="#ffeb97"/><path d="m103.9 148.1c-2.2 0-4-1.8-4-4s1.8-4 4-4 4 1.8 4 4c.1 2.2-1.7 4-4 4zm0-6.9c-1.6 0-2.9 1.3-2.9 2.9s1.3 2.9 2.9 2.9 2.9-1.3 2.9-2.9c0-1.6-1.3-2.9-2.9-2.9z" fill="#ea3f3f"/><circle cx="245.9" cy="94.3" fill="#ffae1f" r="4.4"/><circle cx="62.7" cy="44.8" fill="#ffae1f" r="3.4"/><circle cx="212" cy="23.5" fill="#ffd522" r="3.9"/><circle cx="9.4" cy="122.5" fill="#ffd522" r="3.9"/><circle cx="286.2" cy="130.1" fill="#ffd522" r="2.9"/><g fill="#e54242"><circle cx="87.5" cy="80.9" r="4.4"/><circle cx="185.8" cy="2.5" r="1.5"/><circle cx="29.9" cy="113.1" r="1.5"/><circle cx="100.5" cy="103.9" r="1.5"/></g><circle cx="216.5" cy="87.7" fill="#ffae1f" r="1.5"/><circle cx="103.4" cy="10.3" fill="#ffc91f" r="1.5"/><circle cx="157.8" cy="20.5" fill="#ef4b4b" r="2.5"/><circle cx="296.7" cy="106.4" fill="#ef4b4b" r="2.5"/><circle cx="233.8" cy="75.7" fill="#e54242" r="2.5"/><path d="m261.6 132.1-10-10.5-10.2 5.6-1.4-2.6 12.2-6.6 9.6 10 15.9-14.8 2 2.2z" fill="#ffae1f"/><path d="m247.8 55.8-1.3-14.6h14.5l-4.5-15.7 16.6-1-4.5-11.6 3.7-1.4 6.5 16.6-17.2 1 4.5 16h-15.4l.9 10.3z" fill="#ef4b4b"/><path d="m87.9 51.2-2.8-.9 4.9-15.3-13.5-5.9 5.7-14.3-16.1-4 .8-2.8 19.4 4.8-5.9 14.8 13.3 5.9z" fill="#ffae1f"/><path d="m25.9 93.4-8.1-17.1-10.1 14.7-3.2-2.2 14-20.4 8.5 18 9-9.8 8.2 13.7-3.4 2-5.5-9.2z" fill="#ffe669"/><path d="m41.2 52.6c-8.6-5.7-5.9-17.5-5.7-18l2.9.7c0 .1-2.4 10.3 4.5 14.8zm238.3 33.1-2.5-1.5c5.2-8.9 17.1-6.8 17.6-6.7l-.5 2.9c-.2 0-10.5-1.8-14.6 5.3zm-200.1 44.7-2.8-1c2.7-6.2 9.2-9.9 15.9-8.9l-.3 2.9c-9.6-1-12.7 7-12.8 7z" fill="#ffae1f"/><path d="m215.4 150-2.7-1.1c1.2-3.1 1.4-5.7.3-7.9-1.1-2.1-2.9-3.7-5.1-4.5l.9-2.8c3 1.1 5.4 3.2 6.9 6.1 1.4 2.9 1.3 6.3-.3 10.2zm-102.3-127.2-1.4-2.6c2.9-1.6 4.7-3.6 5.3-5.9.5-2.3.1-4.7-1.1-6.8l2.5-1.6c1.6 2.7 2.2 5.9 1.5 9-.9 3.3-3.1 5.9-6.8 7.9z" fill="#cc3232"/><path d="m236.6 115.7c-12.6-2.4-15.6-13.9-15.7-14.4l2.9-.7-1.4.4 1.4-.4c1.8 6.3 7 11 13.4 12.2z" fill="#ef4b4b"/><path d="m216.9 40c-1.7 1.1 17.1-1.4 25.4-23.8.7-1.8-7.9-7.9-9.9-5.4-2.1 2.5 3.9 16.1-15.5 29.2z" fill="#ffae1f"/><path d="m108 65s.1 58.2 1.4 60.3c1.3 2.2 49 24 50.8 23.5l-.3-62.2z" fill="#e54242"/><path d="m126 134s4.2 6.3 13.5 6.3v-58.7l-13.5-6.1z" fill="#ffae1f"/><path d="m139.5 91.4v-9.8l-13.5-6.1v12.1c4.5 1.5 9 2.8 13.5 3.8z" fill="#ffae1f" opacity=".2"/><path d="m159.3 86.8.8 61.9s46.3-22.4 46.7-24.8 1.7-61.3 1.7-61.3z" fill="#c13838"/><path d="m181.1 138.4s8.1-1 12.2-6.3l1.4-58.2-13.8 4.2z" fill="#ef9926"/><path d="m194.3 90.7.4-16.7-13.8 4.2.1 17.4c4.5-1.6 8.9-3.2 13.3-4.9z" fill="#ef9926" opacity=".17"/><path d="m103.4 56.8s-.4 13.2.1 15 57.6 25.3 58.9 25.8c0 0-.4-16-.4-16.6 0-.7-58.6-24.2-58.6-24.2z" fill="#ef4b4b"/><path d="m162 80.9.4 16.6s48.9-19.9 49.6-22.2c.4-1.2 1.5-16.2-.4-16.1z" fill="#d33c3c"/><path d="m162 80.9 49.6-21.8s-52.1-20.1-54.5-20-53.7 17.6-53.7 17.6z" fill="#e54242"/><path d="m127.7 48.5 57.4 22.3 1.1 16.8s7.6.8 11.4-5l-1-16.9-57.8-20.9s-8.1.1-11.1 3.7z" fill="#ffae1f"/><path d="m175.3 45.4s8.1-.1 12.1 4.5l-50 20.8-.2 16.3s-11.1-1.2-14.4-6.1l.4-16z" fill="#ffc91f"/><path d="m195.5 26.4c-20.8-22.2-39.7 25.7-35.1 30.4 6.1 6.3 57-6.9 35.1-30.4zm-33.7 29.2c-.8-1.1 16.1-42.3 29.3-25 15.3 20.1-28.1 26.7-29.3 25z" fill="#ffe424"/><path d="m197.7 29.1c0 .5-.1.9-.2 1.3-.6 3.5-1.7 6.9-3.4 10-.3 1.5-.9 2.9-1.9 4.1-.2.4-.5.7-.9 1-6.7 7.3-23.3 10.4-28.3 10.3-1.1.1-2.1.2-3.2.3.1.2.2.5.4.6 6.1 6.1 53.3-5.8 37.5-27.6z" fill="#ffbb24" opacity=".18"/><path d="m160.5 55.2c3.2-1.4 3.3-28.8-11.3-21.9-15.5 7.1 7 23.7 11.3 21.9zm-9.9-19c9.9-5.9 10.1 17.8 9.5 18.2-1 .5-21.1-11.3-9.5-18.2z" fill="#ffe424"/><path d="m147.6 34.1c-.1.2-.1.5-.2.7-.4 1.8-.5 3.7-.3 5.6-.1.8-.1 1.6.1 2.4 0 .2.1.5.2.7 1.9 5 9.4 9.8 11.9 10.7.5.3 1 .5 1.5.8-.1.1-.2.2-.3.2-4.1 1.8-25.1-13.5-12.9-21.1z" fill="#ffbb24" opacity=".18"/><path d="m160.7 56.7c4.6-4.7-14.3-52.5-35.1-30.4-22 23.5 28.9 36.7 35.1 30.4zm-30.7-26.2c13.1-17.3 30.1 23.9 29.3 25-1.3 1.7-44.6-4.9-29.3-25z" fill="#ffe424"/><path d="m123.4 29c0 .4.1.9.2 1.3.6 3.5 1.7 6.8 3.4 10 .3 1.5 1 2.9 1.9 4.1.2.4.5.7.9 1 6.7 7.3 23.3 10.4 28.3 10.3 1.1.1 2.1.2 3.2.3-.1.2-.2.5-.4.7-6.2 6.1-53.4-5.9-37.5-27.7z" fill="#ffbb24" opacity=".18"/><path d="m173.5 43.1c-8.8-7.3-13.7 11.6-11.7 13.1 2.6 2.1 21.2-5.4 11.7-13.1zm-11.2 12.6c-.4-.4 4-16.7 9.8-10.8 6.7 6.8-9.3 11.4-9.8 10.8z" fill="#ffe424"/><path d="m174.5 44v.5c-.1 1.3-.3 2.7-.8 3.9 0 .6-.2 1.1-.5 1.6 0 .2-.1.3-.3.4-2.2 3.1-8.3 5.1-10.1 5.3-.4.1-.8.2-1.2.3 0 .1.1.2.2.2 2.5 2 19.7-4.8 12.7-12.2z" fill="#ffbb24" opacity=".18"/><path d="m131.8 66.4c3.7-1.8 7.5-3.2 11.5-4.3.8-.2 1.2-1.1 1-1.8s-1-1.2-1.8-1c-4.2 1.2-8.3 2.7-12.2 4.6-1.7.7-.2 3.3 1.5 2.5zm-5.6 3.5-.5 6.3c-.1 1.9 2.8 1.9 2.9 0l.5-6.3c.2-1.9-2.7-1.9-2.9 0z" fill="#ffe424" opacity=".48"/><path d="m175.8 63.2 13.3 4.4c1.8.6 2.6-2.2.8-2.8l-13.3-4.4c-1.8-.6-2.6 2.2-.8 2.8zm16 6.8c0 2.1 0 4.2-.1 6.3-.1 1.9 2.8 1.9 2.9 0 .1-2.1.2-4.2.1-6.3 0-1.9-2.9-1.9-2.9 0zm-63.1 48.1c0 2.5 0 5 .1 7.4 0 .8.7 1.5 1.5 1.5s1.5-.7 1.5-1.5c0-2.5 0-4.9-.1-7.4 0-.8-.7-1.5-1.5-1.5s-1.5.7-1.5 1.5zm.1-17.2c0 4.1 0 8.1.1 12.2 0 .8.7 1.5 1.5 1.5s1.5-.7 1.5-1.5c0-4.1-.1-8.1-.1-12.2 0-.8-.7-1.5-1.5-1.5s-1.5.7-1.5 1.5z" fill="#ffc91f" opacity=".45"/><path d="m189.2 95.5c-.1 5.8-.2 11.7-.2 17.5 0 .8.7 1.5 1.5 1.5s1.5-.7 1.5-1.5c0-5.8.1-11.7.2-17.5 0-1.8-2.9-1.8-3 0zm0 23.2c-.2 2.6-.2 5.1.2 7.7.2 1.9 3.2 1.9 2.9 0-.3-2.6-.4-5.1-.2-7.7.1-1.9-2.8-1.9-2.9 0z" fill="#ffae1f" opacity=".51"/><path d="m113.9 58.5c3.8-1.2 7.6-2.4 11.4-3.8 1.8-.6 1-3.5-.8-2.9-3.8 1.4-7.6 2.7-11.4 3.8-1.8.6-1.1 3.4.8 2.9zm-3.3 22.9c-.2 7-.2 14 0 21 0 1.9 2.9 1.9 2.9 0-.2-7-.2-14 0-21 .1-2-2.9-1.9-2.9 0zm.1 25.9c-.1 2.4-.1 4.8 0 7.1 0 1.9 2.9 1.9 2.9 0v-7.1c.1-1.9-2.8-1.9-2.9 0z" fill="#ef4b4b"/></svg>